<?xml version="1.0" standalone="no"?>
<!DOCTYPE svg PUBLIC "-//W3C//DTD SVG 1.1//EN" "http://www.w3.org/Graphics/SVG/1.1/DTD/svg11.dtd" >
<svg xmlns="http://www.w3.org/2000/svg">
<metadata></metadata>
<defs>
<font id="brutal_typelight" horiz-adv-x="1101" >
<font-face units-per-em="2048" ascent="1647" descent="-401" />
<missing-glyph horiz-adv-x="526" />
<glyph unicode="&#xfb01;" horiz-adv-x="1126" d="M43 944v98h178v66q0 158 80 249t242 91q33 0 69 -4v-101l-20 1q-21 2 -37 2q-110 0 -166.5 -53.5t-56.5 -184.5v-66h618v-1042h-110v944h-508v-944h-111v944h-178zM840 1219v225h110v-225h-110z" />
<glyph unicode="&#xfb02;" horiz-adv-x="1128" d="M43 944v98h178v66q0 158 80 249t242 91q33 0 69 -4v-101l-20 1q-21 2 -37 2q-110 0 -166.5 -53.5t-56.5 -184.5v-66h274v-98h-274v-944h-111v944h-178zM842 0v1444h110v-1444h-110z" />
<glyph horiz-adv-x="0" />
<glyph horiz-adv-x="682" />
<glyph unicode=" "  horiz-adv-x="526" />
<glyph unicode="&#x09;" horiz-adv-x="526" />
<glyph unicode="&#xa0;" horiz-adv-x="526" />
<glyph unicode="!" horiz-adv-x="512" d="M197 0v252h118v-252h-118zM201 451v983h110v-983h-110z" />
<glyph unicode="&#x22;" horiz-adv-x="675" d="M102 1214v230h119v-230l-26 -229h-66zM453 1214v230h120v-230l-26 -229h-66z" />
<glyph unicode="#" horiz-adv-x="1286" d="M59 395v103h244l86 438h-244v102h265l77 396h99v-41l-68 -355h377l78 396h98v-41l-70 -355h228v-102h-248l-86 -438h246v-103h-267l-77 -395h-99v41l68 354h-377l-76 -395h-100v41l70 354h-224zM410 498h378l86 438h-378z" />
<glyph unicode="$" horiz-adv-x="1243" d="M104 465h111q0 -104 36.5 -182.5t98.5 -123t134.5 -66t154.5 -21.5q171 0 262.5 77t91.5 199q0 103 -65 164.5t-207 118.5l-195 76q-106 41 -170.5 75t-113.5 78.5t-69.5 100.5t-20.5 133q0 156 111.5 257t305.5 111v189h111v-193q87 -9 161 -41.5t133 -89t92.5 -145.5 t33.5 -201h-111q0 102 -31 178t-85.5 119t-121 63.5t-145.5 20.5q-158 0 -250 -72.5t-92 -191.5q0 -106 60.5 -162.5t212.5 -116.5l194 -76q94 -36 156 -69t116 -78.5t79.5 -104.5t25.5 -135q0 -161 -107.5 -265.5t-320.5 -117.5v-204h-111v204q-94 7 -175.5 39.5 t-147.5 90.5t-104 151t-38 211z" />
<glyph unicode="%" horiz-adv-x="1562" d="M94 1010v164q0 134 78 212t221 78q144 0 221.5 -78t77.5 -212v-164q0 -135 -77.5 -213t-221.5 -78q-143 0 -221 78.5t-78 212.5zM193 1001q0 -86 52.5 -140t147.5 -54q97 0 149 55t52 139v181q0 86 -52 140t-149 54q-95 0 -147.5 -54t-52.5 -140v-181zM330 0v41l805 1393 h96v-41l-807 -1393h-94zM870 260v164q0 134 78 212.5t221 78.5q144 0 222.5 -78.5t78.5 -212.5v-164q0 -134 -78.5 -212.5t-222.5 -78.5q-143 0 -221 78.5t-78 212.5zM969 252q0 -86 53 -140.5t147 -54.5q97 0 150 55.5t53 139.5v180q0 86 -52.5 140.5t-150.5 54.5 q-94 0 -147 -54.5t-53 -140.5v-180z" />
<glyph unicode="&#x26;" horiz-adv-x="1249" d="M72 362q0 117 56 205.5t179 188.5l60 49l-62 69q-45 51 -68 82t-44 84.5t-21 112.5q0 130 88.5 212.5t222.5 82.5q132 0 216.5 -80.5t84.5 -212.5q0 -144 -155 -270l-107 -86l420 -463q82 149 82 346h104q0 -242 -110 -424l190 -205v-53h-96l-160 170 q-168 -199 -434 -199q-201 0 -323.5 108.5t-122.5 282.5zM182 373q0 -134 94.5 -217.5t243.5 -83.5q113 0 205.5 45t157.5 127l-445 487l-63 -51q-104 -85 -148.5 -150t-44.5 -157zM283 1153q0 -59 23.5 -104.5t92.5 -118.5l54 -60l100 84q62 50 93.5 97.5t31.5 105.5 q0 84 -56.5 137.5t-140.5 53.5q-87 0 -142.5 -54t-55.5 -141z" />
<glyph unicode="'" horiz-adv-x="323" d="M102 1214v230h119v-230l-26 -229h-66z" />
<glyph unicode="(" horiz-adv-x="612" d="M197 20v1172q0 168 95 258t261 90v-102q-114 0 -180 -64t-66 -178v-1180q0 -113 65.5 -177t180.5 -64v-103q-166 0 -261 90t-95 258z" />
<glyph unicode=")" horiz-adv-x="612" d="M59 -225q115 0 180.5 64t65.5 177v1180q0 114 -66 178t-180 64v102q166 0 261.5 -90.5t95.5 -257.5v-1172q0 -167 -95.5 -257.5t-261.5 -90.5v103z" />
<glyph unicode="*" horiz-adv-x="845" d="M70 911l270 152l-270 151l45 78l266 -157l-2 309h88l-2 -309l266 159l45 -80l-272 -151l272 -152l-45 -77l-266 157l2 -309h-88l2 309l-266 -160z" />
<glyph unicode="+" horiz-adv-x="1075" d="M111 594v94h376v377h101v-377h377v-94h-377v-383h-101v383h-376z" />
<glyph unicode="," horiz-adv-x="442" d="M68 -197l139 461h121v-53l-172 -408h-88z" />
<glyph unicode="-" horiz-adv-x="890" d="M135 590v102h623v-102h-623z" />
<glyph unicode="." horiz-adv-x="442" d="M162 0v264h119v-264h-119z" />
<glyph unicode="/" horiz-adv-x="933" d="M94 -164l645 1704h101v-41l-645 -1704h-101v41z" />
<glyph unicode="0" horiz-adv-x="1222" d="M156 426v582q0 215 121.5 335.5t332.5 120.5t334 -120.5t123 -335.5v-582q0 -215 -123 -336t-334 -121t-332.5 121t-121.5 336zM266 420q0 -159 91.5 -253.5t252.5 -94.5t253.5 95t92.5 253v592q0 160 -92.5 255t-253.5 95t-252.5 -95t-91.5 -255v-592z" />
<glyph unicode="1" horiz-adv-x="526" d="M88 1309v57l131 68h111v-1434h-111v1309h-131z" />
<glyph unicode="2" horiz-adv-x="1144" d="M115 1008q0 214 122 335t314 121q195 0 310.5 -116.5t115.5 -305.5q0 -82 -24.5 -157t-82 -153t-91.5 -116.5t-113 -118.5q-17 -17 -25 -26l-365 -369h732v-102h-883v92l434 443q46 46 65.5 66.5t60 65t59.5 70.5t47.5 68.5t41 76.5t23 76t10.5 84q0 148 -84.5 234 t-230.5 86q-151 0 -241 -94t-91 -260h-104z" />
<glyph unicode="3" horiz-adv-x="1165" d="M111 412h106q5 -157 101 -248.5t262 -91.5q163 0 252.5 89.5t89.5 244.5q0 133 -84 213.5t-228 80.5h-125v97h121q129 0 206 74.5t77 201.5q0 119 -80.5 204t-228.5 85q-155 0 -241.5 -91t-88.5 -255h-107q1 213 119 330.5t318 117.5q194 0 305.5 -109.5t111.5 -273.5 q0 -127 -62.5 -209.5t-164.5 -117.5q113 -29 187.5 -123.5t74.5 -231.5q0 -201 -120.5 -315.5t-333.5 -114.5q-210 0 -336.5 118.5t-130.5 324.5z" />
<glyph unicode="4" horiz-adv-x="1110" d="M74 334v88l569 1012h98v-41l-540 -957h553v406h110v-406h193v-102h-193v-334h-110v334h-680z" />
<glyph unicode="5" horiz-adv-x="1185" d="M139 371h111q20 -139 114.5 -219t237.5 -80q164 0 252 104.5t88 280.5q0 182 -90.5 279.5t-243.5 97.5q-94 0 -169.5 -38.5t-123.5 -99.5h-108l63 738h701v-103h-609l-45 -516q129 115 308 115q192 0 310 -118t118 -353q0 -226 -121 -358t-332 -132q-191 0 -313.5 106 t-147.5 296z" />
<glyph unicode="6" horiz-adv-x="1173" d="M135 434q0 97 32 183t103 200l387 617h103v-41l-377 -594q96 80 258 80q194 0 307 -119t113 -326q0 -215 -122.5 -340t-340.5 -125q-220 0 -341.5 124.5t-121.5 340.5zM246 428q0 -164 90.5 -260t261.5 -96q170 0 261 96t91 260t-87.5 260t-260.5 96q-162 0 -259 -93.5 t-97 -262.5z" />
<glyph unicode="7" horiz-adv-x="1093" d="M104 1040v394h887v-97l-518 -1337h-100v41l501 1290h-665v-291h-105z" />
<glyph unicode="8" horiz-adv-x="1234" d="M135 387q0 145 81.5 240t201.5 125q-104 35 -171 115.5t-67 211.5q0 169 115 277t321 108q207 0 323 -108t116 -277q0 -131 -66.5 -211.5t-169.5 -115.5q118 -30 199.5 -125.5t81.5 -239.5q0 -194 -126.5 -306t-357.5 -112q-230 0 -355.5 112t-125.5 306zM246 385 q0 -147 99 -230t271 -83q174 0 273.5 83t99.5 230q0 149 -99.5 232t-273.5 83q-173 0 -271.5 -83t-98.5 -232zM291 1077q0 -133 87 -208.5t238 -75.5t238.5 75.5t87.5 208.5t-87.5 209t-238.5 76t-238 -76t-87 -209z" />
<glyph unicode="9" horiz-adv-x="1173" d="M115 1008q0 209 122 332.5t341 123.5t340.5 -123.5t121.5 -332.5q0 -100 -28.5 -187.5t-98.5 -204.5l-370 -616h-101v41l367 596q-98 -82 -258 -82q-203 0 -319.5 121t-116.5 332zM225 1008q0 -164 88.5 -262.5t257.5 -98.5q161 0 260 95.5t99 265.5q0 162 -91.5 258 t-260.5 96q-172 0 -262.5 -95.5t-90.5 -258.5z" />
<glyph unicode=":" horiz-adv-x="442" d="M162 0v264h119v-264h-119zM162 778v264h119v-264h-119z" />
<glyph unicode=";" horiz-adv-x="442" d="M68 -197l139 461h121v-53l-172 -408h-88zM190 778v264h119v-264h-119z" />
<glyph unicode="&#x3c;" horiz-adv-x="995" d="M111 598v92l714 387h60v-76l-662 -356l662 -356v-78h-60z" />
<glyph unicode="=" horiz-adv-x="1073" d="M111 373v94h852v-94h-852zM111 817v94h852v-94h-852z" />
<glyph unicode="&#x3e;" horiz-adv-x="995" d="M111 211v78l661 356l-661 356v76h59l715 -387v-92l-715 -387h-59z" />
<glyph unicode="?" horiz-adv-x="1038" d="M74 1012q0 213 125.5 332.5t322.5 119.5q202 0 313 -111t111 -268q0 -60 -19.5 -115.5t-43.5 -92t-67.5 -76t-69 -57.5t-70.5 -48l-113 -73v-172h-110v211l155 104q36 24 51 35t45.5 34.5t44.5 39t34 41.5t29.5 49t16.5 54.5t7 65.5q0 115 -81.5 196t-232.5 81 q-154 0 -249 -92.5t-95 -257.5h-104zM449 0v252h118v-252h-118z" />
<glyph unicode="@" horiz-adv-x="2062" d="M156 578q0 196 66 361.5t183 280.5t283.5 179.5t362.5 64.5q179 0 336 -57t272.5 -160t182.5 -255.5t67 -334.5q0 -242 -99 -389t-258 -147q-87 0 -146.5 46.5t-72.5 139.5q-67 -80 -157.5 -132t-200.5 -52q-159 0 -252.5 98t-93.5 262v187q0 164 93.5 262t252.5 98 q108 0 198 -52t154 -128l37 158h53v-637q0 -80 36.5 -122t102.5 -42q112 0 184 118.5t72 331.5q0 216 -103 382t-275 252.5t-383 86.5q-175 0 -323.5 -57.5t-253 -161t-163.5 -253t-59 -328.5q0 -176 59 -325.5t163.5 -254t253 -163t323.5 -58.5h51v-86h-51q-195 0 -362 66 t-284 182t-183 281t-66 358zM725 498q0 -125 70.5 -204t193.5 -79q174 0 332 178v363q-162 182 -332 182q-123 0 -193.5 -79t-70.5 -204v-157z" />
<glyph unicode="A" horiz-adv-x="1339" d="M53 0v41l555 1393h121l557 -1393v-41h-117l-159 406h-686l-162 -406h-109zM360 508h613l-305 768z" />
<glyph unicode="B" horiz-adv-x="1329" d="M197 0v1434h598q173 0 269.5 -96t96.5 -275q0 -127 -54.5 -206t-145.5 -112q114 -27 183.5 -114t69.5 -244q0 -184 -98 -285.5t-272 -101.5h-647zM315 106h508q130 0 201.5 75.5t71.5 209.5q0 137 -71.5 213t-201.5 76h-508v-574zM315 782h467q123 0 190.5 73t67.5 200 q0 130 -68 201t-196 71h-461v-545z" />
<glyph unicode="C" horiz-adv-x="1347" d="M156 485v463q0 244 143 380t397 136q105 0 196.5 -30t163.5 -88t114 -151t42 -210v-20h-118v20q0 90 -34 162t-90.5 116t-127 67.5t-146.5 23.5q-200 0 -311 -105t-111 -293v-479q0 -188 110.5 -292.5t311.5 -104.5q76 0 146.5 23.5t127 67.5t90.5 116t34 162v20h118v-20 q0 -117 -42 -210t-114 -151t-163.5 -88.5t-196.5 -30.5q-254 0 -397 136t-143 380z" />
<glyph unicode="D" horiz-adv-x="1380" d="M197 0v1434h489q249 0 394 -132.5t145 -369.5v-430q0 -237 -145 -369.5t-394 -132.5h-489zM315 106h371q195 0 307.5 106.5t112.5 287.5v434q0 181 -112 287t-308 106h-371v-1221z" />
<glyph unicode="E" horiz-adv-x="1183" d="M197 0v1434h870v-107h-752v-551h656v-106h-656v-564h754v-106h-872z" />
<glyph unicode="F" horiz-adv-x="1167" d="M197 0v1434h878v-107h-758v-559h660v-106h-660v-662h-120z" />
<glyph unicode="G" horiz-adv-x="1409" d="M156 485v463q0 243 147.5 379.5t405.5 136.5q105 0 197.5 -30t166 -87t117.5 -149t45 -207v-16h-121v16q-1 88 -36 158.5t-92.5 114.5t-129 67t-149.5 23q-203 0 -318 -105.5t-115 -292.5v-471q0 -188 114 -296.5t312 -108.5q288 0 414 276v252h-366v101h487v-709h-72 l-30 217q-141 -248 -439 -248q-250 0 -394 137.5t-144 378.5z" />
<glyph unicode="H" horiz-adv-x="1419" d="M197 0v1434h118v-660h789v660h119v-1434h-119v668h-789v-668h-118z" />
<glyph unicode="I" horiz-adv-x="512" d="M197 0v1434h118v-1434h-118z" />
<glyph unicode="J" horiz-adv-x="1157" d="M53 412v57h119v-57q0 -159 92.5 -245.5t253.5 -86.5q156 0 251 88t95 248v1018h119v-1022q0 -216 -127.5 -329.5t-337.5 -113.5q-213 0 -339 112t-126 331z" />
<glyph unicode="K" horiz-adv-x="1226" d="M197 0v1434h118v-660h271l452 660h111v-41l-461 -666l486 -686v-41h-117l-469 668h-273v-668h-118z" />
<glyph unicode="L" horiz-adv-x="1140" d="M197 0v1434h118v-1328h772v-106h-890z" />
<glyph unicode="M" horiz-adv-x="1634" d="M197 0v1434h114l508 -777l506 777h113v-1434h-117v1229l-465 -719h-80l-465 715v-1225h-114z" />
<glyph unicode="N" horiz-adv-x="1421" d="M197 0v1434h110l797 -1213v1213h121v-1434h-111l-799 1210v-1210h-118z" />
<glyph unicode="O" horiz-adv-x="1388" d="M156 481v471q0 241 144.5 376.5t393.5 135.5q248 0 393.5 -135.5t145.5 -376.5v-471q0 -241 -145.5 -376.5t-393.5 -135.5q-249 0 -393.5 135.5t-144.5 376.5zM274 475q0 -182 112 -288.5t308 -106.5t308 106.5t112 288.5v483q0 182 -112 289t-308 107t-308 -107 t-112 -289v-483z" />
<glyph unicode="P" horiz-adv-x="1269" d="M197 0v1434h581q181 0 284 -114.5t103 -309.5t-102.5 -308.5t-284.5 -113.5h-463v-588h-118zM315 694h445q130 0 207 84t77 232q0 149 -77 233t-207 84h-445v-633z" />
<glyph unicode="Q" horiz-adv-x="1394" d="M156 481v471q0 241 144.5 376.5t393.5 135.5q248 0 393.5 -135.5t145.5 -376.5v-471q0 -271 -184 -409l190 -275v-41h-115l-184 264q-105 -51 -246 -51q-249 0 -393.5 135.5t-144.5 376.5zM274 473q0 -184 111.5 -288.5t308.5 -104.5t308.5 104.5t111.5 288.5v488 q0 184 -111.5 288.5t-308.5 104.5t-308.5 -104.5t-111.5 -288.5v-488z" />
<glyph unicode="R" horiz-adv-x="1316" d="M197 0v1434h587q192 0 297 -113t105 -311q0 -336 -297 -414l323 -555v-41h-114l-342 586h-441v-586h-118zM315 692h451q142 0 219.5 82.5t77.5 235.5q0 152 -78 234.5t-219 82.5h-451v-635z" />
<glyph unicode="S" horiz-adv-x="1280" d="M104 465h119q0 -102 39 -179.5t103.5 -120.5t138 -64t153.5 -21q175 0 269 75.5t94 194.5q0 104 -76 168.5t-250 130.5l-159 60q-83 31 -138.5 56.5t-105.5 58.5t-77.5 69.5t-43.5 84.5t-16 109q0 169 127 273t348 104q87 0 162.5 -17t140 -54.5t110 -93t71.5 -136.5 t26 -182h-121q0 99 -32 173t-88 116.5t-124 63t-147 20.5q-163 0 -259 -72t-96 -186q0 -54 16 -94t54.5 -72.5t89.5 -57.5t133 -55l154 -57q83 -31 139 -55.5t115 -60.5t93.5 -75t56.5 -93t22 -120q0 -171 -127.5 -279t-366.5 -108q-108 0 -203.5 29.5t-174 87.5t-124 155.5 t-45.5 223.5z" />
<glyph unicode="T" horiz-adv-x="1128" d="M53 1327v107h1024v-107h-452v-1327h-119v1327h-453z" />
<glyph unicode="U" horiz-adv-x="1378" d="M176 467v967h119v-967q0 -183 106.5 -285t288.5 -102q181 0 287 101t106 286v967h121v-967q0 -119 -40 -214.5t-109.5 -157t-162.5 -94t-202 -32.5q-147 0 -261.5 54.5t-183.5 169t-69 274.5z" />
<glyph unicode="V" horiz-adv-x="1339" d="M53 1393v41h113l506 -1276l502 1276h112v-41l-555 -1393h-121z" />
<glyph unicode="W" horiz-adv-x="1646" d="M94 1393v41h117l244 -1244l331 805h78l336 -807l242 1246h110v-41l-278 -1393h-115l-336 815l-336 -815h-114z" />
<glyph unicode="X" horiz-adv-x="1253" d="M74 0v41l479 688l-465 664v41h119l420 -611l426 611h110v-41l-465 -664l482 -688v-41h-119l-438 635l-439 -635h-110z" />
<glyph unicode="Y" horiz-adv-x="1236" d="M33 1393v41h117l468 -752l478 752h108v-41l-526 -820v-573h-119v569z" />
<glyph unicode="Z" horiz-adv-x="1167" d="M94 0v104l824 1223h-797v107h934v-105l-824 -1223h844v-106h-981z" />
<glyph unicode="[" horiz-adv-x="641" d="M197 -328v1868h407v-102h-297v-1663h297v-103h-407z" />
<glyph unicode="\" horiz-adv-x="933" d="M94 1499v41h101l645 -1704v-41h-101z" />
<glyph unicode="]" horiz-adv-x="641" d="M37 -225h297v1638h-297v103h407v-1844h-407v103z" />
<glyph unicode="^" horiz-adv-x="1005" d="M111 793v41l342 610h98l342 -610v-41h-94l-297 530l-295 -530h-96z" />
<glyph unicode="_" horiz-adv-x="1075" d="M-2 -125h1079v-94h-1079v94z" />
<glyph unicode="`" horiz-adv-x="585" d="M127 1454v41h115l219 -287h-113z" />
<glyph unicode="a" d="M104 274q0 159 111 244.5t322 85.5h290v121q0 109 -71 174.5t-209 65.5q-133 0 -206 -64.5t-73 -167.5h-108q0 149 99.5 241.5t287.5 92.5q191 0 291 -92.5t100 -243.5v-731h-72l-37 145q-62 -65 -164 -117.5t-221 -52.5q-146 0 -243 76.5t-97 222.5zM215 287 q0 -104 70.5 -156.5t179.5 -52.5q187 0 362 170v258h-290q-162 0 -242 -56.5t-80 -162.5z" />
<glyph unicode="b" horiz-adv-x="1165" d="M176 0v1444h111v-553q64 75 157.5 125.5t206.5 50.5q170 0 269.5 -103.5t99.5 -281.5v-322q0 -178 -99 -281.5t-266 -103.5q-211 0 -374 183l-35 -158h-70zM287 268q173 -190 352 -190q126 0 198 80.5t72 210.5v305q0 130 -71.5 210.5t-196.5 80.5q-180 0 -354 -191v-506 z" />
<glyph unicode="c" horiz-adv-x="1079" d="M129 362v318q0 173 110.5 280t307.5 107q190 0 302 -100.5t112 -264.5v-10h-111v13q0 116 -80.5 188t-222.5 72q-147 0 -227 -78t-80 -205v-322q0 -128 80 -205t227 -77q143 0 223 73.5t80 190.5v12h111v-10q0 -165 -112 -267t-302 -102q-197 0 -307.5 106.5 t-110.5 280.5z" />
<glyph unicode="d" horiz-adv-x="1165" d="M145 360v322q0 178 99.5 281.5t269.5 103.5q113 0 207 -51t158 -125v553h110v-1444h-69l-35 158q-70 -78 -165.5 -130.5t-209.5 -52.5q-167 0 -266 103.5t-99 281.5zM256 369q0 -130 72 -210.5t198 -80.5q180 0 353 190v506q-174 191 -355 191q-125 0 -196.5 -80.5 t-71.5 -210.5v-305z" />
<glyph unicode="e" horiz-adv-x="1093" d="M129 360v320q0 173 112 280t310 107q196 0 306 -105.5t110 -279.5v-199h-727v-121q0 -128 81 -206t230 -78q134 0 208.5 62.5t88.5 168.5h110q-12 -154 -117.5 -244t-289.5 -90q-199 0 -310.5 105.5t-111.5 279.5zM240 582h616v100q0 127 -79.5 205t-229.5 78 q-146 0 -226.5 -78t-80.5 -205v-100z" />
<glyph unicode="f" horiz-adv-x="665" d="M43 944v98h178v66q0 158 80 249t242 91q33 0 69 -4v-101l-20 1q-21 2 -37 2q-110 0 -166.5 -53.5t-56.5 -184.5v-66h274v-98h-274v-944h-111v944h-178z" />
<glyph unicode="g" horiz-adv-x="1165" d="M145 459v223q0 178 98.5 281.5t266.5 103.5q211 0 373 -182l35 157h71v-989q0 -200 -109 -302.5t-300 -102.5q-183 0 -295.5 90t-116.5 246h111q5 -103 85 -168.5t216 -65.5q145 0 222 76t77 223v201q-66 -75 -159 -125.5t-206 -50.5q-171 0 -270 103t-99 282zM256 467 q0 -130 72 -210.5t198 -80.5q179 0 353 191v407q-174 191 -355 191q-125 0 -196.5 -80.5t-71.5 -210.5v-207z" />
<glyph unicode="h" horiz-adv-x="1175" d="M176 0v1444h111v-553q68 76 162.5 126t205.5 50q157 0 257 -101.5t100 -287.5v-678h-111v664q0 150 -72.5 225.5t-191.5 75.5q-98 0 -190.5 -55t-159.5 -136v-774h-111z" />
<glyph unicode="i" horiz-adv-x="462" d="M176 0v1042h111v-1042h-111zM176 1219v225h111v-225h-111z" />
<glyph unicode="j" horiz-adv-x="462" d="M-59 -250q27 -2 53 -2q95 0 138.5 58t43.5 180v1056h111v-1056q0 -338 -283 -338q-27 0 -63 4v98zM176 1219v225h111v-225h-111z" />
<glyph unicode="k" horiz-adv-x="1050" d="M176 0v1444h111v-862h213l342 460h92v-53l-334 -450l358 -486v-53h-100l-354 483h-217v-483h-111z" />
<glyph unicode="l" horiz-adv-x="462" d="M176 0v1444h111v-1444h-111z" />
<glyph unicode="m" horiz-adv-x="1810" d="M176 0v1042h70l35 -157q159 182 352 182q106 0 185.5 -53t115.5 -154q74 90 170.5 148.5t208.5 58.5q157 0 245.5 -97.5t88.5 -281.5v-688h-111v674q0 144 -68.5 217.5t-177.5 73.5q-170 0 -329 -197q6 -41 6 -125v-643h-111v674q0 144 -68.5 217.5t-177.5 73.5 q-91 0 -175 -55t-148 -136v-774h-111z" />
<glyph unicode="n" horiz-adv-x="1175" d="M176 0v1042h70l35 -157q69 79 164 130.5t208 51.5q160 0 259.5 -101.5t99.5 -287.5v-678h-111v664q0 150 -72.5 225.5t-191.5 75.5q-99 0 -190.5 -55t-159.5 -136v-774h-111z" />
<glyph unicode="o" d="M129 362v318q0 170 109.5 278.5t312.5 108.5q204 0 313 -108t109 -279v-318q0 -172 -108.5 -279.5t-313.5 -107.5q-203 0 -312.5 107.5t-109.5 279.5zM240 367q0 -129 81.5 -209t229.5 -80q152 0 231.5 80.5t79.5 208.5v309q0 128 -79.5 208.5t-231.5 80.5 q-148 0 -229.5 -80.5t-81.5 -208.5v-309z" />
<glyph unicode="p" horiz-adv-x="1165" d="M176 -328v1370h70l35 -157q70 78 165 130t209 52q167 0 266 -103.5t99 -281.5v-322q0 -178 -99.5 -281.5t-269.5 -103.5q-113 0 -206.5 51t-157.5 126v-480h-111zM287 268q173 -190 352 -190q126 0 198 80.5t72 210.5v305q0 130 -71.5 210.5t-196.5 80.5 q-180 0 -354 -191v-506z" />
<glyph unicode="q" horiz-adv-x="1165" d="M145 360v322q0 178 99 281.5t266 103.5q114 0 210 -52t165 -130l35 157h69v-1370h-110v480q-64 -75 -158 -126t-207 -51q-170 0 -269.5 103.5t-99.5 281.5zM256 369q0 -130 72 -210.5t198 -80.5q180 0 353 190v506q-174 191 -355 191q-125 0 -196.5 -80.5t-71.5 -210.5 v-305z" />
<glyph unicode="r" horiz-adv-x="749" d="M176 0v1042h62l36 -157q70 77 173 129.5t215 52.5h14v-113h-14q-113 0 -210 -45t-165 -129v-780h-111z" />
<glyph unicode="s" d="M115 348h110q0 -57 19.5 -103t52 -76.5t77 -51.5t93.5 -30t102 -9q134 0 210.5 54.5t76.5 141.5q0 71 -47 109.5t-158 67.5l-235 61q-131 35 -193.5 93.5t-62.5 172.5q0 128 102 208.5t283 80.5q185 0 296 -93t111 -269h-110q0 127 -84 193.5t-221 66.5 q-130 0 -198.5 -51.5t-68.5 -131.5q0 -68 41.5 -106t143.5 -64l233 -59q142 -36 210.5 -96.5t68.5 -175.5q0 -137 -108 -221.5t-298 -84.5q-93 0 -172 22.5t-141 67t-97.5 117t-35.5 166.5z" />
<glyph unicode="t" horiz-adv-x="731" d="M53 944v98h178v218h111v-218h285v-98h-285v-633q0 -104 51.5 -156.5t145.5 -52.5h88v-102h-88q-85 0 -147.5 26t-96 71.5t-49 97.5t-15.5 112v637h-178z" />
<glyph unicode="u" horiz-adv-x="1175" d="M164 365v677h110v-663q0 -150 73 -225.5t192 -75.5q100 0 191 54.5t159 135.5v774h110v-1042h-69l-35 158q-69 -80 -164.5 -131.5t-208.5 -51.5q-159 0 -258.5 102t-99.5 288z" />
<glyph unicode="v" horiz-adv-x="1026" d="M53 989v53h105l358 -895l354 895h103v-53l-406 -989h-108z" />
<glyph unicode="w" horiz-adv-x="1441" d="M104 989v53h103l221 -895l250 691h88l250 -691l221 895h100v-53l-252 -989h-114l-250 670l-250 -670h-115z" />
<glyph unicode="x" horiz-adv-x="1048" d="M94 0v53l361 467l-359 469v53h103l325 -436l328 436h96v-53l-354 -465l362 -471v-53h-100l-334 444l-332 -444h-96z" />
<glyph unicode="y" horiz-adv-x="1021" d="M53 989v53h105l358 -895l354 895h103v-53l-541 -1317h-94v43l123 285z" />
<glyph unicode="z" horiz-adv-x="1050" d="M115 0v98l661 846h-633v98h766v-98l-661 -846h674v-98h-807z" />
<glyph unicode="{" horiz-adv-x="649" d="M74 567v103h55q67 0 97 40.5t30 120.5v361q0 168 95 258t261 90v-102q-114 0 -179.5 -64t-65.5 -178v-391q0 -76 -30.5 -123.5t-80.5 -63.5q50 -16 80.5 -63t30.5 -123v-416q0 -114 65.5 -177.5t179.5 -63.5v-103q-166 0 -261 90t-95 258v386q0 84 -31 122.5t-96 38.5 h-55z" />
<glyph unicode="|" horiz-adv-x="501" d="M197 -205v1745h110v-1745h-110z" />
<glyph unicode="}" horiz-adv-x="649" d="M37 -225q115 0 180.5 64t65.5 177v416q0 76 30 123t80 63q-50 16 -80 63.5t-30 123.5v391q0 114 -66 178t-180 64v102q166 0 261 -90t95 -258v-361q0 -80 30 -120.5t97 -40.5h55v-103h-55q-65 0 -96 -38.5t-31 -122.5v-386q0 -168 -95 -258t-261 -90v103z" />
<glyph unicode="~" horiz-adv-x="960" d="M102 578q70 103 118.5 145.5t107.5 42.5q69 0 141 -55l49 -37q61 -47 115 -47q33 0 63 27.5t92 109.5l70 -53q-66 -102 -116 -145.5t-111 -43.5q-67 0 -137 51l-52 39q-36 28 -58 39t-48 11q-40 0 -69.5 -26.5t-96.5 -111.5z" />
<glyph unicode="&#xa1;" horiz-adv-x="507" d="M197 791v251h114v-251h-114zM199 -328v924h110v-924h-110z" />
<glyph unicode="&#xa2;" horiz-adv-x="1079" d="M129 549v317q0 162 98 267t275 118v183h84v-183q174 -10 274.5 -108.5t100.5 -253.5v-10h-111v12q0 107 -70 177.5t-194 80.5v-883q125 10 194.5 82t69.5 180v13h111v-11q0 -157 -101 -257.5t-274 -110.5v-162h-84v164q-177 12 -275 116.5t-98 268.5zM240 547 q0 -118 68 -193.5t194 -87.5v883q-126 -12 -194 -88t-68 -193v-321z" />
<glyph unicode="&#xa3;" horiz-adv-x="1177" d="M94 0v102h158v584h-158v102h158v289q0 174 110.5 280.5t307.5 106.5q192 0 302.5 -101t110.5 -271v-60h-110v60q0 123 -79.5 196.5t-223.5 73.5q-147 0 -227.5 -77.5t-80.5 -205.5v-291h381v-102h-381v-584h721v-102h-989z" />
<glyph unicode="&#xa5;" horiz-adv-x="1206" d="M33 1393v41h110l461 -748l461 748h109v-41l-455 -721h348v-103h-408v-227h408v-102h-408v-240h-112v240h-408v102h408v227h-408v103h346z" />
<glyph unicode="&#xa7;" horiz-adv-x="1155" d="M115 57h106q0 -81 31 -141.5t85.5 -96t120.5 -52.5t144 -17q85 0 151 23t109 77t43 134q0 31 -13 58t-30 45t-49.5 36.5t-55.5 28.5t-63 26l-166 62q-100 37 -163 67t-117 71.5t-78.5 93.5t-24.5 120q0 82 36.5 162.5t94.5 146.5q-59 39 -89.5 91.5t-30.5 133.5 q0 139 112 230.5t305 91.5q95 0 175 -23.5t142 -70t97 -124t35 -179.5h-109q0 77 -29 135.5t-78.5 92.5t-109 50.5t-127.5 16.5q-77 0 -143 -21.5t-112 -72.5t-46 -124q0 -36 13 -66t30 -49t51 -38.5t57 -29.5t66 -27l164 -64q67 -26 112.5 -46t93 -45.5t77 -50.5t54 -56 t35.5 -67.5t11 -80.5q0 -141 -147 -305q69 -46 103 -97.5t34 -134.5q0 -139 -115.5 -231t-314.5 -92q-79 0 -149.5 15.5t-130.5 48.5t-104 80.5t-68.5 115t-24.5 149.5zM256 604q0 -41 17.5 -76t40.5 -58t66 -47.5t72.5 -37t82.5 -33.5l268 -106q121 134 121 250 q0 40 -18 74.5t-42.5 58t-70 49t-78.5 40t-90 36.5l-267 102q-102 -126 -102 -252z" />
<glyph unicode="&#xa8;" horiz-adv-x="679" d="M100 1219v225h111v-225h-111zM471 1219v225h111v-225h-111z" />
<glyph unicode="&#xa9;" horiz-adv-x="1783" d="M156 717q0 208 97 379.5t266 269.5t374 98t374 -98t266 -269.5t97 -379.5t-97 -379.5t-266 -270t-374 -98.5t-374 98.5t-266 270t-97 379.5zM238 717q0 -186 86 -339t236 -241t333 -88q135 0 256.5 52t208 140.5t137.5 212.5t51 263t-51 263t-137.5 212.5t-208 140 t-256.5 51.5q-183 0 -333 -87.5t-236 -240.5t-86 -339zM537 621v194q0 153 91.5 243.5t260.5 90.5q156 0 250 -82.5t94 -226.5v-9h-90v9q0 103 -71 164t-185 61q-125 0 -193.5 -66.5t-68.5 -177.5v-207q0 -111 68.5 -177t193.5 -66q114 0 185 61.5t71 165.5v6h90v-6 q0 -145 -94 -228t-250 -83q-169 0 -260.5 90.5t-91.5 243.5z" />
<glyph unicode="&#xaa;" horiz-adv-x="884" d="M115 924q0 106 80.5 161.5t238.5 55.5h184v69q0 63 -45 100.5t-131 37.5q-84 0 -129 -37.5t-45 -100.5h-114q0 104 73.5 169t212.5 65q142 0 215.5 -62t73.5 -163v-486h-67l-33 96q-49 -42 -120.5 -74t-152.5 -32q-106 0 -173.5 50.5t-67.5 150.5zM231 934 q0 -111 156 -111q113 0 231 97v137h-182q-100 0 -152.5 -32t-52.5 -91z" />
<glyph unicode="&#xab;" horiz-adv-x="1085" d="M94 551l348 422h99v-45l-314 -377l314 -377v-45h-99zM508 551l348 422h98v-45l-313 -377l313 -377v-45h-98z" />
<glyph unicode="&#xac;" horiz-adv-x="1073" d="M111 817v94h852v-495h-101v401h-751z" />
<glyph unicode="&#xae;" horiz-adv-x="825" d="M70 1112q0 150 99.5 251t242.5 101t242.5 -101t99.5 -251t-99.5 -251t-242.5 -101t-242.5 101t-99.5 251zM119 1112q0 -130 85 -218.5t208 -88.5q124 0 209.5 88.5t85.5 218.5t-85.5 218.5t-209.5 88.5q-123 0 -208 -88.5t-85 -218.5zM272 932v362h168q59 0 91 -29 t32 -81q0 -46 -24.5 -75.5t-65.5 -35.5l90 -119v-22h-45l-102 137h-94v-137h-50zM322 1112h116q34 0 56 19t22 49q0 31 -21.5 49t-56.5 18h-116v-135z" />
<glyph unicode="&#xaf;" horiz-adv-x="905" d="M180 1284v94h545v-94h-545z" />
<glyph unicode="&#xb0;" horiz-adv-x="786" d="M94 1030v144q0 134 78 212t221 78q144 0 221.5 -78t77.5 -212v-144q0 -135 -77.5 -213t-221.5 -78q-143 0 -221 78.5t-78 212.5zM193 1022q0 -86 52.5 -140.5t147.5 -54.5q97 0 149 55.5t52 139.5v160q0 86 -52 140t-149 54q-95 0 -147.5 -54t-52.5 -140v-160z" />
<glyph unicode="&#xb1;" horiz-adv-x="1075" d="M111 43v94h854v-94h-854zM111 670v94h376v362h101v-362h377v-94h-377v-373h-101v373h-376z" />
<glyph unicode="&#xb4;" horiz-adv-x="585" d="M127 1208l219 287h115v-41l-221 -246h-113z" />
<glyph unicode="&#xb5;" horiz-adv-x="1187" d="M176 -328v1370h111v-663q0 -145 71 -223t195 -78q98 0 190 55t158 135v774h111v-1042h-68l-37 158q-164 -183 -364 -183q-88 0 -157 41t-99 109v-453h-111z" />
<glyph unicode="&#xb6;" horiz-adv-x="1183" d="M94 1085v17q0 160 95.5 246t263.5 86h534v-1612h-104v1509h-326v-1509h-104v932q-168 0 -263.5 86.5t-95.5 244.5z" />
<glyph unicode="&#xb7;" horiz-adv-x="442" d="M162 520v264h119v-264h-119z" />
<glyph unicode="&#xb8;" horiz-adv-x="587" d="M141 -287l215 287h113l-213 -328h-115v41z" />
<glyph unicode="&#xba;" horiz-adv-x="825" d="M94 1032v103q0 143 83 226t235 83q153 0 236 -83t83 -226v-103q0 -143 -83 -226t-236 -83q-152 0 -235 83t-83 226zM205 1024q0 -91 54.5 -147t152.5 -56q100 0 154.5 57.5t54.5 145.5v117q0 91 -54 148t-155 57q-99 0 -153 -56.5t-54 -148.5v-117z" />
<glyph unicode="&#xbb;" horiz-adv-x="1085" d="M131 129v45l313 377l-313 377v45h98l349 -422l-349 -422h-98zM545 129v45l313 377l-313 377v45h98l348 -422l-348 -422h-98z" />
<glyph unicode="&#xbf;" horiz-adv-x="1038" d="M84 8q0 44 9.5 84.5t24 71t38.5 61t44.5 51t52 44t51 36t50.5 31.5l113 68v141h111v-184l-156 -95q-56 -34 -89 -58t-69 -61.5t-52.5 -84t-16.5 -105.5q0 -107 81 -182.5t232 -75.5q155 0 248.5 90.5t93.5 255.5h106q0 -213 -125 -330.5t-323 -117.5q-203 0 -313.5 104 t-110.5 256zM461 791v251h119v-251h-119z" />
<glyph unicode="&#xc0;" horiz-adv-x="1339" d="M53 0v41l555 1393h121l557 -1393v-41h-117l-159 406h-686l-162 -406h-109zM360 508h613l-305 768zM377 1825v45h123l235 -309h-121z" />
<glyph unicode="&#xc1;" horiz-adv-x="1339" d="M53 0v41l555 1393h121l557 -1393v-41h-117l-159 406h-686l-162 -406h-109zM360 508h613l-305 768zM623 1561l235 309h123v-45l-238 -264h-120z" />
<glyph unicode="&#xc2;" horiz-adv-x="1339" d="M53 0v41l555 1393h121l557 -1393v-41h-117l-159 406h-686l-162 -406h-109zM360 508h613l-305 768zM373 1561v45l237 264h115l238 -264v-45h-115l-182 219l-181 -219h-112z" />
<glyph unicode="&#xc3;" horiz-adv-x="1339" d="M53 0v41l555 1393h121l557 -1393v-41h-117l-159 406h-686l-162 -406h-109zM299 1630q68 102 115.5 143.5t105.5 41.5q62 0 137 -54l48 -32q29 -19 43 -27t34.5 -15.5t38.5 -7.5q31 0 60 26.5t90 106.5l69 -51q-64 -101 -113 -143.5t-110 -42.5q-35 0 -64.5 13t-68.5 40 l-45 29q-30 22 -41.5 29.5t-32 16.5t-37.5 9q-40 0 -68.5 -25.5t-92.5 -109.5zM360 508h613l-305 768z" />
<glyph unicode="&#xc4;" horiz-adv-x="1339" d="M53 0v41l555 1393h121l557 -1393v-41h-117l-159 406h-686l-162 -406h-109zM360 508h613l-305 768zM412 1573v242h116v-242h-116zM809 1573v242h117v-242h-117z" />
<glyph unicode="&#xc5;" horiz-adv-x="1339" d="M53 0v41l555 1393h121l557 -1393v-41h-117l-159 406h-686l-162 -406h-109zM360 508h613l-305 768zM461 1733q0 88 60.5 149.5t146.5 61.5q88 0 149.5 -61.5t61.5 -149.5q0 -86 -61.5 -146.5t-149.5 -60.5q-86 0 -146.5 60.5t-60.5 146.5zM537 1733q0 -54 39 -92.5 t92 -38.5q56 0 94.5 38t38.5 93q0 56 -38 94.5t-95 38.5q-53 0 -92 -39t-39 -94z" />
<glyph unicode="&#xc6;" horiz-adv-x="1953" d="M33 0v41l874 1393h930v-107h-752v-551h656v-106h-656v-564h754v-106h-872v406h-572l-256 -406h-106zM459 508h508v805z" />
<glyph unicode="&#xc7;" horiz-adv-x="1347" d="M156 485v463q0 244 143 380t397 136q105 0 196.5 -30t163.5 -88t114 -151t42 -210v-20h-118v20q0 90 -34 162t-90.5 116t-127 67.5t-146.5 23.5q-200 0 -311 -105t-111 -293v-479q0 -188 110.5 -292.5t311.5 -104.5q76 0 146.5 23.5t127 67.5t90.5 116t34 162v20h118v-20 q0 -112 -38 -202t-104 -147.5t-151 -90.5t-184 -38l-192 -299h-115v41l195 260q-222 20 -344.5 153.5t-122.5 358.5z" />
<glyph unicode="&#xc8;" horiz-adv-x="1183" d="M197 0v1434h870v-107h-752v-551h656v-106h-656v-564h754v-106h-872zM412 1825v45h123l235 -309h-121z" />
<glyph unicode="&#xc9;" horiz-adv-x="1183" d="M197 0v1434h870v-107h-752v-551h656v-106h-656v-564h754v-106h-872zM520 1561l236 309h123v-45l-238 -264h-121z" />
<glyph unicode="&#xca;" horiz-adv-x="1183" d="M197 0v1434h870v-107h-752v-551h656v-106h-656v-564h754v-106h-872zM344 1561v45l238 264h114l238 -264v-45h-115l-182 219l-180 -219h-113z" />
<glyph unicode="&#xcb;" horiz-adv-x="1183" d="M197 0v1434h870v-107h-752v-551h656v-106h-656v-564h754v-106h-872zM371 1573v242h116v-242h-116zM766 1573v242h119v-242h-119z" />
<glyph unicode="&#xcc;" horiz-adv-x="512" d="M-41 1825v45h123l235 -309h-120zM197 0v1434h118v-1434h-118z" />
<glyph unicode="&#xcd;" horiz-adv-x="512" d="M197 0v1434h118v-1434h-118zM199 1561l235 309h123v-45l-238 -264h-120z" />
<glyph unicode="&#xce;" horiz-adv-x="512" d="M-39 1561v45l238 264h114l238 -264v-45h-115l-182 219l-180 -219h-113zM197 0v1434h118v-1434h-118z" />
<glyph unicode="&#xcf;" horiz-adv-x="512" d="M-2 1573v244h119v-244h-119zM197 0v1434h118v-1434h-118zM395 1573v244h121v-244h-121z" />
<glyph unicode="&#xd0;" horiz-adv-x="1425" d="M41 668v100h199v666h491q249 0 394 -132.5t145 -369.5v-430q0 -237 -145 -369.5t-394 -132.5h-491v668h-199zM360 106h371q195 0 307.5 106.5t112.5 287.5v434q0 181 -112 287t-308 106h-371v-559h412v-100h-412v-562z" />
<glyph unicode="&#xd1;" horiz-adv-x="1421" d="M197 0v1434h110l797 -1213v1213h121v-1434h-111l-799 1210v-1210h-118zM346 1630q68 102 115.5 143.5t105.5 41.5q63 0 138 -54l47 -32q29 -19 43 -27t34.5 -15.5t38.5 -7.5q31 0 60 26.5t90 106.5l69 -51q-64 -101 -113 -143.5t-110 -42.5q-35 0 -64.5 13t-68.5 40 l-45 29q-30 22 -41.5 29.5t-32 16.5t-37.5 9q-40 0 -68.5 -25.5t-92.5 -109.5z" />
<glyph unicode="&#xd2;" horiz-adv-x="1388" d="M156 481v471q0 241 144.5 376.5t393.5 135.5q248 0 393.5 -135.5t145.5 -376.5v-471q0 -241 -145.5 -376.5t-393.5 -135.5q-249 0 -393.5 135.5t-144.5 376.5zM274 475q0 -182 112 -288.5t308 -106.5t308 106.5t112 288.5v483q0 182 -112 289t-308 107t-308 -107 t-112 -289v-483zM444 1825v45h123l236 -309h-121z" />
<glyph unicode="&#xd3;" horiz-adv-x="1388" d="M156 481v471q0 241 144.5 376.5t393.5 135.5q248 0 393.5 -135.5t145.5 -376.5v-471q0 -241 -145.5 -376.5t-393.5 -135.5q-249 0 -393.5 135.5t-144.5 376.5zM274 475q0 -182 112 -288.5t308 -106.5t308 106.5t112 288.5v483q0 182 -112 289t-308 107t-308 -107 t-112 -289v-483zM635 1561l235 309h123v-45l-237 -264h-121z" />
<glyph unicode="&#xd4;" horiz-adv-x="1388" d="M156 481v471q0 241 144.5 376.5t393.5 135.5q248 0 393.5 -135.5t145.5 -376.5v-471q0 -241 -145.5 -376.5t-393.5 -135.5q-249 0 -393.5 135.5t-144.5 376.5zM274 475q0 -182 112 -288.5t308 -106.5t308 106.5t112 288.5v483q0 182 -112 289t-308 107t-308 -107 t-112 -289v-483zM399 1561v45l238 264h115l237 -264v-45h-115l-182 219l-180 -219h-113z" />
<glyph unicode="&#xd5;" horiz-adv-x="1388" d="M156 481v471q0 241 144.5 376.5t393.5 135.5q248 0 393.5 -135.5t145.5 -376.5v-471q0 -241 -145.5 -376.5t-393.5 -135.5q-249 0 -393.5 135.5t-144.5 376.5zM274 475q0 -182 112 -288.5t308 -106.5t308 106.5t112 288.5v483q0 182 -112 289t-308 107t-308 -107 t-112 -289v-483zM332 1630q68 102 115.5 143.5t105.5 41.5q62 0 137 -54l47 -32q28 -18 43 -26.5t35.5 -16t38.5 -7.5q31 0 60 26.5t90 106.5l69 -51q-64 -101 -113 -143.5t-110 -42.5q-35 0 -64.5 13t-68.5 40l-45 29q-30 22 -41.5 29.5t-32 16.5t-37.5 9q-40 0 -69 -25.5 t-93 -109.5z" />
<glyph unicode="&#xd6;" horiz-adv-x="1388" d="M156 481v471q0 241 144.5 376.5t393.5 135.5q248 0 393.5 -135.5t145.5 -376.5v-471q0 -241 -145.5 -376.5t-393.5 -135.5q-249 0 -393.5 135.5t-144.5 376.5zM274 475q0 -182 112 -288.5t308 -106.5t308 106.5t112 288.5v483q0 182 -112 289t-308 107t-308 -107 t-112 -289v-483zM440 1573v242h117v-242h-117zM838 1573v242h116v-242h-116z" />
<glyph unicode="&#xd8;" horiz-adv-x="1388" d="M156 481v471q0 241 144.5 376.5t393.5 135.5q123 0 221 -34l82 208h90v-41l-81 -208q109 -64 168 -175.5t59 -261.5v-471q0 -241 -145.5 -376.5t-393.5 -135.5q-127 0 -227 35l-82 -209h-90v41l82 211q-221 132 -221 434zM274 475q0 -208 146 -317l454 1167 q-85 29 -180 29q-196 0 -308 -107t-112 -289v-483zM508 111q82 -31 186 -31q196 0 308 106.5t112 288.5v483q0 215 -151 320z" />
<glyph unicode="&#xd9;" horiz-adv-x="1378" d="M176 467v967h119v-967q0 -183 106.5 -285t288.5 -102q181 0 287 101t106 286v967h121v-967q0 -119 -40 -214.5t-109.5 -157t-162.5 -94t-202 -32.5q-147 0 -261.5 54.5t-183.5 169t-69 274.5zM479 1825v45h123l236 -309h-121z" />
<glyph unicode="&#xda;" horiz-adv-x="1378" d="M176 467v967h119v-967q0 -183 106.5 -285t288.5 -102q181 0 287 101t106 286v967h121v-967q0 -119 -40 -214.5t-109.5 -157t-162.5 -94t-202 -32.5q-147 0 -261.5 54.5t-183.5 169t-69 274.5zM618 1561l236 309h123v-45l-238 -264h-121z" />
<glyph unicode="&#xdb;" horiz-adv-x="1378" d="M176 467v967h119v-967q0 -183 106.5 -285t288.5 -102q181 0 287 101t106 286v967h121v-967q0 -119 -40 -214.5t-109.5 -157t-162.5 -94t-202 -32.5q-147 0 -261.5 54.5t-183.5 169t-69 274.5zM395 1561v45l238 264h115l237 -264v-45h-115l-182 219l-180 -219h-113z" />
<glyph unicode="&#xdc;" horiz-adv-x="1378" d="M176 467v967h119v-967q0 -183 106.5 -285t288.5 -102q181 0 287 101t106 286v967h121v-967q0 -119 -40 -214.5t-109.5 -157t-162.5 -94t-202 -32.5q-147 0 -261.5 54.5t-183.5 169t-69 274.5zM436 1573v242h117v-242h-117zM834 1573v242h116v-242h-116z" />
<glyph unicode="&#xdd;" horiz-adv-x="1236" d="M33 1393v41h117l468 -752l478 752h108v-41l-526 -820v-573h-119v569zM541 1561l235 309h123v-45l-237 -264h-121z" />
<glyph unicode="&#xde;" horiz-adv-x="1269" d="M197 0v1434h118v-289h463q181 0 284 -114.5t103 -309.5t-102.5 -308.5t-284.5 -113.5h-463v-299h-118zM315 406h445q130 0 207 83.5t77 231.5q0 149 -77 233t-207 84h-445v-632z" />
<glyph unicode="&#xdf;" horiz-adv-x="1196" d="M176 0v958q0 233 114 361.5t320 128.5q188 0 297 -102.5t109 -255.5q0 -119 -55 -195.5t-154 -106.5q115 -28 195.5 -127.5t80.5 -242.5q0 -202 -118.5 -310t-331.5 -108q-72 0 -144 12v97q70 -11 136 -11q170 0 259 85t89 239q0 143 -92.5 229t-249.5 86h-119v97h111 q138 0 207 66.5t69 184.5q0 113 -76 187t-213 74q-155 0 -239 -98t-84 -279v-969h-111z" />
<glyph unicode="&#xe0;" d="M104 274q0 159 111 244.5t322 85.5h290v121q0 109 -71 174.5t-209 65.5q-133 0 -206 -64.5t-73 -167.5h-108q0 149 99.5 241.5t287.5 92.5q191 0 291 -92.5t100 -243.5v-731h-72l-37 145q-62 -65 -164 -117.5t-221 -52.5q-146 0 -243 76.5t-97 222.5zM215 287 q0 -104 70.5 -156.5t179.5 -52.5q187 0 362 170v258h-290q-162 0 -242 -56.5t-80 -162.5zM371 1454v41h114l220 -287h-113z" />
<glyph unicode="&#xe1;" d="M104 274q0 159 111 244.5t322 85.5h290v121q0 109 -71 174.5t-209 65.5q-133 0 -206 -64.5t-73 -167.5h-108q0 149 99.5 241.5t287.5 92.5q191 0 291 -92.5t100 -243.5v-731h-72l-37 145q-62 -65 -164 -117.5t-221 -52.5q-146 0 -243 76.5t-97 222.5zM215 287 q0 -104 70.5 -156.5t179.5 -52.5q187 0 362 170v258h-290q-162 0 -242 -56.5t-80 -162.5zM477 1208l219 287h115v-41l-221 -246h-113z" />
<glyph unicode="&#xe2;" d="M104 274q0 159 111 244.5t322 85.5h290v121q0 109 -71 174.5t-209 65.5q-133 0 -206 -64.5t-73 -167.5h-108q0 149 99.5 241.5t287.5 92.5q191 0 291 -92.5t100 -243.5v-731h-72l-37 145q-62 -65 -164 -117.5t-221 -52.5q-146 0 -243 76.5t-97 222.5zM215 287 q0 -104 70.5 -156.5t179.5 -52.5q187 0 362 170v258h-290q-162 0 -242 -56.5t-80 -162.5zM291 1208v41l221 246h109l221 -246v-41h-107l-170 203l-168 -203h-106z" />
<glyph unicode="&#xe3;" d="M104 274q0 159 111 244.5t322 85.5h290v121q0 109 -71 174.5t-209 65.5q-133 0 -206 -64.5t-73 -167.5h-108q0 149 99.5 241.5t287.5 92.5q191 0 291 -92.5t100 -243.5v-731h-72l-37 145q-62 -65 -164 -117.5t-221 -52.5q-146 0 -243 76.5t-97 222.5zM215 287 q0 -104 70.5 -156.5t179.5 -52.5q187 0 362 170v258h-290q-162 0 -242 -56.5t-80 -162.5zM215 1298q67 99 113 140t102 41q60 0 135 -54l45 -30q73 -49 113 -49q31 0 59 26t88 105l68 -52q-62 -97 -110.5 -138.5t-106.5 -41.5q-35 0 -64 12.5t-67 38.5l-43 29q-5 3 -20 13.5 t-20 13.5t-16.5 10t-18 9t-16 4.5t-18.5 2.5q-39 0 -66.5 -25t-90.5 -106z" />
<glyph unicode="&#xe4;" d="M104 274q0 159 111 244.5t322 85.5h290v121q0 109 -71 174.5t-209 65.5q-133 0 -206 -64.5t-73 -167.5h-108q0 149 99.5 241.5t287.5 92.5q191 0 291 -92.5t100 -243.5v-731h-72l-37 145q-62 -65 -164 -117.5t-221 -52.5q-146 0 -243 76.5t-97 222.5zM215 287 q0 -104 70.5 -156.5t179.5 -52.5q187 0 362 170v258h-290q-162 0 -242 -56.5t-80 -162.5zM307 1219v225h111v-225h-111zM678 1219v225h110v-225h-110z" />
<glyph unicode="&#xe5;" d="M104 274q0 159 111 244.5t322 85.5h290v121q0 109 -71 174.5t-209 65.5q-133 0 -206 -64.5t-73 -167.5h-108q0 149 99.5 241.5t287.5 92.5q191 0 291 -92.5t100 -243.5v-731h-72l-37 145q-62 -65 -164 -117.5t-221 -52.5q-146 0 -243 76.5t-97 222.5zM215 287 q0 -104 70.5 -156.5t179.5 -52.5q187 0 362 170v258h-290q-162 0 -242 -56.5t-80 -162.5zM362 1366q0 82 56.5 139.5t136.5 57.5q82 0 139.5 -57.5t57.5 -139.5q0 -80 -57.5 -136t-139.5 -56q-80 0 -136.5 56.5t-56.5 135.5zM432 1366q0 -49 36.5 -85t86.5 -36 q52 0 88.5 35.5t36.5 85.5q0 52 -36 88.5t-89 36.5q-50 0 -86.5 -36.5t-36.5 -88.5z" />
<glyph unicode="&#xe6;" horiz-adv-x="1792" d="M104 268q0 157 110.5 240.5t322.5 83.5h290v131q0 109 -71 173.5t-209 64.5q-133 0 -206 -62.5t-73 -165.5h-108q0 149 99.5 241.5t287.5 92.5q134 0 221.5 -52t122.5 -141q44 90 135.5 141.5t222.5 51.5q197 0 306.5 -105.5t109.5 -279.5v-186h-727v-131 q0 -128 82 -205.5t229 -77.5q135 0 209 60.5t88 166.5h111q-14 -155 -118.5 -244.5t-289.5 -89.5q-153 0 -251.5 61.5t-139.5 162.5q-67 -98 -174.5 -161t-239.5 -63q-148 0 -244 74.5t-96 218.5zM215 283q0 -101 70 -151t180 -50q120 0 218.5 64.5t143.5 148.5v201h-290 q-322 0 -322 -213zM938 592h616v86q0 127 -79.5 205t-229.5 78q-146 0 -226.5 -78t-80.5 -205v-86z" />
<glyph unicode="&#xe7;" horiz-adv-x="1079" d="M129 362v318q0 173 110.5 280t307.5 107q190 0 302 -100.5t112 -264.5v-10h-111v13q0 116 -80.5 188t-222.5 72q-147 0 -227 -78t-80 -205v-322q0 -128 80 -205t227 -77q143 0 223 73.5t80 190.5v12h111v-10q0 -150 -93.5 -248.5t-255.5 -115.5l-198 -308h-115v41 l199 264q-175 13 -272 117.5t-97 267.5z" />
<glyph unicode="&#xe8;" horiz-adv-x="1093" d="M129 360v320q0 173 112 280t310 107q196 0 306 -105.5t110 -279.5v-199h-727v-121q0 -128 81 -206t230 -78q134 0 208.5 62.5t88.5 168.5h110q-12 -154 -117.5 -244t-289.5 -90q-199 0 -310.5 105.5t-111.5 279.5zM240 582h616v100q0 127 -79.5 205t-229.5 78 q-146 0 -226.5 -78t-80.5 -205v-100zM330 1454v41h114l220 -287h-113z" />
<glyph unicode="&#xe9;" horiz-adv-x="1093" d="M129 360v320q0 173 112 280t310 107q196 0 306 -105.5t110 -279.5v-199h-727v-121q0 -128 81 -206t230 -78q134 0 208.5 62.5t88.5 168.5h110q-12 -154 -117.5 -244t-289.5 -90q-199 0 -310.5 105.5t-111.5 279.5zM240 582h616v100q0 127 -79.5 205t-229.5 78 q-146 0 -226.5 -78t-80.5 -205v-100zM432 1208l219 287h115v-41l-221 -246h-113z" />
<glyph unicode="&#xea;" horiz-adv-x="1093" d="M129 360v320q0 173 112 280t310 107q196 0 306 -105.5t110 -279.5v-199h-727v-121q0 -128 81 -206t230 -78q134 0 208.5 62.5t88.5 168.5h110q-12 -154 -117.5 -244t-289.5 -90q-199 0 -310.5 105.5t-111.5 279.5zM240 582h616v100q0 127 -79.5 205t-229.5 78 q-146 0 -226.5 -78t-80.5 -205v-100zM283 1208v41l221 246h108l222 -246v-41h-107l-170 203l-168 -203h-106z" />
<glyph unicode="&#xeb;" horiz-adv-x="1093" d="M129 360v320q0 173 112 280t310 107q196 0 306 -105.5t110 -279.5v-199h-727v-121q0 -128 81 -206t230 -78q134 0 208.5 62.5t88.5 168.5h110q-12 -154 -117.5 -244t-289.5 -90q-199 0 -310.5 105.5t-111.5 279.5zM240 582h616v100q0 127 -79.5 205t-229.5 78 q-146 0 -226.5 -78t-80.5 -205v-100zM309 1219v225h111v-225h-111zM680 1219v225h111v-225h-111z" />
<glyph unicode="&#xec;" horiz-adv-x="460" d="M-47 1450v41h115l219 -287h-113zM176 0v1042h111v-1042h-111z" />
<glyph unicode="&#xed;" horiz-adv-x="460" d="M176 0v1042h111v-1042h-111zM176 1208l219 287h115v-41l-221 -246h-113z" />
<glyph unicode="&#xee;" horiz-adv-x="460" d="M-43 1208v41l221 246h109l221 -246v-41h-107l-170 203l-168 -203h-106zM176 0v1042h111v-1042h-111z" />
<glyph unicode="&#xef;" horiz-adv-x="460" d="M-8 1219v225h110v-225h-110zM176 0v1042h111v-1042h-111zM362 1219v225h111v-225h-111z" />
<glyph unicode="&#xf0;" horiz-adv-x="1130" d="M137 362v193q0 180 99 283.5t270 103.5q182 0 344 -162q-20 81 -63.5 153t-120.5 169h-367v98h287l-154 191v53h100l191 -244h246v-98h-170q99 -130 141.5 -227.5t42.5 -239.5v-275q0 -174 -112.5 -279.5t-311.5 -105.5t-310.5 106.5t-111.5 280.5zM248 367 q0 -128 79.5 -208.5t231.5 -80.5q148 0 230.5 80.5t82.5 208.5v288q-167 183 -340 183q-132 0 -208 -81t-76 -210v-180z" />
<glyph unicode="&#xf1;" horiz-adv-x="1175" d="M176 0v1042h70l35 -157q69 79 164 130.5t208 51.5q160 0 259.5 -101.5t99.5 -287.5v-678h-111v664q0 150 -72.5 225.5t-191.5 75.5q-99 0 -190.5 -55t-159.5 -136v-774h-111zM244 1298q67 99 113 140t102 41q60 0 135 -54l45 -30q73 -49 113 -49q31 0 59 26t88 105 l68 -52q-62 -97 -110.5 -138.5t-106.5 -41.5q-56 0 -132 51l-43 29q-6 4 -20 13.5t-19.5 13.5t-16.5 10t-17.5 9t-16 5t-18.5 2q-39 0 -67 -25t-91 -106z" />
<glyph unicode="&#xf2;" d="M129 362v318q0 170 109.5 278.5t312.5 108.5q204 0 313 -108t109 -279v-318q0 -172 -108.5 -279.5t-313.5 -107.5q-203 0 -312.5 107.5t-109.5 279.5zM240 367q0 -129 81.5 -209t229.5 -80q152 0 231.5 80.5t79.5 208.5v309q0 128 -79.5 208.5t-231.5 80.5 q-148 0 -229.5 -80.5t-81.5 -208.5v-309zM309 1454v41h115l219 -287h-113z" />
<glyph unicode="&#xf3;" d="M129 362v318q0 170 109.5 278.5t312.5 108.5q204 0 313 -108t109 -279v-318q0 -172 -108.5 -279.5t-313.5 -107.5q-203 0 -312.5 107.5t-109.5 279.5zM240 367q0 -129 81.5 -209t229.5 -80q152 0 231.5 80.5t79.5 208.5v309q0 128 -79.5 208.5t-231.5 80.5 q-148 0 -229.5 -80.5t-81.5 -208.5v-309zM471 1208l219 287h115v-41l-221 -246h-113z" />
<glyph unicode="&#xf4;" d="M129 362v318q0 170 109.5 278.5t312.5 108.5q204 0 313 -108t109 -279v-318q0 -172 -108.5 -279.5t-313.5 -107.5q-203 0 -312.5 107.5t-109.5 279.5zM240 367q0 -129 81.5 -209t229.5 -80q152 0 231.5 80.5t79.5 208.5v309q0 128 -79.5 208.5t-231.5 80.5 q-148 0 -229.5 -80.5t-81.5 -208.5v-309zM274 1208v41l222 246h108l221 -246v-41h-106l-170 203l-168 -203h-107z" />
<glyph unicode="&#xf5;" d="M129 362v318q0 170 109.5 278.5t312.5 108.5q204 0 313 -108t109 -279v-318q0 -172 -108.5 -279.5t-313.5 -107.5q-203 0 -312.5 107.5t-109.5 279.5zM190 1298q67 99 113.5 140t102.5 41q60 0 135 -54l45 -30q73 -49 112 -49q31 0 59.5 26t88.5 105l67 -52 q-62 -97 -110.5 -138.5t-106.5 -41.5q-35 0 -64 12.5t-67 38.5l-43 29q-6 4 -20 13.5t-19.5 13.5t-16.5 10t-17.5 9t-16 5t-18.5 2q-39 0 -67 -25t-91 -106zM240 367q0 -129 81.5 -209t229.5 -80q152 0 231.5 80.5t79.5 208.5v309q0 128 -79.5 208.5t-231.5 80.5 q-148 0 -229.5 -80.5t-81.5 -208.5v-309z" />
<glyph unicode="&#xf6;" d="M129 362v318q0 170 109.5 278.5t312.5 108.5q204 0 313 -108t109 -279v-318q0 -172 -108.5 -279.5t-313.5 -107.5q-203 0 -312.5 107.5t-109.5 279.5zM240 367q0 -129 81.5 -209t229.5 -80q152 0 231.5 80.5t79.5 208.5v309q0 128 -79.5 208.5t-231.5 80.5 q-148 0 -229.5 -80.5t-81.5 -208.5v-309zM307 1219v225h111v-225h-111zM678 1219v225h110v-225h-110z" />
<glyph unicode="&#xf7;" horiz-adv-x="1075" d="M111 594v94h854v-94h-854zM475 197v233h125v-233h-125zM475 852v233h125v-233h-125z" />
<glyph unicode="&#xf8;" d="M129 -205l133 266q-133 103 -133 301v318q0 170 109.5 278.5t312.5 108.5q101 0 188 -33l144 289h90v-53l-142 -285q142 -109 142 -305v-318q0 -172 -108.5 -279.5t-313.5 -107.5q-101 0 -201 35l-133 -268h-88v53zM240 367q0 -132 75 -207l381 780q-64 25 -145 25 q-148 0 -229.5 -80.5t-81.5 -208.5v-309zM393 106q67 -28 158 -28q152 0 231.5 80.5t79.5 208.5v309q0 137 -84 215z" />
<glyph unicode="&#xf9;" horiz-adv-x="1175" d="M164 365v677h110v-663q0 -150 73 -225.5t192 -75.5q100 0 191 54.5t159 135.5v774h110v-1042h-69l-35 158q-69 -80 -164.5 -131.5t-208.5 -51.5q-159 0 -258.5 102t-99.5 288zM371 1454v41h114l220 -287h-113z" />
<glyph unicode="&#xfa;" horiz-adv-x="1175" d="M164 365v677h110v-663q0 -150 73 -225.5t192 -75.5q100 0 191 54.5t159 135.5v774h110v-1042h-69l-35 158q-69 -80 -164.5 -131.5t-208.5 -51.5q-159 0 -258.5 102t-99.5 288zM477 1208l219 287h115v-41l-221 -246h-113z" />
<glyph unicode="&#xfb;" horiz-adv-x="1175" d="M164 365v677h110v-663q0 -150 73 -225.5t192 -75.5q100 0 191 54.5t159 135.5v774h110v-1042h-69l-35 158q-69 -80 -164.5 -131.5t-208.5 -51.5q-159 0 -258.5 102t-99.5 288zM311 1208v41l221 246h109l221 -246v-41h-106l-170 203l-168 -203h-107z" />
<glyph unicode="&#xfc;" horiz-adv-x="1175" d="M164 365v677h110v-663q0 -150 73 -225.5t192 -75.5q100 0 191 54.5t159 135.5v774h110v-1042h-69l-35 158q-69 -80 -164.5 -131.5t-208.5 -51.5q-159 0 -258.5 102t-99.5 288zM344 1219v225h111v-225h-111zM715 1219v225h110v-225h-110z" />
<glyph unicode="&#xfd;" horiz-adv-x="1021" d="M53 989v53h105l358 -895l354 895h103v-53l-541 -1317h-94v43l123 285zM416 1208l219 287h115v-41l-222 -246h-112z" />
<glyph unicode="&#xfe;" horiz-adv-x="1165" d="M176 -328v1772h111v-555q158 178 368 178q167 0 266 -103.5t99 -281.5v-322q0 -178 -99.5 -281.5t-269.5 -103.5q-113 0 -206.5 51t-157.5 126v-480h-111zM287 268q173 -190 352 -190q126 0 198 80.5t72 210.5v305q0 130 -71.5 210.5t-196.5 80.5q-180 0 -354 -191v-506z " />
<glyph unicode="&#xff;" horiz-adv-x="1021" d="M53 989v53h105l358 -895l354 895h103v-53l-541 -1317h-94v43l123 285zM268 1219v225h111v-225h-111zM639 1219v225h111v-225h-111z" />
<glyph unicode="&#x131;" horiz-adv-x="462" d="M176 0v1042h111v-1042h-111z" />
<glyph unicode="&#x152;" horiz-adv-x="2101" d="M156 481v471q0 241 144.5 376.5t393.5 135.5q147 0 256.5 -62.5t163.5 -176.5v209h871v-107h-752v-551h655v-106h-655v-564h754v-106h-873v209q-54 -115 -163 -177.5t-257 -62.5q-249 0 -393.5 135.5t-144.5 376.5zM274 475q0 -182 112 -288.5t308 -106.5 q191 0 305.5 105t114.5 278v502q0 175 -113.5 282t-306.5 107q-196 0 -308 -107t-112 -289v-483z" />
<glyph unicode="&#x153;" horiz-adv-x="1826" d="M129 362v318q0 170 109.5 278.5t312.5 108.5q140 0 232.5 -56.5t134.5 -154.5q43 98 136.5 154.5t231.5 56.5q196 0 305 -105.5t109 -279.5v-199h-727v-127q2 -126 84.5 -202t228.5 -76q133 0 207 62.5t88 168.5h111q-14 -155 -118.5 -244.5t-287.5 -89.5q-139 0 -233 55 t-135 152q-41 -96 -134 -151.5t-233 -55.5q-203 0 -312.5 107.5t-109.5 279.5zM240 367q0 -129 81.5 -209t229.5 -80q150 0 230.5 80t80.5 207v315q0 124 -81 204.5t-230 80.5q-148 0 -229.5 -80.5t-81.5 -208.5v-309zM973 582h616v100q0 127 -78.5 205t-228.5 78 q-147 0 -228 -78t-81 -205v-100z" />
<glyph unicode="&#x178;" horiz-adv-x="1236" d="M33 1393v41h117l468 -752l478 752h108v-41l-526 -820v-573h-119v569zM362 1579v242h117v-242h-117zM758 1579v242h119v-242h-119z" />
<glyph unicode="&#x192;" horiz-adv-x="770" d="M-53 -248h7q7 -1 17 -1.5t19 -0.5q110 0 167 54t66 167l76 973h-172v98h180l8 93q26 313 332 313q17 0 42 -2t28 -2v-101q-2 0 -23 1.5t-37 1.5q-108 0 -165 -52.5t-66 -160.5l-8 -91h280v-98h-288l-76 -975q-11 -150 -88.5 -235.5t-227.5 -85.5q-47 0 -71 4v100z" />
<glyph unicode="&#x2c6;" horiz-adv-x="823" d="M135 1208v41l221 246h109l221 -246v-41h-106l-170 203l-168 -203h-107z" />
<glyph unicode="&#x2c7;" horiz-adv-x="823" d="M135 1454v41h107l168 -203l170 203h106v-41l-221 -246h-109z" />
<glyph unicode="&#x2d8;" horiz-adv-x="817" d="M98 1450v25h101v-23q0 -92 56 -142t155 -50q98 0 154.5 50.5t56.5 141.5v23h100v-25q0 -131 -86 -206t-225 -75q-140 0 -226 75t-86 206z" />
<glyph unicode="&#x2d9;" horiz-adv-x="378" d="M135 1239v225h111v-225h-111z" />
<glyph unicode="&#x2da;" horiz-adv-x="688" d="M152 1366q0 82 56 139.5t136 57.5q82 0 139.5 -57.5t57.5 -139.5q0 -80 -57.5 -136t-139.5 -56q-80 0 -136 56t-56 136zM221 1366q0 -49 36.5 -85t86.5 -36q52 0 88.5 35.5t36.5 85.5q0 52 -36.5 88.5t-88.5 36.5q-50 0 -86.5 -36.5t-36.5 -88.5z" />
<glyph unicode="&#x2db;" horiz-adv-x="557" d="M109 -176q0 84 108 176h102q-120 -87 -120 -154q0 -88 135 -88h92v-86h-115q-95 0 -148.5 40.5t-53.5 111.5z" />
<glyph unicode="&#x2dc;" horiz-adv-x="999" d="M137 1298q67 99 113 140t102 41q60 0 135 -54l45 -30q73 -49 113 -49q31 0 59.5 26t88.5 105l67 -52q-62 -97 -110.5 -138.5t-106.5 -41.5q-35 0 -64 12.5t-67 38.5l-43 29q-5 3 -20 13.5t-20 13.5t-16.5 10t-18 9t-16 4.5t-18.5 2.5q-39 0 -66.5 -25t-90.5 -106z" />
<glyph unicode="&#x2dd;" horiz-adv-x="933" d="M127 1208l219 287h115v-41l-221 -246h-113zM473 1208l219 287h115v-41l-221 -246h-113z" />
<glyph unicode="&#x3a9;" horiz-adv-x="1470" d="M164 0v106h291q-258 110 -258 431v415q0 241 144.5 376.5t393.5 135.5q248 0 393.5 -135.5t145.5 -376.5v-415q0 -321 -258 -431h291v-106h-467v111q150 26 232.5 140t82.5 279v426q0 182 -112 290t-308 108t-308 -108t-112 -290v-426q0 -165 83 -279t233 -140v-111h-467 z" />
<glyph unicode="&#x3c0;" horiz-adv-x="1341" d="M74 944v98h1194v-98h-211v-944h-111v944h-551v-944h-110v944h-211z" />
<glyph unicode="&#x401;" horiz-adv-x="1183" d="M197 0v1434h870v-107h-752v-551h656v-106h-656v-564h754v-106h-872zM371 1573v242h116v-242h-116zM766 1573v242h119v-242h-119z" />
<glyph unicode="&#x402;" horiz-adv-x="1509" d="M53 1327v107h1006v-107h-518v-530q190 55 372 55q231 0 361.5 -115t130.5 -311q0 -197 -106.5 -311.5t-303.5 -114.5h-114v106h110q142 0 217.5 86t75.5 232q0 148 -106 232.5t-279 84.5q-176 0 -358 -55v-686h-119v1327h-369z" />
<glyph unicode="&#x403;" horiz-adv-x="1148" d="M197 0v1434h858v-107h-740v-1327h-118zM514 1561l236 309h122v-45l-237 -264h-121z" />
<glyph unicode="&#x404;" horiz-adv-x="1347" d="M156 475v483q0 239 143 372.5t397 133.5q105 0 196.5 -29.5t163.5 -86t114 -148t42 -205.5v-20h-118v20q0 87 -34 157.5t-91 113.5t-127 65.5t-146 22.5q-201 0 -311.5 -102t-110.5 -285v-193h617v-106h-617v-201q0 -183 110.5 -285t311.5 -102q76 0 146 22.5t127 65 t91 113t34 157.5v21h118v-21q0 -114 -42 -205.5t-114 -148t-163.5 -86t-196.5 -29.5q-254 0 -397 133.5t-143 372.5z" />
<glyph unicode="&#x405;" horiz-adv-x="1280" d="M104 465h119q0 -102 39 -179.5t103.5 -120.5t138 -64t153.5 -21q175 0 269 75.5t94 194.5q0 104 -76 168.5t-250 130.5l-159 60q-83 31 -138.5 56.5t-105.5 58.5t-77.5 69.5t-43.5 84.5t-16 109q0 169 127 273t348 104q87 0 162.5 -17t140 -54.5t110 -93t71.5 -136.5 t26 -182h-121q0 99 -32 173t-88 116.5t-124 63t-147 20.5q-163 0 -259 -72t-96 -186q0 -54 16 -94t54.5 -72.5t89.5 -57.5t133 -55l154 -57q83 -31 139 -55.5t115 -60.5t93.5 -75t56.5 -93t22 -120q0 -171 -127.5 -279t-366.5 -108q-108 0 -203.5 29.5t-174 87.5t-124 155.5 t-45.5 223.5z" />
<glyph unicode="&#x406;" horiz-adv-x="512" d="M197 0v1434h118v-1434h-118z" />
<glyph unicode="&#x407;" horiz-adv-x="512" d="M0 1573v242h117v-242h-117zM197 0v1434h118v-1434h-118zM397 1573v242h117v-242h-117z" />
<glyph unicode="&#x408;" horiz-adv-x="1157" d="M53 412v57h119v-57q0 -159 92.5 -245.5t253.5 -86.5q156 0 251 88t95 248v1018h119v-1022q0 -216 -127.5 -329.5t-337.5 -113.5q-213 0 -339 112t-126 331z" />
<glyph unicode="&#x409;" horiz-adv-x="2140" d="M43 0v111q113 0 175 57t90 190t28 375v701h850v-588h450q190 0 295 -113.5t105 -308.5q0 -196 -105 -310t-295 -114h-569v1327h-614v-592q0 -275 -43.5 -436t-131.5 -230t-235 -69zM1186 106h448q134 0 207.5 85t73.5 233q0 146 -73.5 230.5t-207.5 84.5h-448v-633z" />
<glyph unicode="&#x40a;" horiz-adv-x="2177" d="M207 0v1434h121v-588h776v588h119v-588h450q190 0 295 -113.5t105 -308.5q0 -196 -105 -310t-295 -114h-569v739h-776v-739h-121zM1223 106h448q132 0 206.5 85.5t74.5 232.5q0 146 -74.5 230.5t-206.5 84.5h-448v-633z" />
<glyph unicode="&#x40b;" horiz-adv-x="1540" d="M53 1327v107h1006v-107h-518v-532q155 57 354 57q508 0 508 -428v-424h-119v412q0 162 -96 245.5t-301 83.5q-196 0 -346 -59v-682h-119v1327h-369z" />
<glyph unicode="&#x40c;" horiz-adv-x="1226" d="M197 0v1434h118v-660h271l452 660h111v-41l-461 -666l486 -686v-41h-117l-469 668h-273v-668h-118zM549 1561l235 309h123v-45l-237 -264h-121z" />
<glyph unicode="&#x40e;" horiz-adv-x="1157" d="M33 1393v41h110l467 -930l412 930h104v-41l-618 -1393h-105v41l152 334zM260 1798v21h100v-19q0 -92 55.5 -141t155.5 -49q99 0 155 48.5t56 141.5v19h101v-21q0 -131 -86 -204.5t-226 -73.5q-141 0 -226 73.5t-85 204.5z" />
<glyph unicode="&#x40f;" horiz-adv-x="1402" d="M197 0v1434h118v-1323h772v1323h119v-1434h-450v-287h-111v287h-448z" />
<glyph unicode="&#x410;" horiz-adv-x="1339" d="M53 0v41l555 1393h121l557 -1393v-41h-117l-159 406h-686l-162 -406h-109zM360 508h613l-305 768z" />
<glyph unicode="&#x411;" horiz-adv-x="1323" d="M197 0v1434h929v-107h-811v-481h506q182 0 284.5 -113.5t102.5 -308.5t-103 -309.5t-284 -114.5h-624zM315 106h488q130 0 207 84.5t77 233.5q0 148 -77 231.5t-207 83.5h-488v-633z" />
<glyph unicode="&#x412;" horiz-adv-x="1329" d="M197 0v1434h598q173 0 269.5 -96t96.5 -275q0 -127 -54.5 -206t-145.5 -112q114 -27 183.5 -114t69.5 -244q0 -184 -98 -285.5t-272 -101.5h-647zM315 106h508q130 0 201.5 75.5t71.5 209.5q0 137 -71.5 213t-201.5 76h-508v-574zM315 782h467q123 0 190.5 73t67.5 200 q0 130 -68 201t-196 71h-461v-545z" />
<glyph unicode="&#x413;" horiz-adv-x="1148" d="M197 0v1434h858v-107h-740v-1327h-118z" />
<glyph unicode="&#x414;" horiz-adv-x="1452" d="M63 106h105q47 62 77 114t63.5 138t50 206t16.5 274v596h811v-1328h184v-405h-110v299h-1086v-299h-111v405zM299 106h766v1221h-580v-489q0 -152 -14.5 -271t-44 -205t-57.5 -140t-70 -116z" />
<glyph unicode="&#x415;" horiz-adv-x="1183" d="M197 0v1434h870v-107h-752v-551h656v-106h-656v-564h754v-106h-872z" />
<glyph unicode="&#x416;" horiz-adv-x="1783" d="M74 0v41l407 684l-381 668v41h109l373 -660h249v660h121v-660h250l373 660h108v-41l-380 -668l407 -684v-41h-119l-389 668h-250v-668h-121v668h-249l-389 -668h-119z" />
<glyph unicode="&#x417;" horiz-adv-x="1241" d="M115 449h118q1 -118 55.5 -201.5t144.5 -123.5t208 -40q173 0 270 84t97 235q0 132 -89.5 207.5t-244.5 75.5h-209v107h209q137 0 215 65.5t78 194.5q0 130 -90 213.5t-250 83.5q-165 0 -265 -93.5t-100 -271.5h-121q1 117 37.5 209t102 150.5t153 89t193.5 30.5 q217 0 338.5 -110.5t121.5 -284.5q0 -131 -65.5 -213t-173.5 -113q123 -26 200.5 -114t77.5 -228q0 -198 -129 -315t-360 -117q-149 0 -265 53t-186 163t-71 264z" />
<glyph unicode="&#x418;" horiz-adv-x="1423" d="M197 0v1434h118v-1225l801 1225h111v-1434h-119v1225l-801 -1225h-110z" />
<glyph unicode="&#x419;" horiz-adv-x="1423" d="M197 0v1434h118v-1225l801 1225h111v-1434h-119v1225l-801 -1225h-110zM399 1798v21h101v-19q0 -92 55.5 -141t155.5 -49q99 0 155 48.5t56 141.5v19h100v-21q0 -131 -85.5 -204.5t-225.5 -73.5q-141 0 -226.5 73.5t-85.5 204.5z" />
<glyph unicode="&#x41a;" horiz-adv-x="1226" d="M197 0v1434h118v-660h271l452 660h111v-41l-461 -666l486 -686v-41h-117l-469 668h-273v-668h-118z" />
<glyph unicode="&#x41b;" horiz-adv-x="1382" d="M43 0v111q113 0 175 57t90 190t28 375v701h850v-1434h-119v1327h-614v-592q0 -275 -43.5 -436t-131.5 -230t-235 -69z" />
<glyph unicode="&#x41c;" horiz-adv-x="1634" d="M197 0v1434h114l508 -777l506 777h113v-1434h-117v1229l-465 -719h-80l-465 715v-1225h-114z" />
<glyph unicode="&#x41d;" horiz-adv-x="1419" d="M197 0v1434h118v-660h789v660h119v-1434h-119v668h-789v-668h-118z" />
<glyph unicode="&#x41e;" horiz-adv-x="1388" d="M156 481v471q0 241 144.5 376.5t393.5 135.5q248 0 393.5 -135.5t145.5 -376.5v-471q0 -241 -145.5 -376.5t-393.5 -135.5q-249 0 -393.5 135.5t-144.5 376.5zM274 475q0 -182 112 -288.5t308 -106.5t308 106.5t112 288.5v483q0 182 -112 289t-308 107t-308 -107 t-112 -289v-483z" />
<glyph unicode="&#x41f;" horiz-adv-x="1406" d="M197 0v1434h1013v-1434h-118v1327h-777v-1327h-118z" />
<glyph unicode="&#x420;" horiz-adv-x="1269" d="M197 0v1434h581q181 0 284 -114.5t103 -309.5t-102.5 -308.5t-284.5 -113.5h-463v-588h-118zM315 694h445q130 0 207 84t77 232q0 149 -77 233t-207 84h-445v-633z" />
<glyph unicode="&#x421;" horiz-adv-x="1347" d="M156 485v463q0 244 143 380t397 136q105 0 196.5 -30t163.5 -88t114 -151t42 -210v-20h-118v20q0 90 -34 162t-90.5 116t-127 67.5t-146.5 23.5q-200 0 -311 -105t-111 -293v-479q0 -188 110.5 -292.5t311.5 -104.5q76 0 146.5 23.5t127 67.5t90.5 116t34 162v20h118v-20 q0 -117 -42 -210t-114 -151t-163.5 -88.5t-196.5 -30.5q-254 0 -397 136t-143 380z" />
<glyph unicode="&#x422;" horiz-adv-x="1128" d="M53 1327v107h1024v-107h-452v-1327h-119v1327h-453z" />
<glyph unicode="&#x423;" horiz-adv-x="1157" d="M33 1393v41h110l467 -930l412 930h104v-41l-618 -1393h-105v41l152 334z" />
<glyph unicode="&#x424;" horiz-adv-x="1665" d="M115 649v150q0 148 70.5 256.5t190.5 162.5t275 54h121v180h121v-180h121q238 0 387 -125.5t149 -347.5v-150q0 -147 -70 -255t-190 -162t-276 -54h-121v-203h-121v203h-121q-237 0 -386.5 125.5t-149.5 345.5zM233 651q0 -166 112.5 -266t301.5 -100h125v880h-125 q-189 0 -301.5 -100t-112.5 -266v-148zM893 285h127q188 0 300 100t112 266v148q0 166 -112 266t-300 100h-127v-880z" />
<glyph unicode="&#x425;" horiz-adv-x="1253" d="M74 0v41l479 688l-465 664v41h119l420 -611l426 611h110v-41l-465 -664l482 -688v-41h-119l-438 635l-439 -635h-110z" />
<glyph unicode="&#x426;" horiz-adv-x="1466" d="M197 0v1434h118v-1328h766v1328h119v-1328h184v-405h-110v299h-1077z" />
<glyph unicode="&#x427;" horiz-adv-x="1312" d="M135 1010v424h119v-412q0 -330 397 -330q194 0 346 60v682h119v-1434h-119v639q-155 -57 -354 -57q-508 0 -508 428z" />
<glyph unicode="&#x428;" horiz-adv-x="1970" d="M197 0v1434h118v-1328h611v1328h118v-1328h611v1328h119v-1434h-1577z" />
<glyph unicode="&#x429;" horiz-adv-x="2039" d="M197 0v1434h118v-1328h611v1328h118v-1328h611v1328h119v-1328h184v-405h-111v299h-1650z" />
<glyph unicode="&#x42a;" horiz-adv-x="1462" d="M33 1327v107h475v-588h450q190 0 295 -113.5t105 -308.5q0 -196 -105 -310t-295 -114h-569v1327h-356zM508 106h448q134 0 207.5 85t73.5 233q0 146 -73.5 230.5t-207.5 84.5h-448v-633z" />
<glyph unicode="&#x42b;" horiz-adv-x="1765" d="M197 0v1434h118v-588h451q189 0 294 -113.5t105 -308.5q0 -196 -104.5 -310t-294.5 -114h-569zM315 106h449q134 0 207 85t73 233q0 146 -73.5 230.5t-206.5 84.5h-449v-633zM1450 0v1434h119v-1434h-119z" />
<glyph unicode="&#x42c;" horiz-adv-x="1269" d="M197 0v1434h118v-588h451q189 0 294 -113.5t105 -308.5q0 -196 -104.5 -310t-294.5 -114h-569zM315 106h449q134 0 207 85t73 233q0 146 -73.5 230.5t-206.5 84.5h-449v-633z" />
<glyph unicode="&#x42d;" horiz-adv-x="1349" d="M137 438v21h119v-21q0 -87 33.5 -157t90.5 -113t127 -65.5t146 -22.5q201 0 311.5 102t110.5 285v201h-616v106h616v193q0 183 -110.5 285t-311.5 102q-76 0 -146 -22.5t-126.5 -65.5t-90.5 -113.5t-34 -157.5v-20h-119v20q0 114 42 205.5t114 148t163.5 86t196.5 29.5 q254 0 397.5 -133.5t143.5 -372.5v-483q0 -239 -143.5 -372.5t-397.5 -133.5q-105 0 -196.5 29.5t-163.5 86t-114 148t-42 205.5z" />
<glyph unicode="&#x42e;" horiz-adv-x="1882" d="M197 0v1434h118v-664h373v195q0 234 140 366.5t380 132.5t379 -130.5t139 -368.5v-496q0 -234 -140 -367t-378 -133q-241 0 -380.5 131t-139.5 369v195h-373v-664h-118zM809 469q0 -179 106 -284t293 -105t292.5 101.5t105.5 279.5v504q0 178 -106.5 283.5t-291.5 105.5 q-188 0 -293.5 -101.5t-105.5 -279.5v-504z" />
<glyph unicode="&#x42f;" horiz-adv-x="1316" d="M121 0v41l348 555q-150 22 -234.5 127.5t-84.5 288.5q0 197 104 309.5t291 112.5h575v-1434h-119v586h-403l-362 -586h-115zM272 1010q0 -152 77 -235t216 -83h436v635h-436q-138 0 -215.5 -83.5t-77.5 -233.5z" />
<glyph unicode="&#x430;" d="M104 274q0 159 111 244.5t322 85.5h290v121q0 109 -71 174.5t-209 65.5q-133 0 -206 -64.5t-73 -167.5h-108q0 149 99.5 241.5t287.5 92.5q191 0 291 -92.5t100 -243.5v-731h-72l-37 145q-62 -65 -164 -117.5t-221 -52.5q-146 0 -243 76.5t-97 222.5zM215 287 q0 -104 70.5 -156.5t179.5 -52.5q187 0 362 170v258h-290q-162 0 -242 -56.5t-80 -162.5z" />
<glyph unicode="&#x431;" horiz-adv-x="1118" d="M145 360v385q0 205 74 324t250 172l238 70q72 21 98 51t26 70v12h111v-12q0 -95 -46 -141.5t-169 -82.5l-213 -61q-142 -41 -204 -128.5t-62 -246.5v-24q66 78 162 131t211 53q170 0 269 -103.5t99 -281.5v-185q0 -174 -111 -280.5t-311 -106.5q-199 0 -310.5 105.5 t-111.5 279.5zM256 367q0 -129 81.5 -209t229.5 -80q152 0 232 80.5t80 208.5v172q0 130 -73.5 210t-205.5 80q-176 0 -344 -188v-274z" />
<glyph unicode="&#x432;" horiz-adv-x="1122" d="M176 0v1042h477q145 0 226.5 -69t81.5 -199q0 -95 -41 -156.5t-111 -87.5q91 -21 144 -82.5t53 -164.5q0 -142 -85 -212.5t-239 -70.5h-506zM287 98h389q102 0 156.5 50.5t54.5 140.5q0 88 -54 137t-163 49h-383v-377zM287 569h366q92 0 141.5 53t49.5 138q0 88 -50 136 t-147 48h-360v-375z" />
<glyph unicode="&#x433;" horiz-adv-x="933" d="M176 0v1042h664v-98h-553v-944h-111z" />
<glyph unicode="&#x434;" horiz-adv-x="1273" d="M72 98h94q71 79 110 197.5t39 314.5v432h717v-944h158v-368h-111v270h-897v-270h-110v368zM289 98h633v846h-500v-348q0 -179 -35 -292t-98 -206z" />
<glyph unicode="&#x435;" horiz-adv-x="1093" d="M129 360v320q0 173 112 280t310 107q196 0 306 -105.5t110 -279.5v-199h-727v-121q0 -128 81 -206t230 -78q134 0 208.5 62.5t88.5 168.5h110q-12 -154 -117.5 -244t-289.5 -90q-199 0 -310.5 105.5t-111.5 279.5zM240 582h616v100q0 127 -79.5 205t-229.5 78 q-146 0 -226.5 -78t-80.5 -205v-100z" />
<glyph unicode="&#x436;" horiz-adv-x="1570" d="M94 0v53l326 477l-311 459v53h100l315 -469h207v469h111v-469h205l317 469h98v-53l-309 -459l326 -477v-53h-105l-321 475h-211v-475h-111v475h-213l-319 -475h-105z" />
<glyph unicode="&#x437;" horiz-adv-x="1073" d="M121 342h106q0 -123 85 -193.5t237 -70.5q135 0 210 59t75 160q0 87 -64 136.5t-178 49.5h-143v99h143q98 0 155.5 48.5t57.5 133.5q0 92 -69 146.5t-199 54.5q-135 0 -210.5 -70t-78.5 -193h-109q5 172 111.5 268.5t292.5 96.5q178 0 278.5 -81.5t100.5 -213.5 q0 -91 -51.5 -152.5t-133.5 -82.5q96 -19 154.5 -83.5t58.5 -162.5q0 -149 -104 -232.5t-295 -83.5q-198 0 -312.5 98t-117.5 269z" />
<glyph unicode="&#x438;" horiz-adv-x="1208" d="M176 0v1042h111v-872l635 872h110v-1042h-110v870l-635 -870h-111z" />
<glyph unicode="&#x439;" horiz-adv-x="1208" d="M176 0v1042h111v-872l635 872h110v-1042h-110v870l-635 -870h-111zM293 1450v25h100v-23q0 -92 56 -142t155 -50q98 0 154.5 50.5t56.5 141.5v23h100v-25q0 -131 -86 -206t-225 -75q-140 0 -225.5 75t-85.5 206z" />
<glyph unicode="&#x43a;" horiz-adv-x="1064" d="M176 0v1042h111v-469h211l366 469h92v-53l-358 -459l375 -477v-53h-101l-370 475h-215v-475h-111z" />
<glyph unicode="&#x43b;" horiz-adv-x="1167" d="M49 0v102h12q120 0 169 108t49 333v499h712v-1042h-110v944h-496v-399q0 -545 -309 -545h-27z" />
<glyph unicode="&#x43c;" horiz-adv-x="1384" d="M176 0v1042h111l407 -538l404 538h110v-1042h-110v868l-375 -493h-59l-377 493v-868h-111z" />
<glyph unicode="&#x43d;" horiz-adv-x="1187" d="M176 0v1042h111v-473h614v473h111v-1042h-111v471h-614v-471h-111z" />
<glyph unicode="&#x43e;" d="M129 362v318q0 170 109.5 278.5t312.5 108.5q204 0 313 -108t109 -279v-318q0 -172 -108.5 -279.5t-313.5 -107.5q-203 0 -312.5 107.5t-109.5 279.5zM240 367q0 -129 81.5 -209t229.5 -80q152 0 231.5 80.5t79.5 208.5v309q0 128 -79.5 208.5t-231.5 80.5 q-148 0 -229.5 -80.5t-81.5 -208.5v-309z" />
<glyph unicode="&#x43f;" horiz-adv-x="1177" d="M176 0v1042h825v-1042h-110v944h-604v-944h-111z" />
<glyph unicode="&#x440;" horiz-adv-x="1165" d="M176 -328v1370h70l35 -157q70 78 165 130t209 52q167 0 266 -103.5t99 -281.5v-322q0 -178 -99.5 -281.5t-269.5 -103.5q-113 0 -206.5 51t-157.5 126v-480h-111zM287 268q173 -190 352 -190q126 0 198 80.5t72 210.5v305q0 130 -71.5 210.5t-196.5 80.5 q-180 0 -354 -191v-506z" />
<glyph unicode="&#x441;" horiz-adv-x="1079" d="M129 362v318q0 173 110.5 280t307.5 107q190 0 302 -100.5t112 -264.5v-10h-111v13q0 116 -80.5 188t-222.5 72q-147 0 -227 -78t-80 -205v-322q0 -128 80 -205t227 -77q143 0 223 73.5t80 190.5v12h111v-10q0 -165 -112 -267t-302 -102q-197 0 -307.5 106.5 t-110.5 280.5z" />
<glyph unicode="&#x442;" horiz-adv-x="958" d="M53 944v98h852v-98h-370v-944h-111v944h-371z" />
<glyph unicode="&#x443;" horiz-adv-x="1021" d="M53 989v53h105l358 -895l354 895h103v-53l-541 -1317h-94v43l123 285z" />
<glyph unicode="&#x444;" horiz-adv-x="1583" d="M145 301v438q0 150 79.5 239t215.5 89q170 0 295 -139v516h111v-516q125 139 295 139q136 0 216.5 -89t80.5 -239v-438q0 -148 -80.5 -237t-216.5 -89q-169 0 -295 140v-443h-111v443q-126 -140 -295 -140q-136 0 -215.5 89t-79.5 237zM256 315q0 -106 58 -171.5 t161 -65.5q77 0 138.5 39t121.5 104v600q-61 65 -122 104.5t-138 39.5q-103 0 -161 -66t-58 -172v-412zM846 221q60 -65 121.5 -104t138.5 -39q103 0 162 66t59 171v412q0 105 -59 171.5t-162 66.5q-77 0 -138 -39.5t-122 -104.5v-600z" />
<glyph unicode="&#x445;" horiz-adv-x="1048" d="M94 0v53l361 467l-359 469v53h103l325 -436l328 436h96v-53l-354 -465l362 -471v-53h-100l-334 444l-332 -444h-96z" />
<glyph unicode="&#x446;" horiz-adv-x="1241" d="M176 0v1042h111v-944h600v944h110v-944h160v-368h-110v270h-871z" />
<glyph unicode="&#x447;" horiz-adv-x="1105" d="M115 711v331h110v-321q0 -118 82.5 -176t224.5 -58q156 0 287 41v514h111v-1042h-111v426q-141 -41 -303 -41q-187 0 -294 81.5t-107 244.5z" />
<glyph unicode="&#x448;" horiz-adv-x="1583" d="M176 0v1042h111v-944h448v944h111v-944h450v944h111v-1042h-1231z" />
<glyph unicode="&#x449;" horiz-adv-x="1648" d="M176 0v1042h111v-944h448v944h111v-944h450v944h111v-944h158v-368h-111v270h-1278z" />
<glyph unicode="&#x44a;" horiz-adv-x="1200" d="M12 944v98h414v-378h385q144 0 230.5 -89t86.5 -245q0 -155 -86.5 -242.5t-230.5 -87.5h-496v944h-303zM426 98h360q106 0 169 62.5t63 169.5q0 110 -63 172.5t-169 62.5h-360v-467z" />
<glyph unicode="&#x44b;" horiz-adv-x="1466" d="M176 0v1042h111v-378h377q144 0 230.5 -89t86.5 -245q0 -155 -86.5 -242.5t-230.5 -87.5h-488zM287 98h350q106 0 169.5 62.5t63.5 169.5q0 109 -63 172t-168 63h-352v-467zM1180 0v1042h110v-1042h-110z" />
<glyph unicode="&#x44c;" horiz-adv-x="1073" d="M176 0v1042h111v-378h397q144 0 230.5 -89t86.5 -245q0 -155 -86.5 -242.5t-230.5 -87.5h-508zM287 98h370q106 0 170 62.5t64 169.5q0 109 -63.5 172t-168.5 63h-372v-467z" />
<glyph unicode="&#x44d;" horiz-adv-x="1093" d="M121 354h110q0 -125 80 -200.5t228 -75.5q150 0 232.5 79.5t82.5 209.5v104h-418v98h418v107q0 130 -82.5 209.5t-232.5 79.5q-147 0 -227.5 -75t-80.5 -198h-110q0 171 111.5 273t306.5 102q200 0 313 -107.5t113 -283.5v-309q0 -176 -113 -284t-313 -108 q-195 0 -306.5 104t-111.5 275z" />
<glyph unicode="&#x44e;" horiz-adv-x="1525" d="M176 0v1042h111v-473h282v115q0 169 108.5 276t305.5 107q199 0 306.5 -106.5t107.5 -276.5v-326q0 -170 -107.5 -276.5t-306.5 -106.5q-197 0 -305.5 107t-108.5 276v113h-282v-471h-111zM680 362q0 -126 80 -205t223 -79q145 0 224 79.5t79 204.5v318q0 125 -79 205 t-224 80q-143 0 -223 -79t-80 -206v-318z" />
<glyph unicode="&#x44f;" horiz-adv-x="1093" d="M113 0v53l256 379q-110 15 -174 94.5t-64 206.5q0 145 81 227t218 82h488v-1042h-111v422h-318l-270 -422h-106zM242 737q0 -104 57.5 -160.5t155.5 -56.5h352v424h-352q-99 0 -156 -57t-57 -150z" />
<glyph unicode="&#x451;" horiz-adv-x="1093" d="M129 360v320q0 173 112 280t310 107q196 0 306 -105.5t110 -279.5v-199h-727v-121q0 -128 81 -206t230 -78q134 0 208.5 62.5t88.5 168.5h110q-12 -154 -117.5 -244t-289.5 -90q-199 0 -310.5 105.5t-111.5 279.5zM240 582h616v100q0 127 -79.5 205t-229.5 78 q-146 0 -226.5 -78t-80.5 -205v-100zM311 1219v225h111v-225h-111zM682 1219v225h111v-225h-111z" />
<glyph unicode="&#x452;" horiz-adv-x="1183" d="M29 1126v91h168v227h110v-227h488v-91h-488v-407q68 76 163 126t206 50q157 0 256.5 -101.5t99.5 -287.5v-520q0 -338 -282 -338q-32 0 -64 4v98q23 -2 53 -2q96 0 139.5 58t43.5 180v506q0 150 -73 225.5t-192 75.5q-98 0 -190.5 -55t-159.5 -136v-602h-110v1126h-168z " />
<glyph unicode="&#x453;" horiz-adv-x="933" d="M176 0v1042h664v-98h-553v-944h-111zM410 1208l219 287h114v-41l-221 -246h-112z" />
<glyph unicode="&#x454;" horiz-adv-x="1091" d="M129 367v309q0 176 113 283.5t313 107.5q195 0 306.5 -102t111.5 -273h-111q0 123 -80 198t-227 75q-150 0 -232.5 -79.5t-82.5 -209.5v-107h417v-98h-417v-104q0 -130 82.5 -209.5t232.5 -79.5q148 0 227.5 75.5t79.5 200.5h111q0 -171 -111.5 -275t-306.5 -104 q-200 0 -313 108t-113 284z" />
<glyph unicode="&#x455;" d="M115 348h110q0 -57 19.5 -103t52 -76.5t77 -51.5t93.5 -30t102 -9q134 0 210.5 54.5t76.5 141.5q0 71 -47 109.5t-158 67.5l-235 61q-131 35 -193.5 93.5t-62.5 172.5q0 128 102 208.5t283 80.5q185 0 296 -93t111 -269h-110q0 127 -84 193.5t-221 66.5 q-130 0 -198.5 -51.5t-68.5 -131.5q0 -68 41.5 -106t143.5 -64l233 -59q142 -36 210.5 -96.5t68.5 -175.5q0 -137 -108 -221.5t-298 -84.5q-93 0 -172 22.5t-141 67t-97.5 117t-35.5 166.5z" />
<glyph unicode="&#x456;" horiz-adv-x="462" d="M176 0v1042h111v-1042h-111zM176 1219v225h111v-225h-111z" />
<glyph unicode="&#x457;" horiz-adv-x="462" d="M-8 1219v225h110v-225h-110zM176 0v1042h111v-1042h-111zM362 1219v225h111v-225h-111z" />
<glyph unicode="&#x458;" horiz-adv-x="462" d="M-59 -250q27 -2 53 -2q95 0 138.5 58t43.5 180v1056h111v-1056q0 -338 -283 -338q-27 0 -63 4v98zM176 1219v225h111v-225h-111z" />
<glyph unicode="&#x459;" horiz-adv-x="1738" d="M49 0v102h12q120 0 169 108t49 333v499h696v-378h375q144 0 230.5 -89t86.5 -245q0 -155 -86.5 -242.5t-230.5 -87.5h-486v944h-479v-399q0 -545 -309 -545h-27zM975 98h350q105 0 168 62.5t63 169.5q0 109 -63 172t-168 63h-350v-467z" />
<glyph unicode="&#x45a;" horiz-adv-x="1728" d="M176 0v1042h111v-405h579v405h111v-405h362q144 0 231 -85.5t87 -234.5t-86.5 -233t-231.5 -84h-473v539h-579v-539h-111zM977 98h336q106 0 169.5 59t63.5 160q0 102 -63 162t-168 60h-338v-441z" />
<glyph unicode="&#x45b;" horiz-adv-x="1183" d="M29 1126v91h168v227h110v-227h488v-91h-488v-407q68 76 163 126t206 50q157 0 256.5 -101.5t99.5 -287.5v-506h-110v492q0 150 -73 225.5t-192 75.5q-98 0 -190.5 -55t-159.5 -136v-602h-110v1126h-168z" />
<glyph unicode="&#x45c;" horiz-adv-x="1064" d="M176 0v1042h111v-469h211l366 469h92v-53l-358 -459l375 -477v-53h-101l-370 475h-215v-475h-111zM457 1208l219 287h115v-41l-222 -246h-112z" />
<glyph unicode="&#x45e;" horiz-adv-x="1021" d="M53 989v53h105l358 -895l354 895h103v-53l-541 -1317h-94v43l123 285zM205 1450v25h100v-23q0 -92 56 -142t155 -50q98 0 154.5 50.5t56.5 141.5v23h100v-25q0 -131 -86 -206t-225 -75q-140 0 -225.5 75t-85.5 206z" />
<glyph unicode="&#x45f;" horiz-adv-x="1179" d="M176 0v1042h111v-944h606v944h111v-1042h-359v-258h-110v258h-359z" />
<glyph unicode="&#x490;" horiz-adv-x="1128" d="M197 0v1434h727v266h110v-373h-719v-1327h-118z" />
<glyph unicode="&#x491;" horiz-adv-x="923" d="M176 0v1042h543v252h110v-350h-542v-944h-111z" />
<glyph unicode="&#x2013;" horiz-adv-x="1191" d="M133 590v102h926v-102h-926z" />
<glyph unicode="&#x2014;" horiz-adv-x="1671" d="M133 590v102h1405v-102h-1405z" />
<glyph unicode="&#x2018;" horiz-adv-x="442" d="M115 983v53l172 408h88l-139 -461h-121z" />
<glyph unicode="&#x2019;" horiz-adv-x="442" d="M68 987l139 461h121v-53l-172 -408h-88z" />
<glyph unicode="&#x201a;" horiz-adv-x="428" d="M68 -197l139 461h121v-53l-172 -408h-88z" />
<glyph unicode="&#x201c;" horiz-adv-x="792" d="M115 983v53l172 408h88l-139 -461h-121zM465 983v53l172 408h88l-139 -461h-121z" />
<glyph unicode="&#x201d;" horiz-adv-x="792" d="M68 983l139 461h121v-53l-172 -408h-88zM418 983l139 461h121v-53l-172 -408h-88z" />
<glyph unicode="&#x201e;" horiz-adv-x="792" d="M68 -197l139 461h121v-53l-172 -408h-88zM418 -197l139 461h121v-53l-172 -408h-88z" />
<glyph unicode="&#x2020;" horiz-adv-x="1079" d="M74 915v99h411v430h111v-430h412v-99h-412v-1243h-111v1243h-411z" />
<glyph unicode="&#x2021;" horiz-adv-x="1079" d="M74 319v99h411v497h-411v99h411v430h111v-430h412v-99h-412v-497h412v-99h-412v-647h-111v647h-411z" />
<glyph unicode="&#x2022;" horiz-adv-x="743" d="M135 649v13q0 113 63 173t175 60q111 0 174 -60.5t63 -172.5v-13q0 -111 -63.5 -172t-173.5 -61q-112 0 -175 60t-63 173z" />
<glyph unicode="&#x2026;" horiz-adv-x="1343" d="M162 0v264h119v-264h-119zM612 0v264h119v-264h-119zM1063 0v264h119v-264h-119z" />
<glyph unicode="&#x2030;" horiz-adv-x="2244" d="M94 1010v164q0 134 78 212t221 78q144 0 221.5 -78t77.5 -212v-164q0 -135 -77.5 -213t-221.5 -78q-143 0 -221 78.5t-78 212.5zM193 1001q0 -86 52.5 -140t147.5 -54q97 0 149 55t52 139v181q0 86 -52 140t-149 54q-95 0 -147.5 -54t-52.5 -140v-181zM330 0v41l805 1393 h96v-41l-807 -1393h-94zM870 260v164q0 134 78 212.5t221 78.5q144 0 222.5 -78.5t78.5 -212.5v-164q0 -134 -78.5 -212.5t-222.5 -78.5q-143 0 -221 78.5t-78 212.5zM969 252q0 -86 53 -140.5t147 -54.5q97 0 150 55.5t53 139.5v180q0 86 -52.5 140.5t-150.5 54.5 q-94 0 -147 -54.5t-53 -140.5v-180zM1552 260v164q0 134 78 212.5t221 78.5q144 0 222.5 -78.5t78.5 -212.5v-164q0 -134 -78.5 -212.5t-222.5 -78.5q-143 0 -221 78.5t-78 212.5zM1651 252q0 -86 53 -140.5t147 -54.5q97 0 150 55.5t53 139.5v180q0 86 -52.5 140.5 t-150.5 54.5q-94 0 -147 -54.5t-53 -140.5v-180z" />
<glyph unicode="&#x2039;" horiz-adv-x="671" d="M94 551l348 422h99v-45l-314 -377l314 -377v-45h-99z" />
<glyph unicode="&#x203a;" horiz-adv-x="671" d="M131 129v45l313 377l-313 377v45h98l349 -422l-349 -422h-98z" />
<glyph unicode="&#x2044;" horiz-adv-x="720" d="M-90 0v41l805 1393h96v-41l-807 -1393h-94z" />
<glyph unicode="&#x20ac;" horiz-adv-x="1368" d="M61 500v102h175v227h-175v103h175v39q0 231 136.5 362t370.5 131q99 0 186.5 -30t156 -88t108 -151t39.5 -210v-20h-107v20q0 92 -31 165.5t-84.5 119t-121.5 69t-146 23.5q-185 0 -291 -103.5t-106 -287.5v-39h506v-103h-506v-227h506v-102h-506v-37q0 -184 106 -287.5 t291 -103.5q108 0 193 40.5t137.5 127t52.5 209.5v20h107v-20q0 -117 -38.5 -210t-106 -151t-155.5 -88.5t-190 -30.5q-234 0 -370.5 131.5t-136.5 362.5v37h-175z" />
<glyph unicode="&#x2122;" horiz-adv-x="1398" d="M27 1348v86h501v-86h-204v-592h-93v592h-204zM664 756v678h86l219 -322l223 322h88v-678h-94v518l-185 -270h-63l-182 266v-514h-92z" />
<glyph unicode="&#x2202;" horiz-adv-x="1116" d="M98 317q0 31 19 230q17 181 123.5 283t277.5 102q116 0 206 -56t153 -139q1 17 4.5 89t3.5 104q-1 207 -98.5 312.5t-280.5 105.5q-113 0 -227 -31l8 100q108 31 243 31q225 0 341 -134t116 -372q0 -104 -43 -582q-14 -174 -133.5 -279.5t-318.5 -105.5q-183 0 -288.5 94 t-105.5 248zM209 338q0 -116 76 -188t217 -72q148 0 233.5 79.5t98.5 209.5l26 280q-150 182 -325 182q-133 0 -214.5 -78.5t-95.5 -211.5q-16 -156 -16 -201z" />
<glyph unicode="&#x2206;" horiz-adv-x="1339" d="M53 0v41l555 1393h121l557 -1393v-41h-1233zM201 106h929l-462 1170z" />
<glyph unicode="&#x220f;" horiz-adv-x="1386" d="M197 -154v1588h993v-1588h-111v1485h-772v-1485h-110z" />
<glyph unicode="&#x2211;" horiz-adv-x="1128" d="M115 -49l393 698l-393 682v103h874v-103h-749l399 -682l-399 -698h774v-103h-899v103z" />
<glyph unicode="&#x221a;" horiz-adv-x="1171" d="M14 733v103h299l310 -820l424 1616h100v-41l-457 -1745h-110l-344 887h-222z" />
<glyph unicode="&#x221e;" horiz-adv-x="1767" d="M135 649q0 163 94.5 268t249.5 105q55 0 103 -17t96.5 -55.5t88 -80.5t97.5 -111l21 -25l20 25q58 70 96 110.5t86.5 80t97 56.5t103.5 17q155 0 249.5 -105t94.5 -268q0 -164 -94.5 -268.5t-249.5 -104.5q-108 0 -195.5 64t-189.5 201l-18 24l-19 -24q-68 -91 -124 -146 t-122.5 -88t-140.5 -33q-155 0 -249.5 105t-94.5 270zM246 647q0 -120 65.5 -194t171.5 -74q43 0 81 15.5t78 52t72 73t83 101.5l20 26l-33 39q-40 48 -55.5 66t-47.5 52.5t-49.5 47.5t-44.5 31t-51.5 24t-52.5 6q-105 0 -171 -74.5t-66 -191.5zM950 647l21 -26 q98 -128 166 -185t149 -57q105 0 171.5 74.5t66.5 193.5q0 117 -67 191.5t-171 74.5q-34 0 -67.5 -13t-57.5 -28t-62.5 -55t-58 -62.5t-69.5 -82.5z" />
<glyph unicode="&#x222b;" horiz-adv-x="665" d="M-12 -229h65q107 0 166.5 60.5t59.5 174.5v1096q0 154 85.5 243t231.5 89h82v-99h-66q-106 0 -165.5 -60.5t-59.5 -174.5v-1096q0 -154 -85.5 -243t-231.5 -89h-82v99z" />
<glyph unicode="&#x2248;" horiz-adv-x="976" d="M111 387q70 103 118 145.5t107 42.5q69 0 141 -55l49 -37q61 -47 115 -47q33 0 63.5 27.5t92.5 109.5l69 -53q-65 -102 -115.5 -145t-111.5 -43q-67 0 -137 51l-51 39q-35 27 -58 38t-49 11q-40 0 -70 -26.5t-96 -110.5zM111 764q70 103 118 145.5t107 42.5q69 0 141 -55 l49 -37q61 -47 115 -47q33 0 63.5 27.5t92.5 109.5l69 -53q-65 -102 -115.5 -145t-111.5 -43q-67 0 -137 51l-51 39q-35 27 -58 38t-49 11q-40 0 -70 -26.5t-96 -110.5z" />
<glyph unicode="&#x2260;" horiz-adv-x="1144" d="M135 0v41l205 332h-205v94h264l217 350h-481v94h539l221 351h90v-41l-192 -310h192v-94h-250l-219 -350h469v-94h-528l-230 -373h-92z" />
<glyph unicode="&#x2264;" horiz-adv-x="995" d="M111 43v94h774v-94h-774zM111 666v92l714 368h60v-73l-654 -340l654 -342v-74h-60z" />
<glyph unicode="&#x2265;" horiz-adv-x="995" d="M111 43v94h774v-94h-774zM111 297v74l653 342l-653 340v73h59l715 -368v-92l-715 -369h-59z" />
<glyph unicode="&#x25ca;" horiz-adv-x="1099" d="M115 717l393 717h88l391 -717l-393 -717h-86zM233 717l318 -582l317 582l-317 581z" />
<glyph unicode="&#x25fc;" horiz-adv-x="1044" d="M0 0v1044h1044v-1044h-1044z" />
</font>
</defs>
</svg>
