<?xml version="1.0" standalone="no"?>
<!DOCTYPE svg PUBLIC "-//W3C//DTD SVG 1.1//EN" "http://www.w3.org/Graphics/SVG/1.1/DTD/svg11.dtd" >
<svg>
<metadata>
Created by FontForge 20090622 at Sat May 21 15:32:45 2016
 By deploy user
Copyright (c) 2013 by Gayane Bagdasaryan, Dmitry Rastvortsev. All rights reserved.
</metadata>
<defs>
<font id="BrutalType-Medium" horiz-adv-x="1413" >
  <font-face 
    font-family="Brutal Type"
    font-weight="500"
    font-stretch="normal"
    units-per-em="2048"
    panose-1="2 0 6 3 2 0 0 2 0 4"
    ascent="1647"
    descent="-401"
    x-height="1065"
    cap-height="1434"
    bbox="-102 -352 2263 1956"
    underline-thickness="102"
    underline-position="-102"
    unicode-range="U+000D-U+FB02"
  />
<missing-glyph horiz-adv-x="748" 
d="M68 0v1365h544v-1365h-544zM136 68h408v1229h-408v-1229z" />
    <glyph glyph-name="uniFB01" unicode="fi" horiz-adv-x="1259" 
d="M31 868v197h164v4q0 178 96.5 278.5t298.5 100.5q22 0 76 -4v-197h-48q-105 0 -151.5 -42t-46.5 -136v-4h676v-1065h-226v868h-450v-868h-225v868h-164zM870 1219v225h226v-225h-226z" />
    <glyph glyph-name="uniFB02" unicode="fl" horiz-adv-x="1259" 
d="M31 868v197h164q0 180 96.5 281.5t298.5 101.5q22 0 76 -4v-197h-48q-106 0 -152 -42.5t-46 -139.5h231v-197h-231v-868h-225v868h-164zM870 0v1444h226v-1444h-226z" />
    <glyph glyph-name=".notdef" horiz-adv-x="748" 
d="M68 0v1365h544v-1365h-544zM136 68h408v1229h-408v-1229z" />
    <glyph glyph-name="glyph1" horiz-adv-x="2048" 
 />
    <glyph glyph-name="glyph1" horiz-adv-x="2048" 
 />
    <glyph glyph-name="uni000D" unicode="&#xd;" horiz-adv-x="2048" 
 />
    <glyph glyph-name="space" unicode=" " horiz-adv-x="491" 
 />
    <glyph glyph-name="exclam" unicode="!" horiz-adv-x="606" 
d="M184 0v252h238v-252h-238zM190 451v983h226v-983h-226z" />
    <glyph glyph-name="quotedbl" unicode="&#x22;" horiz-adv-x="821" 
d="M102 1352v92h246v-92l-41 -418h-164zM473 1352v92h246v-92l-41 -418h-164z" />
    <glyph glyph-name="numbersign" unicode="#" horiz-adv-x="1402" 
d="M82 344v205h219l70 336h-197v205h240l71 344h201v-82l-55 -262h295l71 344h201v-82l-55 -262h178v-205h-221l-70 -336h199v-205h-240l-71 -344h-201v82l53 262h-293l-71 -344h-201v82l53 262h-176zM518 549h295l70 336h-295z" />
    <glyph glyph-name="dollar" unicode="$" horiz-adv-x="1232" 
d="M92 465h225q0 -147 83.5 -219t222.5 -72q117 0 183 54.5t66 146.5q0 83 -63 127q-52 39 -147 80l-115 49q-154 67 -185 84q-66 37 -122 82q-60 50 -84.5 112t-24.5 152q0 159 103 266.5t274 130.5v187h225v-193q154 -35 258 -154q107 -119 107 -317h-226q0 143 -72 211
t-200 68q-106 0 -172 -52t-66 -137q0 -60 41 -117q17 -20 58 -43l69 -37l21.5 -8t35 -14t40.5 -16l116 -50q185 -76 277 -161q90 -84 90 -232q0 -168 -97.5 -279t-279.5 -137v-217h-225v215q-183 21 -299 146q-117 126 -117 344z" />
    <glyph glyph-name="percent" unicode="%" horiz-adv-x="1622" 
d="M82 1038v115q0 149 83.5 230t233.5 81t234 -81.5t84 -229.5v-115q0 -148 -84 -229.5t-234 -81.5t-233.5 81t-83.5 230zM281 1008q0 -52 32 -85.5t86 -33.5t86.5 33.5t32.5 85.5v176q0 52 -32.5 85.5t-86.5 33.5t-86 -33.5t-32 -85.5v-176zM307 0v82l830 1352h174v-82
l-830 -1352h-174zM905 281v114q0 149 84 230.5t234 81.5t233.5 -81.5t83.5 -230.5v-114q0 -149 -83.5 -230.5t-233.5 -81.5t-234 81.5t-84 230.5zM1104 250q0 -52 32.5 -85.5t86.5 -33.5t86 33.5t32 85.5v176q0 52 -32 85.5t-86 33.5t-86.5 -33.5t-32.5 -85.5v-176z" />
    <glyph glyph-name="ampersand" unicode="&#x26;" horiz-adv-x="1402" 
d="M102 362q0 115 50 201q53 90 176 189l30 24l-28 29q0 1 -29 33q-22 25 -57 71q-9 12 -16 24.5t-10.5 19.5t-10.5 23l-10 23q-19 47 -19 115q0 148 105 240q104 94 266 94q160 0 256 -90t96 -244q0 -164 -162 -295l-65 -53l291 -297q49 122 49 279h213q0 -247 -107 -439
l201 -203v-106h-199l-135 135q-171 -160 -416 -160q-217 0 -342 107q-127 109 -127 280zM328 385q0 -92 69 -149.5t181 -57.5q157 0 266 103l-340 348l-74 -60q-102 -79 -102 -184zM403 1112q0 -42 17 -72.5t65 -78.5l45 -48l70 56q84 69 84 153q0 56 -40 90.5t-97 34.5
q-66 0 -105 -36.5t-39 -98.5z" />
    <glyph glyph-name="quotesingle" unicode="'" horiz-adv-x="450" 
d="M102 1352v92h246v-92l-41 -418h-164z" />
    <glyph glyph-name="parenleft" unicode="(" horiz-adv-x="645" 
d="M184 66v1110q0 185 100.5 289t278.5 104v-205q-70 0 -111.5 -49.5t-41.5 -126.5v-1135q0 -77 41.5 -126.5t111.5 -49.5v-205q-177 0 -278 104t-101 290z" />
    <glyph glyph-name="parenright" unicode=")" horiz-adv-x="645" 
d="M82 -123q71 0 112.5 49.5t41.5 126.5v1135q0 77 -41.5 126.5t-112.5 49.5v205q178 0 278.5 -104t100.5 -289v-1110q0 -186 -101 -290t-278 -104v205z" />
    <glyph glyph-name="asterisk" unicode="*" horiz-adv-x="911" 
d="M82 950l227 113l-227 113l88 155l211 -141l-14 254h178l-17 -254l213 141l88 -155l-229 -113l229 -113l-88 -155l-213 141l17 -254h-178l14 254l-211 -141z" />
    <glyph glyph-name="plus" unicode="+" horiz-adv-x="1146" 
d="M123 547v188h348v350h205v-350h348v-188h-348v-350h-205v350h-348z" />
    <glyph glyph-name="comma" unicode="," horiz-adv-x="544" 
d="M74 -231l96 510h250v-107l-168 -403h-178z" />
    <glyph glyph-name="hyphen" unicode="-" horiz-adv-x="905" 
d="M123 539v204h659v-204h-659z" />
    <glyph glyph-name="period" unicode="." horiz-adv-x="563" 
d="M143 0v279h277v-279h-277z" />
    <glyph glyph-name="slash" unicode="/" horiz-adv-x="952" 
d="M82 -123l588 1692h200v-82l-587 -1692h-201v82z" />
    <glyph glyph-name="zero" unicode="0" horiz-adv-x="1249" 
d="M143 465v504q0 232 129 363.5t353 131.5t352.5 -131.5t128.5 -363.5v-504q0 -232 -128.5 -364t-352.5 -132t-353 132t-129 364zM369 453q0 -125 68 -202t188 -77t188 77t68 202v528q0 125 -68 202t-188 77t-188 -77t-68 -202v-528z" />
    <glyph glyph-name="one" unicode="1" horiz-adv-x="641" 
d="M82 1128v119l285 187h90v-1434h-226v1128h-149z" />
    <glyph glyph-name="two" unicode="2" horiz-adv-x="1148" 
d="M102 0v184l433 439q147 150 202 227q54 79 54 172q0 106 -60.5 172t-169.5 66q-120 0 -181 -74.5t-63 -206.5h-215q3 227 129 356t330 129q215 0 334 -125q121 -127 121 -309q0 -147 -74 -262q-66 -104 -237 -272l-297 -291h614v-205h-920z" />
    <glyph glyph-name="three" unicode="3" horiz-adv-x="1198" 
d="M98 455h217q5 -127 78.5 -204t200.5 -77q126 0 191 67t65 185q0 102 -66.5 158.5t-185.5 56.5h-100v205h86q111 0 170 51t59 152q0 92 -56.5 151.5t-166.5 59.5q-119 0 -181.5 -73.5t-64.5 -201.5h-215q1 228 122.5 353.5t336.5 125.5q209 0 327 -112q119 -110 119 -281
q0 -209 -184 -317q99 -36 162 -130t63 -216q0 -205 -129.5 -322t-357.5 -117q-224 0 -356.5 129.5t-133.5 356.5z" />
    <glyph glyph-name="four" unicode="4" horiz-adv-x="1132" 
d="M61 283v174l500 977h199v-82l-443 -865h379v355h226v-355h170v-204h-170v-283h-226v283h-635z" />
    <glyph glyph-name="five" unicode="5" horiz-adv-x="1218" 
d="M127 393h221q14 -99 86.5 -159t181.5 -60q126 0 190 80.5t64 228.5q0 135 -67 215t-180 80q-146 0 -228 -116h-223l72 772h772v-205h-588l-33 -344q122 78 269 78q187 0 309 -119q123 -117 123 -361q0 -243 -130 -378.5t-354 -135.5q-204 0 -333 112t-152 312z" />
    <glyph glyph-name="six" unicode="6" horiz-adv-x="1208" 
d="M123 465q0 150 139 377l371 592h207v-82l-305 -471q79 28 167 28q175 0 287 -118q117 -117 117 -326q0 -232 -132 -364t-360 -132t-359.5 132t-131.5 364zM348 453q0 -129 69.5 -204t196.5 -75t197 75t70 204q0 131 -67.5 202.5t-199.5 71.5q-131 0 -198.5 -72
t-67.5 -202z" />
    <glyph glyph-name="seven" unicode="7" horiz-adv-x="1103" 
d="M82 1024v410h919v-191l-469 -1243h-202v82l438 1147h-477v-205h-209z" />
    <glyph glyph-name="eight" unicode="8" horiz-adv-x="1257" 
d="M123 401q0 121 66.5 218t166.5 133q-194 114 -194 317q0 169 123 283q124 112 344 112q221 0 342 -112q125 -113 125 -283q0 -203 -193 -317q95 -35 164 -131q68 -95 68 -220q0 -201 -134.5 -316.5t-371.5 -115.5t-371.5 115.5t-134.5 316.5zM350 418q0 -112 73 -180
t206 -68t205.5 68t72.5 180q0 102 -77 173t-201 71t-201.5 -71.5t-77.5 -172.5zM385 1053q0 -98 67.5 -158.5t176.5 -60.5t176 60.5t67 158.5q0 99 -62 157t-181 58q-116 0 -180 -58t-64 -157z" />
    <glyph glyph-name="nine" unicode="9" horiz-adv-x="1208" 
d="M102 969q0 232 132 363.5t360 131.5t359.5 -131.5t131.5 -363.5q0 -150 -139 -377l-371 -592h-206v82l305 471q-82 -29 -168 -29q-172 0 -289 117q-115 121 -115 328zM328 981q0 -131 67.5 -202.5t198.5 -71.5t198.5 72t67.5 202q0 129 -69.5 204t-196.5 75t-196.5 -75
t-69.5 -204z" />
    <glyph glyph-name="colon" unicode=":" horiz-adv-x="563" 
d="M143 0v279h277v-279h-277zM143 786v279h277v-279h-277z" />
    <glyph glyph-name="semicolon" unicode=";" horiz-adv-x="555" 
d="M74 -231l96 510h250v-107l-168 -403h-178zM154 786v279h276v-279h-276z" />
    <glyph glyph-name="less" unicode="&#x3c;" horiz-adv-x="1064" 
d="M123 557v184l711 373h108v-160l-596 -305l596 -305v-160h-108z" />
    <glyph glyph-name="equal" unicode="=" horiz-adv-x="1146" 
d="M123 326v188h901v-188h-901zM123 768v188h901v-188h-901z" />
    <glyph glyph-name="greater" unicode="&#x3e;" horiz-adv-x="1064" 
d="M123 184v160l596 305l-596 305v160h108l711 -373v-184l-711 -373h-108z" />
    <glyph glyph-name="question" unicode="?" horiz-adv-x="1064" 
d="M61 987q0 222 134 350q133 127 342 127q213 0 329 -116q117 -117 117 -285q0 -119 -65 -219q-18 -33 -72 -80q-47 -44 -74 -62l-78 -51l-71 -49v-151h-226v229l191 135q2 2 74 53q19 13 49 47q28 29 37.5 61t9.5 83q0 86 -58.5 143.5t-162.5 57.5q-122 0 -191.5 -73
t-69.5 -200h-215zM391 0v252h238v-252h-238z" />
    <glyph glyph-name="at" unicode="@" horiz-adv-x="2039" 
d="M143 578q0 399 248 641q248 245 647 245q369 0 613 -221q245 -217 245 -584q0 -245 -108 -389q-107 -143 -289 -143q-191 0 -264 143q-101 -143 -283 -143q-145 0 -238 90t-93 246v229q0 156 92.5 246t238.5 90q173 0 273 -133l82 113h96v-576q0 -123 115 -123
q188 0 188 350q0 288 -193 463q-192 174 -475 174q-312 0 -508 -196q-194 -197 -194 -520q0 -324 194 -521q196 -196 508 -196h52v-172h-52q-397 0 -645 248q-250 250 -250 639zM815 496q0 -79 52 -133t126 -54q127 0 215 105v317q-47 61 -94 88t-121 27t-126 -54t-52 -133
v-163z" />
    <glyph glyph-name="A" unicode="A" horiz-adv-x="1347" 
d="M41 0v82l512 1352h242l512 -1352v-82h-242l-127 354h-541l-129 -354h-227zM471 559h393l-194 547z" />
    <glyph glyph-name="B" unicode="B" horiz-adv-x="1355" 
d="M184 0v1434h604q195 0 302.5 -98.5t107.5 -286.5q0 -218 -172 -306q227 -82 227 -346q0 -194 -106.5 -295.5t-302.5 -101.5h-660zM430 215h373q205 0 205 197q0 202 -205 202h-373v-399zM430 819h318q202 0 202 201q0 199 -202 199h-318v-400z" />
    <glyph glyph-name="C" unicode="C" horiz-adv-x="1351" 
d="M143 485v463q0 246 145.5 381t411.5 135q228 0 377 -125q152 -128 152 -370v-21h-246v21q0 133 -88 200q-88 70 -197 70q-153 0 -231 -71t-78 -203v-496q0 -132 78 -203t231 -71q109 0 197 67q88 70 88 203v20h246v-20q0 -243 -152 -371q-149 -125 -377 -125
q-266 0 -411.5 135t-145.5 381z" />
    <glyph glyph-name="D" unicode="D" horiz-adv-x="1402" 
d="M184 0v1434h512q261 0 412.5 -131.5t151.5 -364.5v-442q0 -233 -151.5 -364.5t-412.5 -131.5h-512zM430 215h266q147 0 232.5 75.5t85.5 198.5v455q0 123 -85.5 199t-232.5 76h-266v-1004z" />
    <glyph glyph-name="E" unicode="E" horiz-adv-x="1208" 
d="M184 0v1434h920v-215h-674v-398h578v-205h-578v-401h676v-215h-922z" />
    <glyph glyph-name="F" unicode="F" horiz-adv-x="1198" 
d="M184 0v1434h932v-215h-686v-412h588v-205h-588v-602h-246z" />
    <glyph glyph-name="G" unicode="G" 
d="M143 479v469q0 244 149.5 380t418.5 136q228 0 383 -125t155 -362v-8h-245v8q0 119 -82 190.5t-222 71.5q-143 0 -227 -73.5t-84 -200.5v-486q0 -134 80.5 -209t222.5 -75q100 0 184 46.5t128 127.5v184h-283v205h528v-758h-133l-74 135q-135 -166 -364 -166
q-251 0 -393 134.5t-142 375.5z" />
    <glyph glyph-name="H" unicode="H" horiz-adv-x="1454" 
d="M184 0v1434h246v-609h594v609h246v-1434h-246v610h-594v-610h-246z" />
    <glyph glyph-name="I" unicode="I" horiz-adv-x="614" 
d="M184 0v1434h246v-1434h-246z" />
    <glyph glyph-name="J" unicode="J" horiz-adv-x="1187" 
d="M41 424v61h246v-61q0 -229 245 -229q111 0 178.5 60t67.5 177v1002h246v-1010q0 -231 -137 -344q-135 -111 -355 -111q-235 0 -363 112t-128 343z" />
    <glyph glyph-name="K" unicode="K" horiz-adv-x="1284" 
d="M184 0v1434h246v-609h182l375 609h227v-82l-387 -621l416 -649v-82h-242l-389 610h-182v-610h-246z" />
    <glyph glyph-name="L" unicode="L" horiz-adv-x="1157" 
d="M184 0v1434h246v-1219h686v-215h-932z" />
    <glyph glyph-name="M" unicode="M" horiz-adv-x="1658" 
d="M184 0v1434h238l412 -670l411 670h230v-1434h-238v997l-328 -534h-157l-330 534v-997h-238z" />
    <glyph glyph-name="N" unicode="N" horiz-adv-x="1454" 
d="M184 0v1434h226l614 -977v977h246v-1434h-226l-614 977v-977h-246z" />
    <glyph glyph-name="O" unicode="O" 
d="M143 485v463q0 241 151.5 378.5t412.5 137.5q260 0 411.5 -137.5t151.5 -378.5v-463q0 -241 -151.5 -378.5t-411.5 -137.5q-261 0 -412.5 137.5t-151.5 378.5zM389 473q0 -125 84 -201.5t234 -76.5t233.5 76.5t83.5 201.5v488q0 125 -83.5 201.5t-233.5 76.5t-234 -76.5
t-84 -201.5v-488z" />
    <glyph glyph-name="P" unicode="P" horiz-adv-x="1300" 
d="M184 0v1434h621q188 0 295.5 -118.5t107.5 -322.5q0 -203 -107.5 -321.5t-295.5 -118.5h-375v-553h-246zM430 768h332q87 0 141.5 59.5t54.5 165.5t-54.5 166t-141.5 60h-332v-451z" />
    <glyph glyph-name="Q" unicode="Q" 
d="M143 485v463q0 241 151.5 378.5t412.5 137.5q260 0 411.5 -137.5t151.5 -378.5v-463q0 -253 -168 -393l168 -252v-84h-238l-153 232q-87 -19 -172 -19q-261 0 -412.5 137.5t-151.5 378.5zM389 473q0 -125 84 -201.5t234 -76.5t233.5 76.5t83.5 201.5v488
q0 125 -83.5 201.5t-233.5 76.5t-234 -76.5t-84 -201.5v-488z" />
    <glyph glyph-name="R" unicode="R" horiz-adv-x="1351" 
d="M184 0v1434h617q208 0 320 -115.5t112 -325.5q0 -144 -64.5 -252t-187.5 -161l268 -498v-82h-241l-295 551h-283v-551h-246zM430 760h326q227 0 227 229q0 230 -227 230h-326v-459z" />
    <glyph glyph-name="S" unicode="S" horiz-adv-x="1314" 
d="M92 465h246q0 -99 53 -164q93 -106 273 -106q126 0 197 51t71 135q0 76 -68 117q-64 41 -246 110l-18 6l-33 13q-232 88 -336 172q-100 84 -100 248q0 190 137 303q138 114 379 114q250 0 391.5 -121t141.5 -362h-246q0 129 -79 193.5t-210 64.5q-120 0 -193 -49
t-73 -125q0 -85 63 -125q61 -38 246 -104l29 -11q110 -38 184 -71q70 -30 146 -82q145 -99 145 -279q0 -193 -142.5 -308.5t-400.5 -115.5q-239 0 -399 127q-158 131 -158 369z" />
    <glyph glyph-name="T" unicode="T" horiz-adv-x="1159" 
d="M41 1219v215h1077v-215h-416v-1219h-245v1219h-416z" />
    <glyph glyph-name="U" unicode="U" 
d="M164 467v967h246v-979q0 -116 79 -188t218 -72t218 72t79 188v979h245v-967q0 -235 -147 -367q-143 -131 -395 -131t-398 131q-145 133 -145 367z" />
    <glyph glyph-name="V" unicode="V" horiz-adv-x="1349" 
d="M41 1352v82h235l404 -1106l395 1106h234v-82l-512 -1352h-242z" />
    <glyph glyph-name="W" unicode="W" horiz-adv-x="1703" 
d="M82 1352v82h242l211 -1041l245 672h156l250 -678l207 1047h229v-82l-287 -1352h-229l-254 688l-254 -688h-229z" />
    <glyph glyph-name="X" unicode="X" horiz-adv-x="1327" 
d="M61 0v82l449 659l-414 611v82h250l318 -500l331 500h236v-82l-418 -609l453 -661v-82h-250l-359 545l-360 -545h-236z" />
    <glyph glyph-name="Y" unicode="Y" horiz-adv-x="1257" 
d="M20 1352v82h242l369 -635l381 635h225v-82l-485 -774v-578h-246v567z" />
    <glyph glyph-name="Z" unicode="Z" horiz-adv-x="1200" 
d="M82 0v213l733 1006h-702v215h985v-211l-736 -1008h756v-215h-1036z" />
    <glyph glyph-name="bracketleft" unicode="[" horiz-adv-x="686" 
d="M184 -328v1897h420v-205h-194v-1487h194v-205h-420z" />
    <glyph glyph-name="backslash" unicode="\" horiz-adv-x="952" 
d="M82 1487v82h201l587 -1692v-82h-200z" />
    <glyph glyph-name="bracketright" unicode="]" horiz-adv-x="686" 
d="M82 -123h194v1487h-194v205h420v-1897h-420v205z" />
    <glyph glyph-name="asciicircum" unicode="^" horiz-adv-x="1075" 
d="M123 793v81l317 570h191l321 -570v-81h-192l-225 397l-220 -397h-192z" />
    <glyph glyph-name="underscore" unicode="_" horiz-adv-x="1140" 
d="M-2 -78h1145v-188h-1145v188z" />
    <glyph glyph-name="grave" unicode="`" horiz-adv-x="612" 
d="M123 1417v78h203l163 -287h-182z" />
    <glyph glyph-name="a" unicode="a" horiz-adv-x="1144" 
d="M92 289q0 167 111 254.5t329 87.5h234v84q0 170 -201 170q-96 0 -148 -41.5t-52 -110.5h-220q0 165 108.5 261t311.5 96q206 0 316 -97t110 -264v-729h-131l-86 119q-120 -144 -325 -144q-158 0 -257.5 84t-99.5 230zM317 313q0 -133 177 -133q157 0 272 121v158h-234
q-215 0 -215 -146z" />
    <glyph glyph-name="b" unicode="b" horiz-adv-x="1206" 
d="M164 0v1444h225v-483q105 129 299 129q175 0 280 -102t105 -290v-331q0 -189 -108 -291q-107 -101 -269 -101q-197 0 -317 144l-84 -119h-131zM389 317q128 -137 258 -137q86 0 143.5 56t57.5 147v299q0 91 -56.5 147t-142.5 56q-132 0 -260 -137v-431z" />
    <glyph glyph-name="c" unicode="c" horiz-adv-x="1103" 
d="M117 371v323q0 183 120 289.5t324 106.5q201 0 317.5 -104.5t116.5 -287.5v-12h-225v12q0 86 -55 136.5t-154 50.5q-107 0 -163 -49.5t-56 -137.5v-331q0 -88 56 -137.5t163 -49.5q99 0 154 50.5t55 136.5v18h225v-14q0 -180 -121 -289q-119 -107 -313 -107
q-204 0 -324 106.5t-120 289.5z" />
    <glyph glyph-name="d" unicode="d" horiz-adv-x="1206" 
d="M133 367v331q0 188 105 290t280 102q194 0 299 -129v483h225v-1444h-131l-84 119q-120 -144 -317 -144q-163 0 -270 101t-107 291zM358 383q0 -91 57.5 -147t143.5 -56q130 0 258 137v431q-128 137 -260 137q-86 0 -142.5 -56t-56.5 -147v-299z" />
    <glyph glyph-name="e" unicode="e" horiz-adv-x="1126" 
d="M117 367v327q0 179 123 287q127 109 331 109q202 0 320.5 -105t118.5 -287v-239h-668v-88q0 -88 60 -139.5t169 -51.5q181 0 211 142h226q-17 -163 -131.5 -255t-305.5 -92q-210 0 -332 105t-122 287zM342 631h442v67q0 87 -58 137t-163 50t-163 -50t-58 -137v-67z" />
    <glyph glyph-name="f" unicode="f" horiz-adv-x="706" 
d="M31 868v197h164q0 180 96.5 281.5t298.5 101.5q22 0 76 -4v-197h-48q-106 0 -152 -42.5t-46 -139.5h231v-197h-231v-868h-225v868h-164z" />
    <glyph glyph-name="g" unicode="g" horiz-adv-x="1206" 
d="M133 475v223q0 190 107 291t270 101q197 0 317 -144l84 119h131v-1006q0 -200 -116.5 -305.5t-323.5 -105.5q-202 0 -322 94.5t-120 257.5h225q0 -61 57 -104t160 -43q215 0 215 200v160q-105 -129 -299 -129q-175 0 -280 102t-105 289zM358 487q0 -91 58 -144.5
t151 -53.5q132 0 250 133v330q-118 133 -250 133q-93 0 -151 -54t-58 -145v-199z" />
    <glyph glyph-name="h" unicode="h" horiz-adv-x="1216" 
d="M164 0v1444h225v-483q117 129 305 129q161 0 264 -109q105 -108 105 -295v-686h-225v666q0 106 -53 162.5t-142 56.5q-141 0 -254 -137v-748h-225z" />
    <glyph glyph-name="i" unicode="i" horiz-adv-x="552" 
d="M164 0v1065h225v-1065h-225zM164 1219v225h225v-225h-225z" />
    <glyph glyph-name="j" unicode="j" horiz-adv-x="555" 
d="M-27 -152h47q146 0 146 183v1034h225v-1034q0 -98 -31 -183q-31 -87 -113.5 -143.5t-199.5 -56.5q-24 0 -74 4v196zM166 1219v225h225v-225h-225z" />
    <glyph glyph-name="k" unicode="k" horiz-adv-x="1110" 
d="M164 0v1444h225v-801h141l281 422h186v-107l-266 -401l297 -451v-106h-203l-297 446h-139v-446h-225z" />
    <glyph glyph-name="l" unicode="l" horiz-adv-x="552" 
d="M164 0v1444h225v-1444h-225z" />
    <glyph glyph-name="m" unicode="m" horiz-adv-x="1804" 
d="M164 0v1065h131l84 -119q123 144 303 144q207 0 289 -166q132 166 340 166q161 0 250.5 -99.5t89.5 -279.5v-711h-226v686q0 96 -46.5 147.5t-123.5 51.5q-128 0 -235 -137v-748h-225v686q0 96 -46.5 147.5t-123.5 51.5q-132 0 -236 -137v-748h-225z" />
    <glyph glyph-name="n" unicode="n" horiz-adv-x="1216" 
d="M164 0v1065h131l84 -119q120 144 315 144q168 0 268.5 -108t100.5 -296v-686h-225v666q0 106 -53 162.5t-142 56.5q-141 0 -254 -137v-748h-225z" />
    <glyph glyph-name="o" unicode="o" horiz-adv-x="1142" 
d="M117 371v323q0 178 119.5 287t334.5 109t335 -109t120 -287v-323q0 -178 -120 -287t-335 -109t-334.5 109t-119.5 287zM342 381q0 -90 60.5 -145.5t168.5 -55.5t169 55.5t61 145.5v303q0 90 -61 145.5t-169 55.5t-168.5 -55.5t-60.5 -145.5v-303z" />
    <glyph glyph-name="p" unicode="p" horiz-adv-x="1206" 
d="M164 -328v1393h131l84 -119q120 144 317 144q162 0 269 -101q108 -102 108 -291v-331q0 -188 -105 -290t-280 -102q-194 0 -299 129v-432h-225zM389 317q128 -137 258 -137q86 0 143.5 56t57.5 147v299q0 91 -56.5 147t-142.5 56q-132 0 -260 -137v-431z" />
    <glyph glyph-name="q" unicode="q" horiz-adv-x="1206" 
d="M133 367v331q0 190 107 291t270 101q197 0 317 -144l84 119h131v-1393h-225v432q-105 -129 -299 -129q-175 0 -280 102t-105 290zM358 383q0 -91 57.5 -147t143.5 -56q130 0 258 137v431q-128 137 -260 137q-86 0 -142.5 -56t-56.5 -147v-299z" />
    <glyph glyph-name="r" unicode="r" horiz-adv-x="757" 
d="M164 0v1065h112l86 -119q126 144 293 144h41v-216h-30q-178 0 -277 -114v-760h-225z" />
    <glyph glyph-name="s" unicode="s" horiz-adv-x="1132" 
d="M102 367h226q0 -87 70.5 -137t189.5 -50q91 0 143.5 31.5t52.5 85.5q0 81 -116 111l-277 71q-125 33 -190.5 99t-65.5 184q0 149 113.5 238.5t308.5 89.5q201 0 317.5 -99.5t116.5 -281.5h-225q0 84 -60.5 130t-162.5 46q-89 0 -136 -31t-47 -82q0 -72 117 -102l275 -68
q258 -64 258 -287q0 -150 -121 -245t-320 -95q-216 0 -341.5 104t-125.5 288z" />
    <glyph glyph-name="t" unicode="t" horiz-adv-x="776" 
d="M41 868v197h164v221h225v-221h254v-197h-254v-489q0 -182 145 -182h109v-197h-109q-370 0 -370 381v487h-164z" />
    <glyph glyph-name="u" unicode="u" horiz-adv-x="1210" 
d="M154 379v686h225v-666q0 -106 52.5 -162.5t139.5 -56.5q137 0 250 137v748h226v-1065h-132l-86 119q-120 -144 -311 -144q-166 0 -265 107.5t-99 296.5z" />
    <glyph glyph-name="v" unicode="v" horiz-adv-x="1044" 
d="M41 958v107h209l280 -758l269 758h205v-107l-379 -958h-205z" />
    <glyph glyph-name="w" unicode="w" horiz-adv-x="1470" 
d="M92 958v107h205l170 -758l192 565h154l193 -565l170 758h202v-107l-233 -958h-213l-195 520l-196 -520h-217z" />
    <glyph glyph-name="x" unicode="x" horiz-adv-x="1075" 
d="M82 0v106l313 426l-309 426v107h203l248 -360l249 360h191v-107l-303 -417l319 -435v-106h-200l-261 379l-258 -379h-192z" />
    <glyph glyph-name="y" unicode="y" horiz-adv-x="1046" 
d="M41 958v107h209l280 -758l269 758h207v-107l-508 -1286h-185v82l107 246z" />
    <glyph glyph-name="z" unicode="z" horiz-adv-x="1081" 
d="M102 0v197l562 671h-543v197h813v-197l-565 -671h589v-197h-856z" />
    <glyph glyph-name="braceleft" unicode="{" horiz-adv-x="692" 
d="M61 530v205h54q116 0 116 162v279q0 185 100.5 289t278.5 104v-205q-70 0 -111.5 -49.5t-41.5 -126.5v-350q0 -147 -125 -205q125 -58 125 -205v-375q0 -77 41.5 -126.5t111.5 -49.5v-205q-177 0 -278 104t-101 290v303q0 161 -116 161h-54z" />
    <glyph glyph-name="bar" unicode="|" horiz-adv-x="593" 
d="M184 -205v1774h226v-1774h-226z" />
    <glyph glyph-name="braceright" unicode="}" horiz-adv-x="692" 
d="M82 -123q71 0 112.5 49.5t41.5 126.5v375q0 147 124 205q-124 58 -124 205v350q0 77 -41.5 126.5t-112.5 49.5v205q178 0 278.5 -104t100.5 -289v-279q0 -162 117 -162h53v-205h-53q-117 0 -117 -161v-303q0 -186 -101 -290t-278 -104v205z" />
    <glyph glyph-name="asciitilde" unicode="~" horiz-adv-x="1005" 
d="M82 578q117 225 252 225q88 0 162 -51l36 -25q70 -49 109 -49q32 0 60 24.5t69 90.5l154 -93q-120 -225 -252 -225q-77 0 -135 37l-45 27q-8 4 -35 20.5t-35 20.5q-28 20 -57 20q-32 0 -60 -24.5t-69 -90.5z" />
    <glyph glyph-name="exclamdown" unicode="&#xa1;" horiz-adv-x="606" 
d="M184 813v252h238v-252h-238zM190 -328v955h226v-955h-226z" />
    <glyph glyph-name="cent" unicode="&#xa2;" horiz-adv-x="1116" 
d="M117 547v323q0 159 96.5 263t263.5 127v174h164v-172q171 -19 269 -121.5t98 -266.5v-12h-226v12q0 68 -39.5 117t-107.5 62v-691q147 34 147 181v18h226v-14q0 -160 -100 -265.5t-267 -125.5v-156h-164v158q-168 23 -264 126.5t-96 262.5zM342 543q0 -141 141 -176v684
q-141 -37 -141 -177v-331z" />
    <glyph glyph-name="sterling" unicode="&#xa3;" horiz-adv-x="1185" 
d="M82 0v205h143v416h-143v204h143v244q0 183 120 289t325 106q203 0 318.5 -108t115.5 -303v-74h-225v74q0 98 -54.5 152.5t-154.5 54.5q-107 0 -163 -49.5t-56 -137.5v-248h294v-204h-294v-416h653v-205h-1022z" />
    <glyph glyph-name="yen" unicode="&#xa5;" horiz-adv-x="1187" 
d="M20 1352v82h207l369 -646l369 646h202v-82l-342 -574h234v-196h-352v-168h352v-197h-352v-217h-226v217h-352v197h352v168h-352v196h233z" />
    <glyph glyph-name="section" unicode="&#xa7;" horiz-adv-x="1198" 
d="M102 57h217q1 -59 28 -103t70 -67.5t92 -34t101 -8.5q109 0 168.5 40t59.5 108q0 59 -45.5 90.5t-176.5 77.5l-94 33q-203 71 -294 155t-91 217q0 152 137 301q-71 57 -99 110.5t-28 141.5q0 148 120 239t321 91q224 0 350.5 -100t126.5 -299h-215q0 104 -82 153t-188 49
t-162 -38.5t-56 -102.5q0 -45 41 -86q15 -15 52 -31q33 -16 139 -53l96 -33q203 -70 294 -154.5t91 -217.5q0 -153 -137 -302q72 -56 99.5 -109t27.5 -140q0 -146 -125 -240q-128 -96 -344 -96t-354 106q-140 107 -140 303zM360 596q0 -131 234 -213l184 -66q80 100 80 189
q0 129 -233 211l-185 67q-80 -100 -80 -188z" />
    <glyph glyph-name="dieresis" unicode="&#xa8;" horiz-adv-x="874" 
d="M123 1219v225h225v-225h-225zM526 1219v225h226v-225h-226z" />
    <glyph glyph-name="copyright" unicode="&#xa9;" horiz-adv-x="1761" 
d="M143 717q0 314 213 530q211 217 525 217q313 0 524 -217q213 -216 213 -530t-213 -533q-212 -215 -524 -215q-313 0 -525 215q-213 219 -213 533zM307 717q0 -251 164 -424q167 -170 410 -170t407 170q166 172 166 424q0 253 -166 422q-163 172 -407 172t-410 -172
q-164 -170 -164 -422zM524 618v199q0 158 93.5 245t265.5 87q152 0 245 -82.5t93 -235.5v-6h-179v6q0 75 -47.5 117.5t-113.5 42.5q-179 0 -179 -162v-221q0 -79 46 -121.5t133 -42.5q67 0 114 43t47 119v4h179v-4q0 -154 -93 -236.5t-245 -82.5q-172 0 -265.5 86.5
t-93.5 244.5z" />
    <glyph glyph-name="ordfeminine" unicode="&#xaa;" horiz-adv-x="897" 
d="M102 932q0 217 320 217h121v45q0 82 -97 82q-96 0 -96 -90h-213q0 120 79 189t228 69q150 0 230 -64t80 -176v-471h-123l-49 66q-82 -76 -217 -76q-117 0 -190 54.5t-73 154.5zM315 952q0 -67 86 -67q85 0 142 63v72h-119q-109 0 -109 -68z" />
    <glyph glyph-name="guillemotleft" unicode="&#xab;" horiz-adv-x="1116" 
d="M82 563l287 430h194v-65l-244 -365l244 -366v-66h-194zM512 563l287 430h194v-65l-243 -365l243 -366v-66h-194z" />
    <glyph glyph-name="logicalnot" unicode="&#xac;" horiz-adv-x="1146" 
d="M123 768v188h901v-553h-203v365h-698z" />
    <glyph glyph-name="registered" unicode="&#xae;" horiz-adv-x="847" 
d="M82 1112q0 149 98 250q102 102 244 102q143 0 242 -102q100 -100 100 -250q0 -152 -100 -252q-97 -100 -242 -100q-144 0 -244 100q-98 101 -98 252zM164 1112q0 -118 76 -197q77 -77 184 -77t184 77q76 79 76 197q0 119 -76 195q-76 79 -184 79t-184 -79
q-76 -76 -76 -195zM287 934v360h155q61 0 96 -29.5t35 -80.5q0 -84 -84 -115l84 -108v-27h-71l-90 123h-50v-123h-75zM362 1124h80q56 0 56 52q0 47 -56 47h-80v-99z" />
    <glyph glyph-name="macron" unicode="&#xaf;" horiz-adv-x="874" 
d="M123 1239v184h629v-184h-629z" />
    <glyph glyph-name="degree" unicode="&#xb0;" horiz-adv-x="798" 
d="M82 1038v115q0 149 83.5 230t233.5 81t234 -81.5t84 -229.5v-115q0 -148 -84 -229.5t-234 -81.5t-233.5 81t-83.5 230zM281 1008q0 -52 32 -85.5t86 -33.5t86.5 33.5t32.5 85.5v176q0 52 -32.5 85.5t-86.5 33.5t-86 -33.5t-32 -85.5v-176z" />
    <glyph glyph-name="plusminus" unicode="&#xb1;" horiz-adv-x="1146" 
d="M123 0v188h901v-188h-901zM123 682v188h348v330h205v-330h348v-188h-348v-330h-205v330h-348z" />
    <glyph glyph-name="acute" unicode="&#xb4;" horiz-adv-x="612" 
d="M123 1208l164 287h202v-78l-184 -209h-182z" />
    <glyph glyph-name="uni00B5" unicode="&#xb5;" horiz-adv-x="1220" 
d="M164 -328v1393h225v-639q0 -97 64 -170q66 -72 151 -72q51 0 103 25q10 5 18.5 10.5t15.5 9.5t14.5 10l11.5 9t11.5 10.5t10 9.5t10.5 11t9.5 11t11 13.5t11.5 13.5v748h226v-1065h-131l-86 119q-51 -59 -66 -72q-30 -28 -84.5 -50t-116.5 -22q-54 0 -104.5 28.5
t-79.5 66.5v-398h-225z" />
    <glyph glyph-name="paragraph" unicode="&#xb6;" horiz-adv-x="1269" 
d="M82 1085v17q0 159 95 245.5t263 86.5h645v-1612h-215v1407h-215v-1407h-215v932q-168 0 -263 87t-95 244z" />
    <glyph glyph-name="periodcentered" unicode="&#xb7;" horiz-adv-x="563" 
d="M143 504v278h277v-278h-277z" />
    <glyph glyph-name="cedilla" unicode="&#xb8;" horiz-adv-x="612" 
d="M135 -250l178 250h183l-158 -328h-203v78z" />
    <glyph glyph-name="ordmasculine" unicode="&#xba;" horiz-adv-x="839" 
d="M82 1055v57q0 159 89 245.5t249 86.5q161 0 249.5 -86t88.5 -246v-57q0 -160 -88.5 -246t-249.5 -86q-160 0 -249 86.5t-89 245.5zM293 1032q0 -56 35.5 -92.5t91.5 -36.5t91.5 36.5t35.5 92.5v103q0 56 -35.5 92.5t-91.5 36.5t-91.5 -36.5t-35.5 -92.5v-103z" />
    <glyph glyph-name="guillemotright" unicode="&#xbb;" horiz-adv-x="1116" 
d="M123 131v66l244 366l-244 365v65h194l287 -430l-287 -432h-194zM553 131v66l244 366l-244 365v65h195l286 -430l-286 -432h-195z" />
    <glyph glyph-name="questiondown" unicode="&#xbf;" horiz-adv-x="1064" 
d="M61 37q0 118 64 213q19 33 68 78q41 38 68 57.5t83 54.5l78 49v138h225v-217l-172 -105q-102 -63 -147 -117q-41 -53 -41 -147q0 -83 58 -135.5t163 -52.5q123 0 191.5 68t68.5 192h215q0 -223 -133 -344t-342 -121q-217 0 -332 112t-115 277zM416 813v252h237v-252h-237
z" />
    <glyph glyph-name="Agrave" unicode="&#xc0;" horiz-adv-x="1347" 
d="M41 0v82l512 1352h242l512 -1352v-82h-242l-127 354h-541l-129 -354h-227zM375 1786v84h217l176 -309h-195zM471 559h393l-194 547z" />
    <glyph glyph-name="Aacute" unicode="&#xc1;" horiz-adv-x="1347" 
d="M41 0v82l512 1352h242l512 -1352v-82h-242l-127 354h-541l-129 -354h-227zM471 559h393l-194 547zM592 1561l176 309h217v-84l-197 -225h-196z" />
    <glyph glyph-name="Acircumflex" unicode="&#xc2;" horiz-adv-x="1347" 
d="M41 0v82l512 1352h242l512 -1352v-82h-242l-127 354h-541l-129 -354h-227zM358 1561v77l217 232h195l217 -232v-77h-184l-131 147l-133 -147h-181zM471 559h393l-194 547z" />
    <glyph glyph-name="Atilde" unicode="&#xc3;" horiz-adv-x="1347" 
d="M41 0v82l512 1352h242l512 -1352v-82h-242l-127 354h-541l-129 -354h-227zM293 1630q106 207 229 207q76 0 152 -49l33 -23q61 -43 104 -43q41 0 109 105l137 -84q-103 -207 -228 -207q-76 0 -135 39l-37 22q-88 52 -118 52q-44 0 -109 -103zM471 559h393l-194 547z" />
    <glyph glyph-name="Adieresis" unicode="&#xc4;" horiz-adv-x="1347" 
d="M41 0v82l512 1352h242l512 -1352v-82h-242l-127 354h-541l-129 -354h-227zM334 1573v242h241v-242h-241zM471 559h393l-194 547zM768 1573v242h240v-242h-240z" />
    <glyph glyph-name="Aring" unicode="&#xc5;" horiz-adv-x="1347" 
d="M41 0v82l512 1352h242l512 -1352v-82h-242l-127 354h-541l-129 -354h-227zM432 1735q0 91 70 155q72 66 168 66q94 0 166 -66q71 -65 71 -155q0 -93 -71 -158q-72 -66 -166 -66q-96 0 -168 66q-70 64 -70 158zM471 559h393l-194 547zM575 1735q-3 -55 46 -78t97.5 0
t45.5 78q0 37 -28 63.5t-66 26.5t-66.5 -26.5t-28.5 -63.5z" />
    <glyph glyph-name="AE" unicode="&#xc6;" horiz-adv-x="2031" 
d="M20 0v82l852 1352h1055v-215h-674v-398h578v-205h-578v-401h676v-215h-921v354h-543l-223 -354h-222zM594 559h414v655z" />
    <glyph glyph-name="Ccedilla" unicode="&#xc7;" horiz-adv-x="1351" 
d="M143 485v463q0 246 145.5 381t411.5 135q228 0 377 -125q152 -128 152 -370v-21h-246v21q0 133 -88 200q-88 70 -197 70q-153 0 -231 -71t-78 -203v-496q0 -132 78 -203t231 -71q109 0 197 67q88 70 88 203v20h246v-20q0 -227 -131 -352q-130 -124 -332 -142l-143 -299
h-203v78l162 227q-213 29 -326 160t-113 348z" />
    <glyph glyph-name="Egrave" unicode="&#xc8;" horiz-adv-x="1208" 
d="M184 0v1434h920v-215h-674v-398h578v-205h-578v-401h676v-215h-922zM395 1786v84h217l176 -309h-194z" />
    <glyph glyph-name="Eacute" unicode="&#xc9;" horiz-adv-x="1208" 
d="M184 0v1434h920v-215h-674v-398h578v-205h-578v-401h676v-215h-922zM485 1561l177 309h217v-84l-197 -225h-197z" />
    <glyph glyph-name="Ecircumflex" unicode="&#xca;" horiz-adv-x="1208" 
d="M184 0v1434h920v-215h-674v-398h578v-205h-578v-401h676v-215h-922zM334 1561v77l217 232h194l218 -232v-77h-185l-131 147l-133 -147h-180z" />
    <glyph glyph-name="Edieresis" unicode="&#xcb;" horiz-adv-x="1208" 
d="M184 0v1434h920v-215h-674v-398h578v-205h-578v-401h676v-215h-922zM307 1573v242h242v-242h-242zM739 1573v242h242v-242h-242z" />
    <glyph glyph-name="Igrave" unicode="&#xcc;" horiz-adv-x="614" 
d="M25 1786v84h217l176 -309h-195zM184 0v1434h246v-1434h-246z" />
    <glyph glyph-name="Iacute" unicode="&#xcd;" horiz-adv-x="614" 
d="M184 0v1434h246v-1434h-246zM215 1561l176 309h217v-84l-196 -225h-197z" />
    <glyph glyph-name="Icircumflex" unicode="&#xce;" horiz-adv-x="614" 
d="M-6 1561v77l217 232h195l217 -232v-77h-185l-131 147l-133 -147h-180zM184 0v1434h246v-1434h-246z" />
    <glyph glyph-name="Idieresis" unicode="&#xcf;" horiz-adv-x="614" 
d="M-29 1573v242h242v-242h-242zM184 0v1434h246v-1434h-246zM406 1573v242h239v-242h-239z" />
    <glyph glyph-name="Eth" unicode="&#xd0;" horiz-adv-x="1452" 
d="M41 616v205h192v613h512q261 0 412.5 -131.5t151.5 -364.5v-442q0 -233 -151.5 -364.5t-412.5 -131.5h-512v616h-192zM479 215h266q147 0 232.5 75.5t85.5 198.5v455q0 123 -85.5 199t-232.5 76h-266v-398h289v-205h-289v-401z" />
    <glyph glyph-name="Ntilde" unicode="&#xd1;" horiz-adv-x="1454" 
d="M184 0v1434h226l614 -977v977h246v-1434h-226l-614 977v-977h-246zM350 1630q106 207 230 207q75 0 151 -49l33 -23q61 -43 104 -43q42 0 109 105l137 -84q-103 -207 -227 -207q-76 0 -135 39l-37 22q-88 52 -119 52q-44 0 -109 -103z" />
    <glyph glyph-name="Ograve" unicode="&#xd2;" 
d="M143 485v463q0 241 151.5 378.5t412.5 137.5q260 0 411.5 -137.5t151.5 -378.5v-463q0 -241 -151.5 -378.5t-411.5 -137.5q-261 0 -412.5 137.5t-151.5 378.5zM389 473q0 -125 84 -201.5t234 -76.5t233.5 76.5t83.5 201.5v488q0 125 -83.5 201.5t-233.5 76.5t-234 -76.5
t-84 -201.5v-488zM432 1786v84h217l176 -309h-194z" />
    <glyph glyph-name="Oacute" unicode="&#xd3;" 
d="M143 485v463q0 241 151.5 378.5t412.5 137.5q260 0 411.5 -137.5t151.5 -378.5v-463q0 -241 -151.5 -378.5t-411.5 -137.5q-261 0 -412.5 137.5t-151.5 378.5zM389 473q0 -125 84 -201.5t234 -76.5t233.5 76.5t83.5 201.5v488q0 125 -83.5 201.5t-233.5 76.5t-234 -76.5
t-84 -201.5v-488zM608 1561l176 309h217v-84l-196 -225h-197z" />
    <glyph glyph-name="Ocircumflex" unicode="&#xd4;" 
d="M143 485v463q0 241 151.5 378.5t412.5 137.5q260 0 411.5 -137.5t151.5 -378.5v-463q0 -241 -151.5 -378.5t-411.5 -137.5q-261 0 -412.5 137.5t-151.5 378.5zM389 473q0 -125 84 -201.5t234 -76.5t233.5 76.5t83.5 201.5v488q0 125 -83.5 201.5t-233.5 76.5t-234 -76.5
t-84 -201.5v-488zM395 1561v77l217 232h195l217 -232v-77h-184l-131 147l-134 -147h-180z" />
    <glyph glyph-name="Otilde" unicode="&#xd5;" 
d="M143 485v463q0 241 151.5 378.5t412.5 137.5q260 0 411.5 -137.5t151.5 -378.5v-463q0 -241 -151.5 -378.5t-411.5 -137.5q-261 0 -412.5 137.5t-151.5 378.5zM338 1630q106 207 229 207q76 0 152 -49l33 -23q61 -43 104 -43q42 0 109 105l137 -84q-103 -207 -228 -207
q-76 0 -135 39l-37 22q-88 52 -118 52q-44 0 -109 -103zM389 473q0 -125 84 -201.5t234 -76.5t233.5 76.5t83.5 201.5v488q0 125 -83.5 201.5t-233.5 76.5t-234 -76.5t-84 -201.5v-488z" />
    <glyph glyph-name="Odieresis" unicode="&#xd6;" 
d="M143 485v463q0 241 151.5 378.5t412.5 137.5q260 0 411.5 -137.5t151.5 -378.5v-463q0 -241 -151.5 -378.5t-411.5 -137.5q-261 0 -412.5 137.5t-151.5 378.5zM371 1573v242h241v-242h-241zM389 473q0 -125 84 -201.5t234 -76.5t233.5 76.5t83.5 201.5v488
q0 125 -83.5 201.5t-233.5 76.5t-234 -76.5t-84 -201.5v-488zM805 1573v242h239v-242h-239z" />
    <glyph glyph-name="Oslash" unicode="&#xd8;" 
d="M143 485v463q0 241 151.5 378.5t412.5 137.5q77 0 147 -12l61 186h181v-82l-58 -172q232 -136 232 -436v-463q0 -241 -151.5 -378.5t-411.5 -137.5q-70 0 -140 13l-63 -187h-180v82l57 168q-238 133 -238 440zM389 473q0 -119 78 -197l319 955q-44 8 -79 8
q-150 0 -234 -76.5t-84 -201.5v-488zM635 201q35 -6 72 -6q150 0 233.5 76.5t83.5 201.5v488q0 113 -74 190z" />
    <glyph glyph-name="Ugrave" unicode="&#xd9;" 
d="M164 467v967h246v-979q0 -116 79 -188t218 -72t218 72t79 188v979h245v-967q0 -235 -147 -367q-143 -131 -395 -131t-398 131q-145 133 -145 367zM453 1786v84h217l176 -309h-195z" />
    <glyph glyph-name="Uacute" unicode="&#xda;" 
d="M164 467v967h246v-979q0 -116 79 -188t218 -72t218 72t79 188v979h245v-967q0 -235 -147 -367q-143 -131 -395 -131t-398 131q-145 133 -145 367zM582 1561l176 309h217v-84l-197 -225h-196z" />
    <glyph glyph-name="Ucircumflex" unicode="&#xdb;" 
d="M164 467v967h246v-979q0 -116 79 -188t218 -72t218 72t79 188v979h245v-967q0 -235 -147 -367q-143 -131 -395 -131t-398 131q-145 133 -145 367zM393 1561v77l217 232h195l217 -232v-77h-184l-131 147l-134 -147h-180z" />
    <glyph glyph-name="Udieresis" unicode="&#xdc;" 
d="M164 467v967h246v-979q0 -116 79 -188t218 -72t218 72t79 188v979h245v-967q0 -235 -147 -367q-143 -131 -395 -131t-398 131q-145 133 -145 367zM371 1573v242h241v-242h-241zM805 1573v242h239v-242h-239z" />
    <glyph glyph-name="Yacute" unicode="&#xdd;" horiz-adv-x="1257" 
d="M20 1352v82h242l369 -635l381 635h225v-82l-485 -774v-578h-246v567zM510 1561l176 309h217v-84l-196 -225h-197z" />
    <glyph glyph-name="Thorn" unicode="&#xde;" horiz-adv-x="1300" 
d="M184 0v1434h246v-271h375q188 0 295.5 -118.5t107.5 -321.5t-107.5 -321.5t-295.5 -118.5h-375v-283h-246zM430 498h332q87 0 141.5 59.5t54.5 165.5t-54.5 165.5t-141.5 59.5h-332v-450z" />
    <glyph glyph-name="germandbls" unicode="&#xdf;" horiz-adv-x="1226" 
d="M164 0v952q0 235 119 365.5t333 130.5q204 0 320 -107q117 -105 117 -260q0 -213 -154 -290q99 -36 162 -134t63 -223q0 -200 -126.5 -317t-340.5 -117q-57 0 -129 10v201q58 -6 113 -6q123 0 190.5 68t67.5 176q0 115 -67 177t-189 62h-96v193h78q192 0 192 184
q0 80 -51.5 129t-147.5 49q-112 0 -170.5 -69t-58.5 -199v-975h-225z" />
    <glyph glyph-name="agrave" unicode="&#xe0;" horiz-adv-x="1144" 
d="M92 289q0 167 111 254.5t329 87.5h234v84q0 170 -201 170q-96 0 -148 -41.5t-52 -110.5h-220q0 165 108.5 261t311.5 96q206 0 316 -97t110 -264v-729h-131l-86 119q-120 -144 -325 -144q-158 0 -257.5 84t-99.5 230zM317 313q0 -133 177 -133q157 0 272 121v158h-234
q-215 0 -215 -146zM350 1417v78h203l164 -287h-182z" />
    <glyph glyph-name="aacute" unicode="&#xe1;" horiz-adv-x="1144" 
d="M92 289q0 167 111 254.5t329 87.5h234v84q0 170 -201 170q-96 0 -148 -41.5t-52 -110.5h-220q0 165 108.5 261t311.5 96q206 0 316 -97t110 -264v-729h-131l-86 119q-120 -144 -325 -144q-158 0 -257.5 84t-99.5 230zM317 313q0 -133 177 -133q157 0 272 121v158h-234
q-215 0 -215 -146zM449 1208l163 287h203v-78l-184 -209h-182z" />
    <glyph glyph-name="acircumflex" unicode="&#xe2;" horiz-adv-x="1144" 
d="M92 289q0 167 111 254.5t329 87.5h234v84q0 170 -201 170q-96 0 -148 -41.5t-52 -110.5h-220q0 165 108.5 261t311.5 96q206 0 316 -97t110 -264v-729h-131l-86 119q-120 -144 -325 -144q-158 0 -257.5 84t-99.5 230zM268 1208v72l203 215h180l203 -215v-72h-172
l-123 138l-123 -138h-168zM317 313q0 -133 177 -133q157 0 272 121v158h-234q-215 0 -215 -146z" />
    <glyph glyph-name="atilde" unicode="&#xe3;" horiz-adv-x="1144" 
d="M92 289q0 167 111 254.5t329 87.5h234v84q0 170 -201 170q-96 0 -148 -41.5t-52 -110.5h-220q0 165 108.5 261t311.5 96q206 0 316 -97t110 -264v-729h-131l-86 119q-120 -144 -325 -144q-158 0 -257.5 84t-99.5 230zM223 1298q106 201 223 201q77 0 148 -47l33 -22
q59 -41 102 -41q42 0 105 100l135 -82q-106 -201 -224 -201q-72 0 -131 39l-34 21q-5 3 -32 17.5t-30 16.5q-21 17 -55 17q-42 0 -105 -100zM317 313q0 -133 177 -133q157 0 272 121v158h-234q-215 0 -215 -146z" />
    <glyph glyph-name="adieresis" unicode="&#xe4;" horiz-adv-x="1144" 
d="M92 289q0 167 111 254.5t329 87.5h234v84q0 170 -201 170q-96 0 -148 -41.5t-52 -110.5h-220q0 165 108.5 261t311.5 96q206 0 316 -97t110 -264v-729h-131l-86 119q-120 -144 -325 -144q-158 0 -257.5 84t-99.5 230zM248 1219v225h225v-225h-225zM317 313
q0 -133 177 -133q157 0 272 121v158h-234q-215 0 -215 -146zM651 1219v225h226v-225h-226z" />
    <glyph glyph-name="aring" unicode="&#xe5;" horiz-adv-x="1144" 
d="M92 289q0 167 111 254.5t329 87.5h234v84q0 170 -201 170q-96 0 -148 -41.5t-52 -110.5h-220q0 165 108.5 261t311.5 96q206 0 316 -97t110 -264v-729h-131l-86 119q-120 -144 -325 -144q-158 0 -257.5 84t-99.5 230zM317 313q0 -133 177 -133q157 0 272 121v158h-234
q-215 0 -215 -146zM346 1368q0 85 66 145q66 61 155.5 61t155.5 -61q65 -59 65 -145q0 -85 -65 -147q-66 -60 -155.5 -60t-155.5 60q-66 63 -66 147zM483 1389.5q-13 -41.5 23 -80.5q35 -38 84 -21t62 58.5t-23 80.5q-35 38 -84 21t-62 -58.5z" />
    <glyph glyph-name="ae" unicode="&#xe6;" horiz-adv-x="1775" 
d="M92 289q0 167 111 254.5t329 87.5h234v84q0 170 -201 170q-96 0 -148 -41.5t-52 -110.5h-220q0 165 108.5 261t311.5 96q210 0 326 -107q122 107 330 107q202 0 320 -105t118 -287v-239h-668v-88q0 -88 60.5 -139.5t169.5 -51.5q181 0 211 142h225q-17 -163 -131.5 -255
t-304.5 -92q-295 0 -406 191q-138 -191 -366 -191q-159 0 -258 84t-99 230zM317 313q0 -133 177 -133q157 0 272 121v158h-234q-215 0 -215 -146zM991 631h443v67q0 87 -58.5 137t-163.5 50t-163 -50t-58 -137v-67z" />
    <glyph glyph-name="ccedilla" unicode="&#xe7;" horiz-adv-x="1103" 
d="M117 371v323q0 183 120 289.5t324 106.5q201 0 317.5 -104.5t116.5 -287.5v-12h-225v12q0 86 -55 136.5t-154 50.5q-107 0 -163 -49.5t-56 -137.5v-331q0 -88 56 -137.5t163 -49.5q99 0 154 50.5t55 136.5v18h225v-14q0 -161 -98.5 -266.5t-263.5 -124.5l-148 -308h-202
v78l166 236q-156 26 -244 128t-88 257z" />
    <glyph glyph-name="egrave" unicode="&#xe8;" horiz-adv-x="1126" 
d="M117 367v327q0 179 123 287q127 109 331 109q202 0 320.5 -105t118.5 -287v-239h-668v-88q0 -88 60 -139.5t169 -51.5q181 0 211 142h226q-17 -163 -131.5 -255t-305.5 -92q-210 0 -332 105t-122 287zM342 631h442v67q0 87 -58 137t-163 50t-163 -50t-58 -137v-67z
M356 1417v78h203l164 -287h-182z" />
    <glyph glyph-name="eacute" unicode="&#xe9;" horiz-adv-x="1126" 
d="M117 367v327q0 179 123 287q127 109 331 109q202 0 320.5 -105t118.5 -287v-239h-668v-88q0 -88 60 -139.5t169 -51.5q181 0 211 142h226q-17 -163 -131.5 -255t-305.5 -92q-210 0 -332 105t-122 287zM342 631h442v67q0 87 -58 137t-163 50t-163 -50t-58 -137v-67z
M420 1208l164 287h202v-78l-184 -209h-182z" />
    <glyph glyph-name="ecircumflex" unicode="&#xea;" horiz-adv-x="1126" 
d="M117 367v327q0 179 123 287q127 109 331 109q202 0 320.5 -105t118.5 -287v-239h-668v-88q0 -88 60 -139.5t169 -51.5q181 0 211 142h226q-17 -163 -131.5 -255t-305.5 -92q-210 0 -332 105t-122 287zM276 1208v72l203 215h180l203 -215v-72h-172l-123 138l-123 -138
h-168zM342 631h442v67q0 87 -58 137t-163 50t-163 -50t-58 -137v-67z" />
    <glyph glyph-name="edieresis" unicode="&#xeb;" horiz-adv-x="1126" 
d="M117 367v327q0 179 123 287q127 109 331 109q202 0 320.5 -105t118.5 -287v-239h-668v-88q0 -88 60 -139.5t169 -51.5q181 0 211 142h226q-17 -163 -131.5 -255t-305.5 -92q-210 0 -332 105t-122 287zM254 1219v225h225v-225h-225zM342 631h442v67q0 87 -58 137t-163 50
t-163 -50t-58 -137v-67zM657 1219v225h226v-225h-226z" />
    <glyph glyph-name="igrave" unicode="&#xec;" horiz-adv-x="552" 
d="M6 1413v78h203l164 -287h-183zM164 0v1065h225v-1065h-225z" />
    <glyph glyph-name="iacute" unicode="&#xed;" horiz-adv-x="552" 
d="M164 0v1065h225v-1065h-225zM184 1208l164 287h203v-78l-184 -209h-183z" />
    <glyph glyph-name="icircumflex" unicode="&#xee;" horiz-adv-x="552" 
d="M-16 1208v72l202 215h181l202 -215v-72h-172l-123 138l-122 -138h-168zM164 0v1065h225v-1065h-225z" />
    <glyph glyph-name="idieresis" unicode="&#xef;" horiz-adv-x="552" 
d="M-37 1219v225h225v-225h-225zM164 0v1065h225v-1065h-225zM367 1219v225h225v-225h-225z" />
    <glyph glyph-name="eth" unicode="&#xf0;" horiz-adv-x="1142" 
d="M117 371v215q0 187 105 289t280 102q64 0 110 -14q33 -9 57.5 -20.5t38 -21.5l44.5 -34l-160 196h-305v134h196l-96 120v107h203l176 -227h229v-134h-129q93 -133 125 -229q35 -107 35 -270v-217q0 -182 -122.5 -287t-332.5 -105q-206 0 -331 107q-123 108 -123 289z
M342 381q0 -90 60.5 -145.5t168.5 -55.5t169 55.5t61 145.5v266q-107 125 -242 125q-98 0 -157.5 -55t-59.5 -148v-188z" />
    <glyph glyph-name="ntilde" unicode="&#xf1;" horiz-adv-x="1216" 
d="M164 0v1065h131l84 -119q120 144 315 144q168 0 268.5 -108t100.5 -296v-686h-225v666q0 106 -53 162.5t-142 56.5q-141 0 -254 -137v-748h-225zM268 1298q106 201 224 201q76 0 147 -47l33 -22q59 -41 102 -41q42 0 105 100l135 -82q-106 -201 -223 -201q-73 0 -132 39
l-34 21q-5 3 -32 17.5t-30 16.5q-21 17 -55 17q-42 0 -105 -100z" />
    <glyph glyph-name="ograve" unicode="&#xf2;" horiz-adv-x="1142" 
d="M117 371v323q0 178 119.5 287t334.5 109t335 -109t120 -287v-323q0 -178 -120 -287t-335 -109t-334.5 109t-119.5 287zM326 1417v78h202l164 -287h-182zM342 381q0 -90 60.5 -145.5t168.5 -55.5t169 55.5t61 145.5v303q0 90 -61 145.5t-169 55.5t-168.5 -55.5
t-60.5 -145.5v-303z" />
    <glyph glyph-name="oacute" unicode="&#xf3;" horiz-adv-x="1142" 
d="M117 371v323q0 178 119.5 287t334.5 109t335 -109t120 -287v-323q0 -178 -120 -287t-335 -109t-334.5 109t-119.5 287zM342 381q0 -90 60.5 -145.5t168.5 -55.5t169 55.5t61 145.5v303q0 90 -61 145.5t-169 55.5t-168.5 -55.5t-60.5 -145.5v-303zM444 1208l164 287h203
v-78l-184 -209h-183z" />
    <glyph glyph-name="ocircumflex" unicode="&#xf4;" horiz-adv-x="1142" 
d="M117 371v323q0 178 119.5 287t334.5 109t335 -109t120 -287v-323q0 -178 -120 -287t-335 -109t-334.5 109t-119.5 287zM279 1208v72l202 215h181l202 -215v-72h-172l-123 138l-123 -138h-167zM342 381q0 -90 60.5 -145.5t168.5 -55.5t169 55.5t61 145.5v303
q0 90 -61 145.5t-169 55.5t-168.5 -55.5t-60.5 -145.5v-303z" />
    <glyph glyph-name="otilde" unicode="&#xf5;" horiz-adv-x="1142" 
d="M117 371v323q0 178 119.5 287t334.5 109t335 -109t120 -287v-323q0 -178 -120 -287t-335 -109t-334.5 109t-119.5 287zM199 1298q106 201 223 201q76 0 147 -47l33 -22q59 -41 103 -41q41 0 104 100l135 -82q-106 -201 -223 -201q-72 0 -131 39l-35 21q-5 3 -31.5 17.5
t-29.5 16.5q-21 17 -56 17q-41 0 -104 -100zM342 381q0 -90 60.5 -145.5t168.5 -55.5t169 55.5t61 145.5v303q0 90 -61 145.5t-169 55.5t-168.5 -55.5t-60.5 -145.5v-303z" />
    <glyph glyph-name="odieresis" unicode="&#xf6;" horiz-adv-x="1142" 
d="M117 371v323q0 178 119.5 287t334.5 109t335 -109t120 -287v-323q0 -178 -120 -287t-335 -109t-334.5 109t-119.5 287zM256 1219v225h225v-225h-225zM342 381q0 -90 60.5 -145.5t168.5 -55.5t169 55.5t61 145.5v303q0 90 -61 145.5t-169 55.5t-168.5 -55.5t-60.5 -145.5
v-303zM659 1219v225h226v-225h-226z" />
    <glyph glyph-name="divide" unicode="&#xf7;" horiz-adv-x="1146" 
d="M123 547v188h901v-188h-901zM442 150v253h260v-253h-260zM442 879v254h260v-254h-260z" />
    <glyph glyph-name="oslash" unicode="&#xf8;" horiz-adv-x="1155" 
d="M123 -152l117 238q-117 108 -117 285v323q0 178 120 287t335 109q69 0 149 -17l125 250h180v-106l-119 -238q119 -107 119 -285v-323q0 -178 -119.5 -287t-334.5 -109q-72 0 -152 17l-123 -250h-180v106zM348 381q0 -36 17 -82l284 578q-36 8 -71 8q-108 0 -169 -55.5
t-61 -145.5v-303zM502 188q27 -8 76 -8q108 0 168.5 55.5t60.5 145.5v303q0 41 -19 84z" />
    <glyph glyph-name="ugrave" unicode="&#xf9;" horiz-adv-x="1210" 
d="M154 379v686h225v-666q0 -106 52.5 -162.5t139.5 -56.5q137 0 250 137v748h226v-1065h-132l-86 119q-120 -144 -311 -144q-166 0 -265 107.5t-99 296.5zM391 1417v78h203l164 -287h-183z" />
    <glyph glyph-name="uacute" unicode="&#xfa;" horiz-adv-x="1210" 
d="M154 379v686h225v-666q0 -106 52.5 -162.5t139.5 -56.5q137 0 250 137v748h226v-1065h-132l-86 119q-120 -144 -311 -144q-166 0 -265 107.5t-99 296.5zM446 1208l164 287h203v-78l-184 -209h-183z" />
    <glyph glyph-name="ucircumflex" unicode="&#xfb;" horiz-adv-x="1210" 
d="M154 379v686h225v-666q0 -106 52.5 -162.5t139.5 -56.5q137 0 250 137v748h226v-1065h-132l-86 119q-120 -144 -311 -144q-166 0 -265 107.5t-99 296.5zM311 1208v72l203 215h180l203 -215v-72h-172l-123 138l-123 -138h-168z" />
    <glyph glyph-name="udieresis" unicode="&#xfc;" horiz-adv-x="1210" 
d="M154 379v686h225v-666q0 -106 52.5 -162.5t139.5 -56.5q137 0 250 137v748h226v-1065h-132l-86 119q-120 -144 -311 -144q-166 0 -265 107.5t-99 296.5zM291 1219v225h225v-225h-225zM694 1219v225h226v-225h-226z" />
    <glyph glyph-name="yacute" unicode="&#xfd;" horiz-adv-x="1046" 
d="M41 958v107h209l280 -758l269 758h207v-107l-508 -1286h-185v82l107 246zM403 1208l164 287h203v-78l-184 -209h-183z" />
    <glyph glyph-name="thorn" unicode="&#xfe;" horiz-adv-x="1206" 
d="M164 -328v1772h225v-483q105 129 299 129q175 0 280 -102t105 -290v-331q0 -188 -105 -290t-280 -102q-194 0 -299 129v-432h-225zM389 317q128 -137 258 -137q86 0 143.5 56t57.5 147v299q0 91 -56.5 147t-142.5 56q-132 0 -260 -137v-431z" />
    <glyph glyph-name="ydieresis" unicode="&#xff;" horiz-adv-x="1046" 
d="M41 958v107h209l280 -758l269 758h207v-107l-508 -1286h-185v82l107 246zM209 1219v225h225v-225h-225zM612 1219v225h226v-225h-226z" />
    <glyph glyph-name="dotlessi" unicode="&#x131;" horiz-adv-x="552" 
d="M164 0v1065h225v-1065h-225z" />
    <glyph glyph-name="OE" unicode="&#x152;" horiz-adv-x="2048" 
d="M143 485v463q0 241 151.5 378.5t412.5 137.5q176 0 317 -108v78h920v-215h-674v-398h577v-205h-577v-401h676v-215h-922v76q-143 -107 -317 -107q-261 0 -412.5 137.5t-151.5 378.5zM389 473q0 -125 84 -201.5t234 -76.5q147 0 232 74t85 192v500q0 125 -83.5 201.5
t-233.5 76.5t-234 -76.5t-84 -201.5v-488z" />
    <glyph glyph-name="oe" unicode="&#x153;" horiz-adv-x="1810" 
d="M117 371v323q0 175 116 285q120 111 338 111q219 0 342 -117q126 117 342 117q202 0 320.5 -105t118.5 -287v-239h-668v-97q0 -83 61 -132.5t168 -49.5q181 0 211 142h226q-17 -163 -131.5 -255t-305.5 -92q-222 0 -344 113q-122 -113 -340 -113q-215 0 -334.5 109
t-119.5 287zM342 381q0 -90 60.5 -145.5t168.5 -55.5t169 55.5t61 145.5v303q0 90 -61 145.5t-169 55.5t-168.5 -55.5t-60.5 -145.5v-303zM1026 631h442v67q0 87 -58 137t-163 50t-163 -50t-58 -137v-67z" />
    <glyph glyph-name="Ydieresis" unicode="&#x178;" horiz-adv-x="1257" 
d="M20 1352v82h242l369 -635l381 635h225v-82l-485 -774v-578h-246v567zM295 1579v242h242v-242h-242zM727 1579v242h242v-242h-242z" />
    <glyph glyph-name="florin" unicode="&#x192;" horiz-adv-x="761" 
d="M-41 -152h10q103 0 147 41t52 142l65 837h-147v197h164l2 18q20 186 109 275.5t284 89.5q14 0 76 -4v-197h-47q-98 0 -142 -37.5t-55 -126.5l-2 -18h246v-197h-262l-66 -837q-15 -178 -94 -279q-79 -104 -262 -104q-42 0 -78 4v196z" />
    <glyph glyph-name="circumflex" unicode="&#x2c6;" horiz-adv-x="831" 
d="M123 1208v72l203 215h180l203 -215v-72h-172l-123 138l-123 -138h-168z" />
    <glyph glyph-name="caron" unicode="&#x2c7;" horiz-adv-x="831" 
d="M123 1423v72h172l123 -158l123 158h168v-72l-203 -215h-180z" />
    <glyph glyph-name="breve" unicode="&#x2d8;" horiz-adv-x="831" 
d="M86 1450v25h193v-23q0 -56 35 -87.5t102 -31.5q139 0 139 119v23h190v-25q0 -130 -89.5 -205.5t-239.5 -75.5t-240 75.5t-90 205.5z" />
    <glyph glyph-name="dotaccent" unicode="&#x2d9;" horiz-adv-x="471" 
d="M123 1219v225h225v-225h-225z" />
    <glyph glyph-name="ring" unicode="&#x2da;" horiz-adv-x="688" 
d="M123 1368q0 86 65 145q66 61 156 61t156 -61q65 -59 65 -145q0 -85 -65 -147q-66 -60 -156 -60t-156 60q-65 62 -65 147zM260 1389.5q-13 -41.5 23 -80.5q35 -38 84 -21t62 58.5t-23 80.5q-35 38 -84 21t-62 -58.5z" />
    <glyph glyph-name="ogonek" unicode="&#x2db;" horiz-adv-x="575" 
d="M102 -178q0 84 105 178h131q-86 -71 -86 -125q0 -65 106 -65h70v-138h-115q-98 0 -154.5 40.5t-56.5 109.5z" />
    <glyph glyph-name="tilde" unicode="&#x2dc;" horiz-adv-x="991" 
d="M123 1298q106 201 223 201q77 0 148 -47l32 -22q59 -41 103 -41q41 0 104 100l135 -82q-106 -201 -223 -201q-72 0 -131 39l-35 21q-5 3 -31.5 17.5t-29.5 16.5q-21 17 -56 17q-41 0 -104 -100z" />
    <glyph glyph-name="hungarumlaut" unicode="&#x2dd;" horiz-adv-x="968" 
d="M123 1208l164 287h202v-78l-184 -209h-182zM479 1208l164 287h203v-78l-184 -209h-183z" />
    <glyph glyph-name="Omega" unicode="&#x3a9;" horiz-adv-x="1478" 
d="M143 0v215h199q-93 59 -129.5 142.5t-36.5 211.5v379q0 241 151.5 378.5t411.5 137.5q261 0 412.5 -137.5t151.5 -378.5v-379q0 -128 -36.5 -211.5t-129.5 -142.5h198v-215h-487v225q101 25 155 120t54 220v396q0 125 -84 201.5t-234 76.5t-233.5 -76.5t-83.5 -201.5
v-396q0 -125 54 -220t155 -120v-225h-488z" />
    <glyph glyph-name="pi" unicode="&#x3c0;" horiz-adv-x="1421" 
d="M61 868v197h1299v-197h-205v-868h-225v868h-438v-868h-226v868h-205z" />
    <glyph glyph-name="afii10023" unicode="&#x401;" horiz-adv-x="1208" 
d="M184 0v1434h920v-215h-674v-398h578v-205h-578v-401h676v-215h-922zM305 1573v242h242v-242h-242zM739 1573v242h240v-242h-240z" />
    <glyph glyph-name="afii10051" unicode="&#x402;" horiz-adv-x="1531" 
d="M41 1219v215h1077v-215h-475v-357q137 25 272 25q250 0 387.5 -119.5t137.5 -325.5t-112 -324t-314 -118h-135v215h102q103 0 156 58.5t53 164.5q0 105 -78.5 164.5t-214.5 59.5q-103 0 -254 -23v-639h-246v1219h-356z" />
    <glyph glyph-name="afii10052" unicode="&#x403;" horiz-adv-x="1157" 
d="M184 0v1434h891v-215h-645v-1219h-246zM485 1561l177 309h217v-84l-197 -225h-197z" />
    <glyph glyph-name="afii10053" unicode="&#x404;" horiz-adv-x="1353" 
d="M143 485v463q0 244 149.5 380t418.5 136q215 0 366 -127q154 -127 154 -368h-227q0 122 -89 196q-86 74 -206 74q-154 0 -237 -72t-83 -202v-146h498v-205h-498v-145q0 -130 83 -202t237 -72q112 0 202 69q93 72 93 201h227q0 -232 -148 -365q-146 -131 -372 -131
q-269 0 -418.5 136t-149.5 380z" />
    <glyph glyph-name="afii10054" unicode="&#x405;" horiz-adv-x="1314" 
d="M92 465h246q0 -99 53 -164q93 -106 273 -106q126 0 197 51t71 135q0 76 -68 117q-64 41 -246 110l-18 6l-33 13q-232 88 -336 172q-100 84 -100 248q0 190 137 303q138 114 379 114q250 0 391.5 -121t141.5 -362h-246q0 129 -79 193.5t-210 64.5q-120 0 -193 -49
t-73 -125q0 -85 63 -125q61 -38 246 -104l29 -11q110 -38 184 -71q70 -30 146 -82q145 -99 145 -279q0 -193 -142.5 -308.5t-400.5 -115.5q-239 0 -399 127q-158 131 -158 369z" />
    <glyph glyph-name="afii10055" unicode="&#x406;" horiz-adv-x="614" 
d="M184 0v1434h246v-1434h-246z" />
    <glyph glyph-name="afii10056" unicode="&#x407;" horiz-adv-x="614" 
d="M-29 1573v242h242v-242h-242zM184 0v1434h246v-1434h-246zM406 1573v242h239v-242h-239z" />
    <glyph glyph-name="afii10057" unicode="&#x408;" horiz-adv-x="1187" 
d="M41 424v61h246v-61q0 -229 245 -229q111 0 178.5 60t67.5 177v1002h246v-1010q0 -231 -137 -344q-135 -111 -355 -111q-235 0 -363 112t-128 343z" />
    <glyph glyph-name="afii10058" unicode="&#x409;" horiz-adv-x="2070" 
d="M37 0v225h39q130 0 180 111q49 113 49 403v695h895v-553h346q207 0 319.5 -118t112.5 -323t-112.5 -322.5t-319.5 -117.5h-592v1219h-424v-551q0 -668 -446 -668h-47zM1200 215h342q90 0 138.5 60t48.5 165q0 106 -48.5 166t-138.5 60h-342v-451z" />
    <glyph glyph-name="afii10059" unicode="&#x40a;" horiz-adv-x="2140" 
d="M184 0v1434h246v-553h594v553h246v-553h346q207 0 319.5 -118t112.5 -323t-112.5 -322.5t-319.5 -117.5h-592v666h-594v-666h-246zM1270 215h342q90 0 138 59.5t48 165.5t-48 166t-138 60h-342v-451z" />
    <glyph glyph-name="afii10060" unicode="&#x40b;" horiz-adv-x="1558" 
d="M41 1219v215h1077v-215h-475v-357q131 25 266 25q527 0 527 -430v-457h-246v428q0 234 -299 234q-126 0 -248 -25v-637h-246v1219h-356z" />
    <glyph glyph-name="afii10061" unicode="&#x40c;" horiz-adv-x="1284" 
d="M184 0v1434h246v-609h182l375 609h227v-82l-387 -621l416 -649v-82h-242l-389 610h-182v-610h-246zM549 1561l176 309h217v-84l-197 -225h-196z" />
    <glyph glyph-name="afii10062" unicode="&#x40e;" horiz-adv-x="1185" 
d="M20 1352v82h244l352 -738l320 738h229v-82l-606 -1352h-223v82l153 338zM266 1794v25h193v-23q0 -56 35 -87.5t102 -31.5q139 0 139 119v23h191v-25q0 -129 -89.5 -201.5t-240.5 -72.5t-240.5 72.5t-89.5 201.5z" />
    <glyph glyph-name="afii10145" unicode="&#x40f;" horiz-adv-x="1441" 
d="M184 0v1434h246v-1219h582v1219h245v-1434h-423v-287h-226v287h-424z" />
    <glyph glyph-name="afii10017" unicode="&#x410;" horiz-adv-x="1347" 
d="M41 0v82l512 1352h242l512 -1352v-82h-242l-127 354h-541l-129 -354h-227zM471 559h393l-194 547z" />
    <glyph glyph-name="afii10018" unicode="&#x411;" horiz-adv-x="1355" 
d="M184 0v1434h983v-215h-737v-338h420q188 0 295.5 -118.5t107.5 -322.5q0 -203 -107.5 -321.5t-295.5 -118.5h-666zM430 215h377q87 0 142 59.5t55 165.5t-55 166t-142 60h-377v-451z" />
    <glyph glyph-name="afii10019" unicode="&#x412;" horiz-adv-x="1355" 
d="M184 0v1434h604q195 0 302.5 -98.5t107.5 -286.5q0 -218 -172 -306q227 -82 227 -346q0 -194 -106.5 -295.5t-302.5 -101.5h-660zM430 215h373q205 0 205 197q0 202 -205 202h-373v-399zM430 819h318q202 0 202 201q0 199 -202 199h-318v-400z" />
    <glyph glyph-name="afii10020" unicode="&#x413;" horiz-adv-x="1157" 
d="M184 0v1434h891v-215h-645v-1219h-246z" />
    <glyph glyph-name="afii10021" unicode="&#x414;" horiz-adv-x="1447" 
d="M51 215h111q79 105 121 227q43 125 43 359v633h882v-1219h168v-502h-225v287h-875v-287h-225v502zM426 215h537v1004h-412v-418q0 -157 -21 -277q-20 -114 -43 -178q-21 -58 -61 -131z" />
    <glyph glyph-name="afii10022" unicode="&#x415;" horiz-adv-x="1208" 
d="M184 0v1434h920v-215h-674v-398h578v-205h-578v-401h676v-215h-922z" />
    <glyph glyph-name="afii10024" unicode="&#x416;" horiz-adv-x="1898" 
d="M63 0v82l355 647l-326 623v82h225l320 -609h190v609h246v-609h191l319 609h225v-82l-325 -623l354 -647v-82h-248l-319 610h-197v-610h-246v610h-196l-320 -610h-248z" />
    <glyph glyph-name="afii10025" unicode="&#x417;" horiz-adv-x="1277" 
d="M102 465h246q0 -131 88 -200.5t230 -69.5q128 0 195 55.5t67 161.5q0 99 -67 152.5t-189 53.5h-191v205h191q105 0 164 52t59 145q0 99 -65.5 159t-180.5 60q-121 0 -193.5 -69t-72.5 -201h-246q0 244 144 370q143 125 368 125q230 0 362 -114t132 -303q0 -209 -195 -318
q107 -38 167.5 -118.5t60.5 -198.5q0 -204 -138 -323.5t-381 -119.5q-242 0 -397 125q-158 128 -158 371z" />
    <glyph glyph-name="afii10026" unicode="&#x418;" horiz-adv-x="1462" 
d="M184 0v1434h246v-994l623 994h225v-1434h-246v993l-622 -993h-226z" />
    <glyph glyph-name="afii10027" unicode="&#x419;" horiz-adv-x="1462" 
d="M184 0v1434h246v-994l623 994h225v-1434h-246v993l-622 -993h-226zM401 1794v25h193v-23q0 -56 35 -87.5t102 -31.5q139 0 139 119v23h191v-25q0 -129 -89.5 -201.5t-240.5 -72.5t-240.5 72.5t-89.5 201.5z" />
    <glyph glyph-name="afii10028" unicode="&#x41a;" horiz-adv-x="1284" 
d="M184 0v1434h246v-609h182l375 609h227v-82l-387 -621l416 -649v-82h-242l-389 610h-182v-610h-246z" />
    <glyph glyph-name="afii10029" unicode="&#x41b;" horiz-adv-x="1368" 
d="M20 0v225h39q131 0 181 111q49 113 49 403v695h895v-1434h-246v1219h-424v-551q0 -668 -446 -668h-48z" />
    <glyph glyph-name="afii10030" unicode="&#x41c;" horiz-adv-x="1658" 
d="M184 0v1434h238l412 -670l411 670h230v-1434h-238v997l-328 -534h-157l-330 534v-997h-238z" />
    <glyph glyph-name="afii10031" unicode="&#x41d;" horiz-adv-x="1454" 
d="M184 0v1434h246v-609h594v609h246v-1434h-246v610h-594v-610h-246z" />
    <glyph glyph-name="afii10032" unicode="&#x41e;" 
d="M143 485v463q0 241 151.5 378.5t412.5 137.5q260 0 411.5 -137.5t151.5 -378.5v-463q0 -241 -151.5 -378.5t-411.5 -137.5q-261 0 -412.5 137.5t-151.5 378.5zM389 473q0 -125 84 -201.5t234 -76.5t233.5 76.5t83.5 201.5v488q0 125 -83.5 201.5t-233.5 76.5t-234 -76.5
t-84 -201.5v-488z" />
    <glyph glyph-name="afii10033" unicode="&#x41f;" horiz-adv-x="1441" 
d="M184 0v1434h1073v-1434h-245v1219h-582v-1219h-246z" />
    <glyph glyph-name="afii10034" unicode="&#x420;" horiz-adv-x="1300" 
d="M184 0v1434h621q188 0 295.5 -118.5t107.5 -322.5q0 -203 -107.5 -321.5t-295.5 -118.5h-375v-553h-246zM430 768h332q87 0 141.5 59.5t54.5 165.5t-54.5 166t-141.5 60h-332v-451z" />
    <glyph glyph-name="afii10035" unicode="&#x421;" horiz-adv-x="1351" 
d="M143 485v463q0 246 145.5 381t411.5 135q228 0 377 -125q152 -128 152 -370v-21h-246v21q0 133 -88 200q-88 70 -197 70q-153 0 -231 -71t-78 -203v-496q0 -132 78 -203t231 -71q109 0 197 67q88 70 88 203v20h246v-20q0 -243 -152 -371q-149 -125 -377 -125
q-266 0 -411.5 135t-145.5 381z" />
    <glyph glyph-name="afii10036" unicode="&#x422;" horiz-adv-x="1159" 
d="M41 1219v215h1077v-215h-416v-1219h-245v1219h-416z" />
    <glyph glyph-name="afii10037" unicode="&#x423;" horiz-adv-x="1185" 
d="M20 1352v82h244l352 -738l320 738h229v-82l-606 -1352h-223v82l153 338z" />
    <glyph glyph-name="afii10038" unicode="&#x424;" horiz-adv-x="1773" 
d="M102 664v147q0 235 164 367q168 133 406 133h92v164h246v-164h92q238 0 403 -133q166 -132 166 -367v-147q0 -235 -166 -367q-165 -133 -403 -133h-92v-189h-246v189h-92q-238 0 -406 133q-164 132 -164 367zM348 668q0 -125 87.5 -207t226.5 -82h102v717h-102
q-139 0 -226.5 -82t-87.5 -207v-139zM1010 379h102q139 0 226 82t87 207v139q0 125 -87 207t-226 82h-102v-717z" />
    <glyph glyph-name="afii10039" unicode="&#x425;" horiz-adv-x="1327" 
d="M61 0v82l449 659l-414 611v82h250l318 -500l331 500h236v-82l-418 -609l453 -661v-82h-250l-359 545l-360 -545h-236z" />
    <glyph glyph-name="afii10040" unicode="&#x426;" horiz-adv-x="1484" 
d="M184 0v1434h246v-1219h569v1219h246v-1219h168v-502h-225v287h-1004z" />
    <glyph glyph-name="afii10041" unicode="&#x427;" horiz-adv-x="1345" 
d="M123 950v484h246v-455q0 -234 299 -234q131 0 247 29v660h246v-1434h-246v549q-142 -29 -266 -29q-526 0 -526 430z" />
    <glyph glyph-name="afii10042" unicode="&#x428;" horiz-adv-x="2035" 
d="M184 0v1434h246v-1219h465v1219h246v-1219h465v1219h245v-1434h-1667z" />
    <glyph glyph-name="afii10043" unicode="&#x429;" horiz-adv-x="2091" 
d="M184 0v1434h246v-1219h465v1219h246v-1219h465v1219h245v-1219h168v-502h-225v287h-1610z" />
    <glyph glyph-name="afii10044" unicode="&#x42a;" horiz-adv-x="1464" 
d="M20 1219v215h574v-553h375q188 0 295.5 -118.5t107.5 -322.5q0 -203 -107.5 -321.5t-295.5 -118.5h-621v1219h-328zM594 215h332q87 0 141.5 59.5t54.5 165.5t-54.5 166t-141.5 60h-332v-451z" />
    <glyph glyph-name="afii10045" unicode="&#x42b;" horiz-adv-x="1818" 
d="M184 0v1434h246v-553h375q188 0 295.5 -118.5t107.5 -322.5q0 -203 -107.5 -321.5t-295.5 -118.5h-621zM430 215h332q87 0 141.5 59.5t54.5 165.5t-54.5 166t-141.5 60h-332v-451zM1389 0v1434h245v-1434h-245z" />
    <glyph glyph-name="afii10046" unicode="&#x42c;" horiz-adv-x="1300" 
d="M184 0v1434h246v-553h375q188 0 295.5 -118.5t107.5 -322.5q0 -203 -107.5 -321.5t-295.5 -118.5h-621zM430 215h332q87 0 141.5 59.5t54.5 165.5t-54.5 166t-141.5 60h-332v-451z" />
    <glyph glyph-name="afii10047" unicode="&#x42d;" horiz-adv-x="1353" 
d="M123 465h227q0 -130 92 -201q90 -69 203 -69q154 0 237 72t83 202v145h-498v205h498v146q0 130 -83 202t-237 72q-120 0 -209 -74q-86 -74 -86 -196h-227q0 241 151 368q154 127 369 127q269 0 418 -136t149 -380v-463q0 -244 -149 -380t-418 -136q-227 0 -373 131
q-147 132 -147 365z" />
    <glyph glyph-name="afii10048" unicode="&#x42e;" horiz-adv-x="1929" 
d="M184 0v1434h246v-611h270v-215h-270v-608h-246zM700 467v500q0 230 146 364q148 133 397 133q250 0 395 -133q148 -133 148 -364v-500q0 -234 -148 -367q-143 -131 -395 -131q-251 0 -397 131q-146 134 -146 367zM946 455q0 -116 79 -188t218 -72t218 72t79 188v524
q0 116 -79 188t-218 72t-218 -72t-79 -188v-524z" />
    <glyph glyph-name="afii10049" unicode="&#x42f;" horiz-adv-x="1323" 
d="M86 0v82l285 475q-120 45 -188 157t-68 269q0 215 112 333t320 118h592v-1434h-246v532h-270l-312 -532h-225zM365 977q0 -236 231 -236h297v478h-297q-231 0 -231 -242z" />
    <glyph glyph-name="afii10065" unicode="&#x430;" horiz-adv-x="1144" 
d="M92 289q0 167 111 254.5t329 87.5h234v84q0 170 -201 170q-96 0 -148 -41.5t-52 -110.5h-220q0 165 108.5 261t311.5 96q206 0 316 -97t110 -264v-729h-131l-86 119q-120 -144 -325 -144q-158 0 -257.5 84t-99.5 230zM317 313q0 -133 177 -133q157 0 272 121v158h-234
q-215 0 -215 -146z" />
    <glyph glyph-name="afii10066" unicode="&#x431;" horiz-adv-x="1159" 
d="M133 367v376q0 223 72.5 349.5t234.5 173.5l254 75q78 24 78 93v10h225v-10q0 -140 -59 -199q-57 -55 -205 -96l-196 -56q-106 -30 -151.5 -89.5t-45.5 -176.5v-33q120 166 317 166q175 0 280 -102t105 -289v-188q0 -183 -124 -289q-122 -107 -330 -107
q-210 0 -332.5 105t-122.5 287zM358 381q0 -90 61 -145.5t169 -55.5t168.5 55.5t60.5 145.5v162q0 93 -59.5 147.5t-157.5 54.5q-136 0 -242 -124v-240z" />
    <glyph glyph-name="afii10067" unicode="&#x432;" horiz-adv-x="1159" 
d="M164 0v1065h485q357 0 357 -283q0 -159 -119 -235q166 -64 166 -240q0 -165 -95 -236t-288 -71h-506zM389 197h295q129 0 129 127q0 125 -129 125h-295v-252zM389 621h252q64 0 95.5 33t31.5 91q0 123 -127 123h-252v-247z" />
    <glyph glyph-name="afii10068" unicode="&#x433;" horiz-adv-x="960" 
d="M164 0v1065h715v-197h-490v-868h-225z" />
    <glyph glyph-name="afii10069" unicode="&#x434;" horiz-adv-x="1304" 
d="M57 197h99q114 108 114 407v461h805v-868h158v-455h-221v258h-733v-258h-222v455zM401 197h449v671h-367v-299q0 -214 -82 -372z" />
    <glyph glyph-name="afii10070" unicode="&#x435;" horiz-adv-x="1126" 
d="M117 367v327q0 179 123 287q127 109 331 109q202 0 320.5 -105t118.5 -287v-239h-668v-88q0 -88 60 -139.5t169 -51.5q181 0 211 142h226q-17 -163 -131.5 -255t-305.5 -92q-210 0 -332 105t-122 287zM342 631h442v67q0 87 -58 137t-163 50t-163 -50t-58 -137v-67z" />
    <glyph glyph-name="afii10072" unicode="&#x436;" horiz-adv-x="1617" 
d="M82 0v106l283 439l-265 413v107h183l274 -434h139v434h226v-434h139l274 434h183v-107l-265 -413l283 -439v-106h-199l-270 434h-145v-434h-226v434h-145l-270 -434h-199z" />
    <glyph glyph-name="afii10073" unicode="&#x437;" horiz-adv-x="1114" 
d="M106 371v14h220v-18q0 -87 61.5 -137t175.5 -50q93 0 146 37.5t53 101.5q0 57 -40 93.5t-108 36.5h-159v180h157q59 0 93 35t34 90q0 62 -49 96.5t-139 34.5q-102 0 -154.5 -49.5t-52.5 -137.5v-12h-219v12q0 185 115.5 288.5t324.5 103.5q189 0 301.5 -85.5
t112.5 -228.5q0 -154 -131 -227q153 -61 153 -236q0 -160 -114 -249t-318 -89q-214 0 -338.5 106.5t-124.5 289.5z" />
    <glyph glyph-name="afii10074" unicode="&#x438;" horiz-adv-x="1249" 
d="M164 0v1065h225v-717l471 717h225v-1065h-225v717l-471 -717h-225z" />
    <glyph glyph-name="afii10075" unicode="&#x439;" horiz-adv-x="1249" 
d="M164 0v1065h225v-717l471 717h225v-1065h-225v717l-471 -717h-225zM295 1450v25h192v-23q0 -56 35.5 -87.5t102.5 -31.5q139 0 139 119v23h190v-25q0 -130 -89.5 -205.5t-239.5 -75.5t-240 75.5t-90 205.5z" />
    <glyph glyph-name="afii10076" unicode="&#x43a;" horiz-adv-x="1126" 
d="M164 0v1065h225v-434h141l310 434h186v-107l-295 -413l313 -439v-106h-202l-314 434h-139v-434h-225z" />
    <glyph glyph-name="afii10077" unicode="&#x43b;" horiz-adv-x="1226" 
d="M61 0v205h23q95 0 137.5 64t42.5 200v596h799v-1065h-225v868h-361v-397q0 -226 -98.5 -348.5t-261.5 -122.5h-56z" />
    <glyph glyph-name="afii10078" unicode="&#x43c;" horiz-adv-x="1421" 
d="M164 0v1065h225l326 -490l317 490h225v-1065h-225v717l-268 -412h-107l-268 412v-717h-225z" />
    <glyph glyph-name="afii10079" unicode="&#x43d;" horiz-adv-x="1226" 
d="M164 0v1065h225v-434h449v434h225v-1065h-225v434h-449v-434h-225z" />
    <glyph glyph-name="afii10080" unicode="&#x43e;" horiz-adv-x="1142" 
d="M117 371v323q0 178 119.5 287t334.5 109t335 -109t120 -287v-323q0 -178 -120 -287t-335 -109t-334.5 109t-119.5 287zM342 381q0 -90 60.5 -145.5t168.5 -55.5t169 55.5t61 145.5v303q0 90 -61 145.5t-169 55.5t-168.5 -55.5t-60.5 -145.5v-303z" />
    <glyph glyph-name="afii10081" unicode="&#x43f;" horiz-adv-x="1216" 
d="M164 0v1065h889v-1065h-226v868h-438v-868h-225z" />
    <glyph glyph-name="afii10082" unicode="&#x440;" horiz-adv-x="1206" 
d="M164 -328v1393h131l84 -119q120 144 317 144q162 0 269 -101q108 -102 108 -291v-331q0 -188 -105 -290t-280 -102q-194 0 -299 129v-432h-225zM389 317q128 -137 258 -137q86 0 143.5 56t57.5 147v299q0 91 -56.5 147t-142.5 56q-132 0 -260 -137v-431z" />
    <glyph glyph-name="afii10083" unicode="&#x441;" horiz-adv-x="1103" 
d="M117 371v323q0 183 120 289.5t324 106.5q201 0 317.5 -104.5t116.5 -287.5v-12h-225v12q0 86 -55 136.5t-154 50.5q-107 0 -163 -49.5t-56 -137.5v-331q0 -88 56 -137.5t163 -49.5q99 0 154 50.5t55 136.5v18h225v-14q0 -180 -121 -289q-119 -107 -313 -107
q-204 0 -324 106.5t-120 289.5z" />
    <glyph glyph-name="afii10084" unicode="&#x442;" horiz-adv-x="999" 
d="M41 868v197h917v-197h-346v-868h-225v868h-346z" />
    <glyph glyph-name="afii10085" unicode="&#x443;" horiz-adv-x="1046" 
d="M41 958v107h209l280 -758l269 758h207v-107l-508 -1286h-185v82l107 246z" />
    <glyph glyph-name="afii10086" unicode="&#x444;" horiz-adv-x="1654" 
d="M133 332v401q0 165 89 261t231 96q159 0 262 -115v469h225v-469q103 115 262 115q142 0 231 -96t89 -261v-401q0 -165 -89 -261t-231 -96q-159 0 -262 115v-418h-225v418q-103 -115 -262 -115q-142 0 -231 96t-89 261zM358 362q0 -80 47.5 -131t120.5 -51q104 0 189 82
v541q-85 82 -189 82q-73 0 -120.5 -51.5t-47.5 -131.5v-340zM940 262q85 -82 188 -82q73 0 120.5 51t47.5 131v340q0 80 -47.5 131.5t-120.5 51.5q-103 0 -188 -82v-541z" />
    <glyph glyph-name="afii10087" unicode="&#x445;" horiz-adv-x="1075" 
d="M82 0v106l313 426l-309 426v107h203l248 -360l249 360h191v-107l-303 -417l319 -435v-106h-200l-261 379l-258 -379h-192z" />
    <glyph glyph-name="afii10088" unicode="&#x446;" horiz-adv-x="1271" 
d="M164 0v1065h225v-868h428v868h225v-868h158v-455h-221v258h-815z" />
    <glyph glyph-name="afii10089" unicode="&#x447;" horiz-adv-x="1155" 
d="M102 702v363h226v-340q0 -168 237 -168q95 0 201 25v483h225v-1065h-225v381q-132 -29 -238 -29q-205 0 -315.5 87.5t-110.5 262.5z" />
    <glyph glyph-name="afii10090" unicode="&#x448;" horiz-adv-x="1650" 
d="M164 0v1065h225v-868h324v868h225v-868h324v868h225v-1065h-1323z" />
    <glyph glyph-name="afii10091" unicode="&#x449;" horiz-adv-x="1716" 
d="M164 0v1065h225v-868h324v868h225v-868h324v868h225v-868h158v-455h-222v258h-1259z" />
    <glyph glyph-name="afii10092" unicode="&#x44a;" horiz-adv-x="1210" 
d="M0 868v197h510v-344h287q168 0 260 -96.5t92 -264.5t-92 -264t-260 -96h-512v868h-285zM510 197h270q63 0 103.5 43.5t40.5 119.5t-40 120t-102 44h-272v-327z" />
    <glyph glyph-name="afii10093" unicode="&#x44b;" horiz-adv-x="1533" 
d="M164 0v1065h225v-344h266q168 0 260.5 -96.5t92.5 -264.5t-92.5 -264t-260.5 -96h-491zM389 197h250q63 0 103 43.5t40 119.5t-39.5 120t-101.5 44h-252v-327zM1145 0v1065h225v-1065h-225z" />
    <glyph glyph-name="afii10094" unicode="&#x44c;" horiz-adv-x="1089" 
d="M164 0v1065h225v-344h287q168 0 260 -96.5t92 -264.5t-92 -264t-260 -96h-512zM389 197h270q63 0 103.5 43.5t40.5 119.5t-39.5 120t-101.5 44h-273v-327z" />
    <glyph glyph-name="afii10095" unicode="&#x44d;" horiz-adv-x="1118" 
d="M109 371v14h225v-18q0 -87 57 -137t162 -50t164 50.5t59 136.5v73h-321v181h321v77q0 87 -58 137t-165 50q-103 0 -161 -50.5t-58 -136.5v-12h-225v12q0 182 120.5 287t325.5 105q204 0 325 -108t121 -288v-323q0 -180 -122 -288t-326 -108q-202 0 -323 108t-121 288z
" />
    <glyph glyph-name="afii10096" unicode="&#x44e;" horiz-adv-x="1595" 
d="M164 0v1065h225v-434h201v71q0 176 116.5 282t327.5 106t328 -106t117 -282v-340q0 -176 -117 -281.5t-328 -105.5t-327.5 105.5t-116.5 281.5v72h-201v-434h-225zM815 373q0 -87 58 -140t161 -53t161 53t58 140v319q0 87 -58 140t-161 53t-161 -53t-58 -140v-319z" />
    <glyph glyph-name="afii10097" unicode="&#x44f;" horiz-adv-x="1130" 
d="M102 0v106l209 300q-95 27 -152 110.5t-57 210.5q0 157 86.5 247.5t225.5 90.5h553v-1065h-226v393h-176l-254 -393h-209zM328 721q0 -148 151 -148h262v295h-262q-151 0 -151 -147z" />
    <glyph glyph-name="afii10071" unicode="&#x451;" horiz-adv-x="1126" 
d="M117 367v327q0 179 123 287q127 109 331 109q202 0 320.5 -105t118.5 -287v-239h-668v-88q0 -88 60 -139.5t169 -51.5q181 0 211 142h226q-17 -163 -131.5 -255t-305.5 -92q-210 0 -332 105t-122 287zM250 1219v225h225v-225h-225zM342 631h442v67q0 87 -58 137t-163 50
t-163 -50t-58 -137v-67zM653 1219v225h226v-225h-226z" />
    <glyph glyph-name="afii10099" unicode="&#x452;" horiz-adv-x="1220" 
d="M41 1083v177h147v184h226v-184h442v-177h-442v-264q117 129 305 129q162 0 264 -108q104 -107 104 -295v-492q0 -165 -92 -286q-88 -119 -290 -119q-35 0 -76 6v196h33q91 0 145.5 58t54.5 180v436q0 106 -52.5 162.5t-141.5 56.5q-141 0 -254 -137v-606h-226v1083h-147z
" />
    <glyph glyph-name="afii10100" unicode="&#x453;" horiz-adv-x="960" 
d="M164 0v1065h715v-197h-490v-868h-225zM385 1208l164 287h203v-78l-185 -209h-182z" />
    <glyph glyph-name="afii10101" unicode="&#x454;" horiz-adv-x="1118" 
d="M117 371v323q0 180 121 288t325 108q205 0 326 -105t121 -287v-12h-226v12q0 86 -58 136.5t-161 50.5q-107 0 -165 -50t-58 -137v-77h322v-181h-322v-73q0 -86 59 -136.5t164 -50.5t162 50t57 137v18h226v-14q0 -180 -121.5 -288t-323.5 -108q-204 0 -326 108t-122 288z
" />
    <glyph glyph-name="afii10102" unicode="&#x455;" horiz-adv-x="1132" 
d="M102 367h226q0 -87 70.5 -137t189.5 -50q91 0 143.5 31.5t52.5 85.5q0 81 -116 111l-277 71q-125 33 -190.5 99t-65.5 184q0 149 113.5 238.5t308.5 89.5q201 0 317.5 -99.5t116.5 -281.5h-225q0 84 -60.5 130t-162.5 46q-89 0 -136 -31t-47 -82q0 -72 117 -102l275 -68
q258 -64 258 -287q0 -150 -121 -245t-320 -95q-216 0 -341.5 104t-125.5 288z" />
    <glyph glyph-name="afii10103" unicode="&#x456;" horiz-adv-x="552" 
d="M164 0v1065h225v-1065h-225zM164 1219v225h225v-225h-225z" />
    <glyph glyph-name="afii10104" unicode="&#x457;" horiz-adv-x="552" 
d="M-37 1219v225h225v-225h-225zM164 0v1065h225v-1065h-225zM367 1219v225h225v-225h-225z" />
    <glyph glyph-name="afii10105" unicode="&#x458;" horiz-adv-x="555" 
d="M-27 -152h47q146 0 146 183v1034h225v-1034q0 -98 -31 -183q-31 -87 -113.5 -143.5t-199.5 -56.5q-24 0 -74 4v196zM166 1219v225h225v-225h-225z" />
    <glyph glyph-name="afii10106" unicode="&#x459;" horiz-adv-x="1763" 
d="M61 0v205h23q95 0 137.5 64t42.5 200v596h799v-344h328q140 0 225.5 -95.5t85.5 -265.5t-85.5 -265t-225.5 -95h-553v868h-361v-397q0 -226 -98.5 -348.5t-261.5 -122.5h-56zM1063 197h270q63 0 103.5 43.5t40.5 119.5t-40 120t-102 44h-272v-327z" />
    <glyph glyph-name="afii10107" unicode="&#x45a;" horiz-adv-x="1763" 
d="M164 0v1065h225v-393h449v393h225v-344h328q140 0 225.5 -95.5t85.5 -265.5t-85.5 -265t-225.5 -95h-553v475h-449v-475h-225zM1063 197h270q63 0 103.5 43.5t40.5 119.5t-40 120t-102 44h-272v-327z" />
    <glyph glyph-name="afii10108" unicode="&#x45b;" horiz-adv-x="1220" 
d="M41 1083v177h147v184h226v-184h442v-177h-442v-264q117 129 305 129q162 0 264 -108q104 -107 104 -295v-545h-225v524q0 106 -52.5 162.5t-141.5 56.5q-141 0 -254 -137v-606h-226v1083h-147z" />
    <glyph glyph-name="afii10109" unicode="&#x45c;" horiz-adv-x="1126" 
d="M164 0v1065h225v-434h141l310 434h186v-107l-295 -413l313 -439v-106h-202l-314 434h-139v-434h-225zM451 1208l163 287h203v-78l-184 -209h-182z" />
    <glyph glyph-name="afii10110" unicode="&#x45e;" horiz-adv-x="1046" 
d="M41 958v107h209l280 -758l269 758h207v-107l-508 -1286h-185v82l107 246zM205 1450v25h192v-23q0 -56 35.5 -87.5t102.5 -31.5q139 0 139 119v23h190v-25q0 -130 -89.5 -205.5t-239.5 -75.5t-240 75.5t-90 205.5z" />
    <glyph glyph-name="afii10193" unicode="&#x45f;" horiz-adv-x="1216" 
d="M164 0v1065h225v-868h438v868h226v-1065h-334v-258h-221v258h-334z" />
    <glyph glyph-name="afii10050" unicode="&#x490;" horiz-adv-x="1136" 
d="M184 0v1434h645v266h226v-481h-625v-1219h-246z" />
    <glyph glyph-name="afii10098" unicode="&#x491;" horiz-adv-x="950" 
d="M164 0v1065h483v258h221v-455h-479v-868h-225z" />
    <glyph glyph-name="endash" unicode="&#x2013;" horiz-adv-x="1226" 
d="M123 539v204h981v-204h-981z" />
    <glyph glyph-name="emdash" unicode="&#x2014;" horiz-adv-x="1732" 
d="M123 539v204h1487v-204h-1487z" />
    <glyph glyph-name="quoteleft" unicode="&#x2018;" horiz-adv-x="544" 
d="M125 934v106l168 404h178l-96 -510h-250z" />
    <glyph glyph-name="quoteright" unicode="&#x2019;" horiz-adv-x="544" 
d="M74 934l96 510h250v-107l-168 -403h-178z" />
    <glyph glyph-name="quotesinglbase" unicode="&#x201a;" horiz-adv-x="532" 
d="M74 -231l96 510h250v-107l-168 -403h-178z" />
    <glyph glyph-name="quotedblleft" unicode="&#x201c;" horiz-adv-x="915" 
d="M125 934v106l168 404h178l-96 -510h-250zM496 934v106l168 404h178l-97 -510h-249z" />
    <glyph glyph-name="quotedblright" unicode="&#x201d;" horiz-adv-x="915" 
d="M74 934l96 510h250v-107l-168 -403h-178zM444 934l97 510h250v-107l-168 -403h-179z" />
    <glyph glyph-name="quotedblbase" unicode="&#x201e;" horiz-adv-x="915" 
d="M74 -231l96 510h250v-107l-168 -403h-178zM444 -231l97 510h250v-107l-168 -403h-179z" />
    <glyph glyph-name="dagger" unicode="&#x2020;" horiz-adv-x="1110" 
d="M61 868v197h381v379h226v-379h381v-197h-381v-1196h-226v1196h-381z" />
    <glyph glyph-name="daggerdbl" unicode="&#x2021;" horiz-adv-x="1110" 
d="M61 276v197h381v395h-381v197h381v379h226v-379h381v-197h-381v-395h381v-197h-381v-604h-226v604h-381z" />
    <glyph glyph-name="bullet" unicode="&#x2022;" horiz-adv-x="880" 
d="M123 647v17q0 149 83.5 230t233.5 81t234 -81.5t84 -229.5v-17q0 -148 -84 -229.5t-234 -81.5t-233.5 81t-83.5 230z" />
    <glyph glyph-name="ellipsis" unicode="&#x2026;" horiz-adv-x="1382" 
d="M143 0v279h277v-279h-277zM553 0v279h276v-279h-276zM963 0v279h276v-279h-276z" />
    <glyph glyph-name="perthousand" unicode="&#x2030;" horiz-adv-x="2344" 
d="M82 1038v115q0 149 83.5 230t233.5 81t234 -81.5t84 -229.5v-115q0 -148 -84 -229.5t-234 -81.5t-233.5 81t-83.5 230zM281 1008q0 -52 32 -85.5t86 -33.5t86.5 33.5t32.5 85.5v176q0 52 -32.5 85.5t-86.5 33.5t-86 -33.5t-32 -85.5v-176zM307 0v82l830 1352h174v-82
l-830 -1352h-174zM905 281v114q0 149 84 230.5t234 81.5t233.5 -81.5t83.5 -230.5v-114q0 -149 -83.5 -230.5t-233.5 -81.5t-234 81.5t-84 230.5zM1104 250q0 -52 32.5 -85.5t86.5 -33.5t86 33.5t32 85.5v176q0 52 -32 85.5t-86 33.5t-86.5 -33.5t-32.5 -85.5v-176z
M1628 281v114q0 149 84 230.5t234 81.5t233.5 -81.5t83.5 -230.5v-114q0 -149 -83.5 -230.5t-233.5 -81.5t-234 81.5t-84 230.5zM1827 250q0 -52 32.5 -85.5t86.5 -33.5t86 33.5t32 85.5v176q0 52 -32 85.5t-86 33.5t-86.5 -33.5t-32.5 -85.5v-176z" />
    <glyph glyph-name="guilsinglleft" unicode="&#x2039;" horiz-adv-x="686" 
d="M82 563l287 430h194v-65l-244 -365l244 -366v-66h-194z" />
    <glyph glyph-name="guilsinglright" unicode="&#x203a;" horiz-adv-x="686" 
d="M123 131v66l244 366l-244 365v65h194l287 -430l-287 -432h-194z" />
    <glyph glyph-name="fraction" unicode="&#x2044;" horiz-adv-x="798" 
d="M-102 0v82l829 1352h174v-82l-829 -1352h-174z" />
    <glyph glyph-name="Euro" unicode="&#x20ac;" horiz-adv-x="1380" 
d="M61 436v197h172v168h-172v196h172q14 221 151 344t372 123q215 0 358 -125t143 -370v-21h-213v21q0 141 -80 216t-210 75t-209 -67.5t-86 -195.5h370v-196h-370v-168h370v-197h-370q11 -126 86 -194t209 -68q137 0 213.5 73.5t76.5 217.5v20h213v-20q0 -242 -134 -369
t-367 -127q-232 0 -371 119.5t-152 347.5h-172z" />
    <glyph glyph-name="afii61352" unicode="&#x2116;" horiz-adv-x="2041" 
d="M184 0v1434h207l559 -992v992h226v-1434h-207l-559 991v-991h-226zM1325 416v172h635v-172h-635zM1325 1038v115q0 149 83.5 230t233.5 81t234 -81.5t84 -229.5v-115q0 -148 -84 -229.5t-234 -81.5t-233.5 81t-83.5 230zM1524 1008q0 -52 32 -85.5t86 -33.5t86.5 33.5
t32.5 85.5v176q0 52 -32.5 85.5t-86.5 33.5t-86 -33.5t-32 -85.5v-176z" />
    <glyph glyph-name="trademark" unicode="&#x2122;" horiz-adv-x="1406" 
d="M20 1317v117h517v-117h-193v-545h-131v545h-193zM641 772v662h127l190 -297l195 297h125v-662h-131v449l-148 -234h-84l-143 230v-445h-131z" />
    <glyph glyph-name="partialdiff" unicode="&#x2202;" horiz-adv-x="1155" 
d="M92 315q0 53 19 248q18 188 131.5 289.5t287.5 101.5q199 0 304 -166q4 114 4 115q-6 344 -340 344q-114 0 -224 -26l15 198q113 29 266 29q229 0 358 -139t129 -375q0 -160 -38 -567q-17 -183 -148.5 -287.5t-341.5 -104.5q-191 0 -306.5 92.5t-115.5 247.5zM319 358
q0 -81 55.5 -129.5t157.5 -48.5q108 0 173 55.5t73 145.5l21 244q-98 125 -230 125q-95 0 -160 -55t-75 -148q-15 -123 -15 -189z" />
    <glyph glyph-name="uni2206" unicode="&#x2206;" horiz-adv-x="1347" 
d="M41 0v84l512 1350h242l512 -1350v-84h-1266zM346 215h641l-317 891z" />
    <glyph glyph-name="product" unicode="&#x220f;" horiz-adv-x="1390" 
d="M184 -154v1588h1022v-1588h-225v1383h-571v-1383h-226z" />
    <glyph glyph-name="summation" unicode="&#x2211;" horiz-adv-x="1159" 
d="M102 51l332 592l-332 586v205h928v-205h-676l332 -586l-332 -592h703v-205h-955v205z" />
    <glyph glyph-name="radical" unicode="&#x221a;" horiz-adv-x="1138" 
d="M2 682v205h344l244 -697l330 1442h204v-80l-395 -1706h-227l-316 836h-184z" />
    <glyph glyph-name="infinity" unicode="&#x221e;" horiz-adv-x="1832" 
d="M123 657q0 171 106 283q107 113 289 113q204 0 385 -211l15 -17l14 17q184 211 383 211q180 0 287 -113q108 -114 108 -283q0 -166 -108 -280q-107 -113 -287 -113q-202 0 -385 213l-12 15l-11 -13q-181 -217 -389 -217q-182 0 -289 113q-106 112 -106 282zM348 653
q0 -81 50 -131.5t126 -50.5q55 0 103 37q36 28 43 35l12 11.5l19 18.5l20 21l51 53l6 6l-6 6l-51 52q-36 39 -51 51q-32 32 -72.5 54.5t-73.5 17.5q-76 0 -126 -51t-50 -130zM1057 653l6 -6l51 -53l49 -51q93 -78 148 -72q76 0 126 50.5t50 131.5q0 79 -50 130t-126 51
q-58 0 -105 -37q-27 -21 -41 -35q-15 -12 -51 -51l-51 -52z" />
    <glyph glyph-name="integral" unicode="&#x222b;" horiz-adv-x="649" 
d="M0 -131h68q145 0 145 151v1082q0 153 91 242.5t247 89.5h98v-197h-67q-148 0 -148 -152v-1081q0 -153 -91 -242.5t-245 -89.5h-98v197z" />
    <glyph glyph-name="approxequal" unicode="&#x2248;" horiz-adv-x="1087" 
d="M123 424q117 225 252 225q88 0 162 -51l36 -25q70 -49 109 -49q32 0 60 24.5t69 90.5l154 -92q-120 -225 -252 -225q-79 0 -135 36l-46 27q-8 4 -34.5 20.5t-34.5 20.5q-28 20 -57 20q-33 0 -61 -24.5t-69 -89.5zM123 854q117 225 252 225q88 0 162 -51l36 -24
q71 -50 109 -50q32 0 60 24.5t69 90.5l154 -92q-120 -225 -252 -225q-79 0 -135 36l-46 27q-8 4 -34.5 20.5t-34.5 20.5q-29 21 -57 21q-33 0 -61 -25t-69 -90z" />
    <glyph glyph-name="notequal" unicode="&#x2260;" horiz-adv-x="1146" 
d="M123 0v82l147 244h-147v190h264l152 252h-416v188h530l187 306h184v-82l-135 -224h135v-188h-250l-153 -252h403v-190h-520l-197 -326h-184z" />
    <glyph glyph-name="lessequal" unicode="&#x2264;" horiz-adv-x="1064" 
d="M123 0v188h819v-188h-819zM123 684v184l711 332h108v-156l-573 -268l573 -268v-156h-108z" />
    <glyph glyph-name="greaterequal" unicode="&#x2265;" horiz-adv-x="1064" 
d="M123 0v188h819v-188h-819zM123 352v156l573 268l-573 268v156h108l711 -332v-184l-711 -332h-108z" />
    <glyph glyph-name="lozenge" unicode="&#x25ca;" horiz-adv-x="1134" 
d="M102 717l379 717h172l379 -717l-381 -717h-170zM340 719l227 -438l228 436l-228 434z" />
    <glyph glyph-name="uni25FC" unicode="&#x25fc;" horiz-adv-x="1064" 
d="M0 0v1065h1065v-1065h-1065z" />
    </font>
</defs>
</svg>
